{"glyphs":{"0":{"ha":571,"x_min":42,"x_max":528,"o":"m 285 -14 q 163 19 218 -14 q 74 106 107 51 q 42 229 42 161 l 42 743 q 74 866 42 811 q 163 953 107 921 q 285 986 218 986 q 407 953 351 986 q 495 866 463 921 q 528 743 528 811 l 528 229 q 495 106 528 161 q 407 19 463 51 q 285 -14 351 -14 m 285 169 q 310 180 300 169 q 319 204 319 190 l 319 769 q 310 795 319 785 q 285 806 300 806 q 259 795 269 806 q 249 769 249 785 l 249 204 q 259 180 249 190 q 285 169 269 169 z "},"1":{"ha":569,"x_min":42,"x_max":528,"o":"m 42 0 l 42 179 l 207 179 l 207 694 l 83 581 l 42 581 l 42 803 l 207 972 l 417 972 l 417 179 l 528 179 l 528 0 l 42 0 z "},"2":{"ha":569,"x_min":42,"x_max":528,"o":"m 42 0 l 42 86 q 55 249 42 175 q 104 388 68 324 q 208 507 140 451 q 295 608 272 564 q 318 683 318 653 l 318 758 q 308 782 318 772 q 285 792 299 792 q 260 782 271 792 q 250 758 250 772 l 250 642 l 42 642 l 42 743 q 74 866 42 811 q 163 953 107 921 q 285 986 218 986 q 407 953 351 986 q 495 866 463 921 q 528 743 528 811 l 528 738 q 510 610 528 663 q 458 514 493 558 q 368 415 422 469 q 289 305 318 365 q 260 179 260 244 l 528 179 l 528 0 l 42 0 z "},"3":{"ha":569,"x_min":42,"x_max":528,"o":"m 285 -14 q 163 19 218 -14 q 74 110 107 53 q 42 236 42 167 l 42 331 l 250 331 l 250 213 q 260 189 250 199 q 285 179 271 179 q 308 190 299 179 q 318 214 318 200 l 318 347 q 308 372 318 361 q 285 382 299 382 l 150 382 l 150 590 l 285 590 q 308 600 299 590 q 318 624 318 610 l 318 757 q 308 781 318 771 q 285 792 299 792 q 260 782 271 792 q 250 757 250 772 l 250 642 l 42 642 l 42 736 q 74 863 42 806 q 163 953 107 919 q 285 986 218 986 q 407 953 351 986 q 495 863 463 919 q 528 736 528 806 l 528 694 q 498 590 526 640 q 417 521 469 540 l 417 499 q 477 458 453 488 q 515 394 501 429 q 528 324 528 358 l 528 236 q 495 110 528 167 q 407 19 463 53 q 285 -14 351 -14 z "},"4":{"ha":542,"x_min":42,"x_max":500,"o":"m 319 0 l 319 200 l 42 200 l 42 408 l 192 972 l 399 972 l 399 951 l 210 429 l 210 408 l 319 408 l 319 608 l 500 608 l 500 0 l 319 0 z "},"5":{"ha":569,"x_min":42,"x_max":528,"o":"m 285 -14 q 163 19 218 -14 q 74 106 107 51 q 42 229 42 161 l 42 314 l 250 314 l 250 213 q 260 189 250 199 q 285 179 271 179 q 308 189 299 179 q 318 213 318 199 l 318 451 q 308 475 318 465 q 285 485 300 485 q 260 475 271 485 q 250 451 250 465 l 250 397 l 42 397 l 42 972 l 514 972 l 514 792 l 250 792 l 250 657 l 271 657 q 315 688 286 681 q 374 694 344 694 q 470 658 438 694 q 515 567 503 622 q 528 451 528 511 l 528 229 q 495 106 528 161 q 407 19 463 51 q 285 -14 351 -14 z "},"6":{"ha":569,"x_min":42,"x_max":528,"o":"m 285 -14 q 163 19 218 -14 q 74 106 107 51 q 42 229 42 161 l 42 743 q 74 866 42 811 q 163 953 107 921 q 285 986 218 986 q 407 953 351 986 q 495 865 463 919 q 528 742 528 810 l 528 694 l 319 694 l 319 756 q 310 781 319 771 q 285 792 300 792 q 259 781 269 792 q 249 756 249 771 l 249 583 l 269 583 q 309 610 285 603 q 358 618 333 618 q 397 613 382 618 q 474 568 447 597 q 512 503 500 539 q 526 432 524 468 q 528 365 528 396 l 528 229 q 495 106 528 161 q 407 19 463 51 q 285 -14 351 -14 m 285 179 q 310 190 300 179 q 319 214 319 200 l 319 397 q 309 422 319 413 q 285 432 299 432 q 259 422 269 432 q 249 397 249 413 l 249 214 q 259 190 249 200 q 285 179 269 179 z "},"7":{"ha":569,"x_min":42,"x_max":528,"o":"m 61 0 l 304 764 l 304 792 l 42 792 l 42 972 l 528 972 l 528 865 l 285 0 l 61 0 z "},"8":{"ha":569,"x_min":42,"x_max":528,"o":"m 285 -14 q 163 19 218 -14 q 74 110 107 53 q 42 236 42 167 l 42 363 q 69 469 42 417 q 153 540 96 522 l 153 558 q 69 628 96 575 q 42 736 42 681 q 74 863 42 806 q 163 953 107 919 q 285 986 218 986 q 407 953 351 986 q 495 863 463 919 q 528 736 528 806 q 500 629 528 681 q 417 558 472 578 l 417 540 q 528 363 528 508 l 528 236 q 495 110 528 167 q 407 19 463 53 q 285 -14 351 -14 m 285 663 q 310 674 300 663 q 319 699 319 685 l 319 754 q 310 781 319 769 q 285 792 300 792 q 259 781 269 792 q 249 754 249 769 l 249 699 q 259 674 249 685 q 285 663 269 663 m 285 179 q 310 190 300 179 q 319 215 319 200 l 319 396 q 310 421 319 410 q 285 432 300 432 q 259 422 269 432 q 249 396 249 411 l 249 215 q 259 190 249 200 q 285 179 269 179 z "},"9":{"ha":569,"x_min":42,"x_max":528,"o":"m 285 986 q 408 953 353 986 q 495 866 463 921 q 528 743 528 811 l 528 229 q 495 107 528 163 q 408 19 463 51 q 285 -14 353 -14 q 163 19 218 -14 q 75 108 108 53 q 42 231 42 164 l 42 278 l 250 278 l 250 217 q 260 192 250 203 q 285 181 271 181 q 310 192 300 181 q 321 217 321 203 l 321 389 l 300 389 q 260 363 285 371 q 212 355 236 354 q 172 360 188 356 q 96 404 122 375 q 58 469 69 433 q 44 540 46 504 q 42 607 42 576 l 42 743 q 75 866 42 811 q 163 953 108 921 q 285 986 218 986 m 285 793 q 260 783 271 793 q 250 758 250 774 l 250 575 q 260 551 250 561 q 285 540 271 540 q 310 551 300 540 q 321 575 321 561 l 321 758 q 310 783 321 774 q 285 793 300 793 z "},"A":{"ha":569,"x_min":42,"x_max":528,"o":"m 42 0 l 160 972 l 410 972 l 528 0 l 333 0 l 321 179 l 247 179 l 238 0 l 42 0 m 258 388 l 311 388 l 297 694 l 274 694 l 258 388 z "},"Á":{"ha":1056,"x_min":42,"x_max":1014,"o":"m 807 0 l 704 250 l 353 250 l 250 0 l 42 0 l 467 972 l 589 972 l 1014 0 l 807 0 m 428 432 l 629 432 l 538 653 l 519 653 l 428 432 m 276 1115 l 768 1206 l 779 1146 l 288 1056 l 276 1115 z "},"Ă":{"ha":1056,"x_min":42,"x_max":1014,"o":"m 807 0 l 704 250 l 353 250 l 250 0 l 42 0 l 467 972 l 589 972 l 1014 0 l 807 0 m 428 432 l 629 432 l 538 653 l 519 653 l 428 432 m 528 1056 q 395 1076 456 1056 q 299 1133 335 1097 q 264 1210 264 1168 l 333 1210 q 394 1140 340 1167 q 528 1114 447 1114 q 663 1140 611 1114 q 721 1210 715 1167 l 792 1210 q 756 1133 792 1168 q 661 1076 721 1097 q 528 1056 601 1056 z "},"Ắ":{"ha":1056,"x_min":42,"x_max":1014,"o":"m 807 0 l 704 250 l 353 250 l 250 0 l 42 0 l 467 972 l 589 972 l 1014 0 l 807 0 m 428 432 l 629 432 l 538 653 l 519 653 l 428 432 m 444 1256 l 747 1397 l 774 1344 l 475 1206 l 444 1256 m 528 1056 q 395 1076 456 1056 q 299 1133 335 1097 q 264 1210 264 1168 l 333 1210 q 394 1140 340 1167 q 528 1114 447 1114 q 663 1140 611 1114 q 721 1210 715 1167 l 792 1210 q 756 1133 792 1168 q 661 1076 721 1097 q 528 1056 601 1056 z "},"Ặ":{"ha":1056,"x_min":42,"x_max":1014,"o":"m 807 0 l 704 250 l 353 250 l 250 0 l 42 0 l 467 972 l 589 972 l 1014 0 l 807 0 m 428 432 l 629 432 l 538 653 l 519 653 l 428 432 m 528 1042 q 395 1063 456 1042 q 299 1119 335 1083 q 264 1196 264 1154 l 333 1196 q 394 1126 340 1153 q 528 1100 447 1100 q 663 1126 611 1100 q 721 1196 715 1153 l 792 1196 q 756 1119 792 1154 q 661 1063 721 1083 q 528 1042 601 1042 m 417 -64 l 639 -64 l 639 -190 l 417 -190 l 417 -64 z "},"Ằ":{"ha":1056,"x_min":42,"x_max":1014,"o":"m 807 0 l 704 250 l 353 250 l 250 0 l 42 0 l 467 972 l 589 972 l 1014 0 l 807 0 m 428 432 l 629 432 l 538 653 l 519 653 l 428 432 m 639 1256 l 608 1206 l 310 1344 l 336 1397 l 639 1256 m 528 1056 q 395 1076 456 1056 q 299 1133 335 1097 q 264 1210 264 1168 l 333 1210 q 394 1140 340 1167 q 528 1114 447 1114 q 663 1140 611 1114 q 721 1210 715 1167 l 792 1210 q 756 1133 792 1168 q 661 1076 721 1097 q 528 1056 601 1056 z "},"Ẳ":{"ha":1056,"x_min":42,"x_max":1014,"o":"m 807 0 l 704 250 l 353 250 l 250 0 l 42 0 l 467 972 l 589 972 l 1014 0 l 807 0 m 428 432 l 629 432 l 538 653 l 519 653 l 428 432 m 528 1042 q 395 1063 456 1042 q 299 1119 335 1083 q 264 1196 264 1154 l 333 1196 q 394 1126 340 1153 q 528 1100 447 1100 q 663 1126 611 1100 q 721 1196 715 1153 l 792 1196 q 756 1119 792 1154 q 661 1063 721 1083 q 528 1042 601 1042 m 489 1178 q 508 1232 489 1215 q 554 1256 528 1249 q 600 1272 581 1264 q 619 1300 619 1279 q 588 1337 619 1328 q 528 1346 556 1346 q 467 1336 499 1346 q 435 1297 435 1326 l 435 1286 l 365 1286 l 365 1300 q 413 1379 365 1350 q 528 1408 460 1408 q 642 1379 596 1408 q 689 1300 689 1350 q 670 1245 689 1261 q 627 1223 651 1229 q 584 1209 603 1217 q 565 1178 565 1201 l 489 1178 z "},"Ẵ":{"ha":1056,"x_min":42,"x_max":1014,"o":"m 807 0 l 704 250 l 353 250 l 250 0 l 42 0 l 467 972 l 589 972 l 1014 0 l 807 0 m 428 432 l 629 432 l 538 653 l 519 653 l 428 432 m 528 1056 q 395 1076 456 1056 q 299 1133 335 1097 q 264 1210 264 1168 l 333 1210 q 394 1140 340 1167 q 528 1114 447 1114 q 663 1140 611 1114 q 721 1210 715 1167 l 792 1210 q 756 1133 792 1168 q 661 1076 721 1097 q 528 1056 601 1056 m 269 1261 q 282 1320 269 1286 q 326 1381 294 1354 q 411 1411 357 1407 q 497 1397 460 1415 q 565 1357 533 1379 q 631 1322 597 1335 q 689 1319 669 1310 q 715 1349 708 1328 q 722 1396 722 1371 l 786 1396 q 747 1285 786 1319 q 639 1261 708 1251 q 556 1292 592 1268 q 488 1337 519 1315 q 419 1356 456 1358 q 356 1324 376 1353 q 333 1261 336 1296 l 269 1261 z "},"Â":{"ha":1056,"x_min":42,"x_max":1014,"o":"m 807 0 l 704 250 l 353 250 l 250 0 l 42 0 l 467 972 l 589 972 l 1014 0 l 807 0 m 428 432 l 629 432 l 538 653 l 519 653 l 428 432 m 261 972 l 232 1025 l 528 1174 l 824 1025 l 794 972 l 542 1100 l 514 1100 l 261 972 z "},"Ấ":{"ha":1056,"x_min":42,"x_max":1081,"o":"m 807 0 l 704 250 l 353 250 l 250 0 l 42 0 l 467 972 l 589 972 l 1014 0 l 807 0 m 428 432 l 629 432 l 538 653 l 519 653 l 428 432 m 751 1172 l 1054 1314 l 1081 1261 l 782 1122 l 751 1172 m 261 972 l 232 1025 l 528 1174 l 824 1025 l 794 972 l 542 1100 l 514 1100 l 261 972 z "},"Ậ":{"ha":1056,"x_min":42,"x_max":1014,"o":"m 807 0 l 704 250 l 353 250 l 250 0 l 42 0 l 467 972 l 589 972 l 1014 0 l 807 0 m 428 432 l 629 432 l 538 653 l 519 653 l 428 432 m 417 -64 l 639 -64 l 639 -190 l 417 -190 l 417 -64 m 261 972 l 232 1025 l 528 1174 l 824 1025 l 794 972 l 542 1100 l 514 1100 l 261 972 z "},"Ầ":{"ha":1056,"x_min":42,"x_max":1014,"o":"m 807 0 l 704 250 l 353 250 l 250 0 l 42 0 l 467 972 l 589 972 l 1014 0 l 807 0 m 428 432 l 629 432 l 538 653 l 519 653 l 428 432 m 900 1163 l 871 1111 l 571 1251 l 599 1303 l 900 1163 m 261 972 l 232 1025 l 528 1174 l 824 1025 l 794 972 l 542 1100 l 514 1100 l 261 972 z "},"Ẩ":{"ha":1056,"x_min":42,"x_max":1014,"o":"m 807 0 l 704 250 l 353 250 l 250 0 l 42 0 l 467 972 l 589 972 l 1014 0 l 807 0 m 428 432 l 629 432 l 538 653 l 519 653 l 428 432 m 686 1163 q 699 1217 686 1199 q 728 1247 711 1236 q 758 1267 746 1257 q 771 1296 771 1278 q 756 1326 771 1314 q 713 1338 740 1338 q 653 1289 653 1338 l 653 1281 l 592 1281 l 592 1296 q 626 1365 592 1336 q 713 1393 661 1393 q 797 1365 763 1393 q 832 1296 832 1338 q 819 1248 832 1264 q 790 1222 807 1232 q 760 1200 772 1213 q 747 1163 747 1188 l 686 1163 m 261 972 l 232 1025 l 528 1174 l 824 1025 l 794 972 l 542 1100 l 514 1100 l 261 972 z "},"Ẫ":{"ha":1056,"x_min":42,"x_max":1014,"o":"m 807 0 l 704 250 l 353 250 l 250 0 l 42 0 l 467 972 l 589 972 l 1014 0 l 807 0 m 428 432 l 629 432 l 538 653 l 519 653 l 428 432 m 261 972 l 232 1025 l 528 1174 l 824 1025 l 794 972 l 542 1100 l 514 1100 l 261 972 m 269 1203 q 282 1262 269 1228 q 326 1322 294 1296 q 411 1353 357 1349 q 497 1339 460 1357 q 565 1299 533 1321 q 631 1264 597 1276 q 689 1260 669 1251 q 715 1291 708 1269 q 722 1338 722 1313 l 786 1338 q 747 1227 786 1261 q 639 1203 708 1193 q 556 1233 592 1210 q 488 1278 519 1257 q 419 1297 456 1300 q 356 1266 376 1294 q 333 1203 336 1238 l 269 1203 z "},"Ä":{"ha":1056,"x_min":42,"x_max":1014,"o":"m 807 0 l 704 250 l 353 250 l 250 0 l 42 0 l 467 972 l 589 972 l 1014 0 l 807 0 m 428 432 l 629 432 l 538 653 l 519 653 l 428 432 m 363 1174 l 493 1174 l 493 1029 l 363 1029 l 363 1174 m 568 1174 l 699 1174 l 699 1029 l 568 1029 l 568 1174 z "},"Ạ":{"ha":1056,"x_min":42,"x_max":1014,"o":"m 807 0 l 704 250 l 353 250 l 250 0 l 42 0 l 467 972 l 589 972 l 1014 0 l 807 0 m 428 432 l 629 432 l 538 653 l 519 653 l 428 432 m 417 -64 l 639 -64 l 639 -190 l 417 -190 l 417 -64 z "},"À":{"ha":1056,"x_min":42,"x_max":1014,"o":"m 807 0 l 704 250 l 353 250 l 250 0 l 42 0 l 467 972 l 589 972 l 1014 0 l 807 0 m 428 432 l 629 432 l 538 653 l 519 653 l 428 432 m 779 1088 l 768 1028 l 276 1118 l 288 1178 l 779 1088 z "},"Ả":{"ha":1056,"x_min":42,"x_max":1014,"o":"m 807 0 l 704 250 l 353 250 l 250 0 l 42 0 l 467 972 l 589 972 l 1014 0 l 807 0 m 428 432 l 629 432 l 538 653 l 519 653 l 428 432 m 489 1042 q 508 1096 489 1079 q 554 1120 528 1113 q 600 1135 581 1128 q 619 1164 619 1143 q 588 1201 619 1192 q 528 1210 556 1210 q 467 1200 499 1210 q 435 1161 435 1190 l 435 1150 l 365 1150 l 365 1164 q 413 1243 365 1214 q 528 1272 460 1272 q 642 1243 596 1272 q 689 1164 689 1214 q 670 1109 689 1125 q 627 1087 651 1093 q 584 1073 603 1081 q 565 1042 565 1065 l 489 1042 z "},"Ā":{"ha":1056,"x_min":42,"x_max":1014,"o":"m 807 0 l 704 250 l 353 250 l 250 0 l 42 0 l 467 972 l 589 972 l 1014 0 l 807 0 m 428 432 l 629 432 l 538 653 l 519 653 l 428 432 m 246 1028 l 246 1089 l 808 1089 l 808 1028 l 246 1028 z "},"Ą":{"ha":1056,"x_min":42,"x_max":1035,"o":"m 807 0 l 704 250 l 353 250 l 250 0 l 42 0 l 467 972 l 589 972 l 1014 0 l 807 0 m 428 432 l 629 432 l 538 653 l 519 653 l 428 432 m 940 0 q 928 -58 940 -37 q 901 -90 915 -78 q 883 -122 888 -103 q 891 -164 878 -146 q 929 -182 904 -182 q 976 -158 960 -182 q 978 -87 993 -135 l 1021 -82 q 1026 -153 1035 -118 q 992 -210 1017 -187 q 929 -232 967 -232 q 860 -201 885 -232 q 835 -139 835 -171 q 844 -94 835 -111 q 865 -65 853 -78 q 887 -38 878 -53 q 896 0 896 -24 l 940 0 z "},"Å":{"ha":1056,"x_min":42,"x_max":1014,"o":"m 807 0 l 704 250 l 353 250 l 250 0 l 42 0 l 467 972 l 589 972 l 1014 0 l 807 0 m 428 432 l 629 432 l 538 653 l 519 653 l 428 432 m 528 1056 q 447 1090 481 1056 q 413 1171 413 1124 q 447 1253 413 1219 q 528 1286 481 1286 q 610 1253 576 1286 q 643 1171 643 1219 q 610 1090 643 1124 q 528 1056 576 1056 m 526 1104 q 576 1123 557 1104 q 594 1169 594 1142 q 576 1219 594 1200 q 526 1238 557 1238 q 480 1219 499 1238 q 461 1169 461 1200 q 480 1123 461 1142 q 526 1104 499 1104 z "},"Ã":{"ha":1056,"x_min":42,"x_max":1014,"o":"m 807 0 l 704 250 l 353 250 l 250 0 l 42 0 l 467 972 l 589 972 l 1014 0 l 807 0 m 428 432 l 629 432 l 538 653 l 519 653 l 428 432 m 269 1039 q 282 1098 269 1064 q 326 1158 294 1132 q 411 1189 357 1185 q 497 1175 460 1193 q 565 1135 533 1157 q 631 1100 597 1113 q 689 1097 669 1088 q 715 1127 708 1106 q 722 1174 722 1149 l 786 1174 q 747 1063 786 1097 q 639 1039 708 1029 q 556 1069 592 1046 q 488 1115 519 1093 q 419 1133 456 1136 q 356 1102 376 1131 q 333 1039 336 1074 l 269 1039 z "},"Æ":{"ha":764,"x_min":42,"x_max":722,"o":"m 42 0 l 160 972 l 722 972 l 722 792 l 540 792 l 540 590 l 661 590 l 661 382 l 540 382 l 540 179 l 722 179 l 722 0 l 333 0 l 333 179 l 253 179 l 238 0 l 42 0 m 271 388 l 333 388 l 333 792 l 306 792 l 271 388 z "},"B":{"ha":569,"x_min":42,"x_max":528,"o":"m 42 0 l 42 972 l 285 972 q 408 941 353 972 q 495 857 463 910 q 528 736 528 804 q 513 662 528 700 q 469 594 497 624 q 403 554 442 565 l 403 540 q 494 468 460 518 q 528 365 528 418 l 528 243 q 495 120 528 175 q 408 33 463 65 q 285 0 353 0 l 42 0 m 249 668 l 265 668 q 303 685 288 668 q 319 729 319 703 q 303 774 319 756 q 265 792 288 792 l 249 792 l 249 668 m 249 179 l 258 179 q 301 207 283 179 q 319 274 319 235 l 319 338 q 301 405 319 378 q 258 432 283 432 l 249 432 l 249 179 z "},"C":{"ha":583,"x_min":49,"x_max":535,"o":"m 292 -14 q 169 19 225 -14 q 81 106 114 51 q 49 229 49 161 l 49 743 q 81 866 49 811 q 169 953 114 921 q 292 986 225 986 q 415 953 360 986 q 502 866 469 921 q 535 743 535 811 l 535 590 l 329 590 l 329 756 q 318 781 329 771 q 292 792 307 792 q 267 781 278 792 q 256 756 256 771 l 256 215 q 267 190 256 201 q 292 179 278 179 q 318 190 307 179 q 329 215 329 201 l 329 382 l 535 382 l 535 229 q 502 106 535 161 q 415 19 469 51 q 292 -14 360 -14 z "},"Ć":{"ha":1074,"x_min":42,"x_max":1032,"o":"m 843 382 l 1032 382 q 979 235 1018 306 q 877 108 940 164 q 730 19 814 51 q 542 -14 646 -14 q 341 24 432 -14 q 183 130 250 63 q 78 289 115 197 q 42 486 42 381 q 78 684 42 593 q 183 842 115 775 q 341 948 250 910 q 542 986 432 986 q 766 938 664 986 q 938 800 868 889 q 1032 590 1008 711 l 843 590 q 733 746 813 686 q 542 806 653 806 q 376 764 449 806 q 263 650 304 722 q 222 486 222 578 q 263 324 222 396 q 376 211 304 253 q 542 169 449 169 q 733 228 653 169 q 843 382 813 288 m 286 1088 l 778 1178 l 789 1118 l 297 1028 l 286 1088 z "},"Č":{"ha":1074,"x_min":42,"x_max":1032,"o":"m 843 382 l 1032 382 q 979 235 1018 306 q 877 108 940 164 q 730 19 814 51 q 542 -14 646 -14 q 341 24 432 -14 q 183 130 250 63 q 78 289 115 197 q 42 486 42 381 q 78 684 42 593 q 183 842 115 775 q 341 948 250 910 q 542 986 432 986 q 766 938 664 986 q 938 800 868 889 q 1032 590 1008 711 l 843 590 q 733 746 813 686 q 542 806 653 806 q 376 764 449 806 q 263 650 304 722 q 222 486 222 578 q 263 324 222 396 q 376 211 304 253 q 542 169 449 169 q 733 228 653 169 q 843 382 813 288 m 269 1225 l 522 1097 l 550 1097 l 803 1225 l 832 1172 l 536 1024 l 240 1172 l 269 1225 z "},"Ç":{"ha":1074,"x_min":42,"x_max":1032,"o":"m 843 382 l 1032 382 q 979 235 1018 306 q 877 108 940 164 q 730 19 814 51 q 542 -14 646 -14 q 341 24 432 -14 q 183 130 250 63 q 78 289 115 197 q 42 486 42 381 q 78 684 42 593 q 183 842 115 775 q 341 948 250 910 q 542 986 432 986 q 766 938 664 986 q 938 800 868 889 q 1032 590 1008 711 l 843 590 q 733 746 813 686 q 542 806 653 806 q 376 764 449 806 q 263 650 304 722 q 222 486 222 578 q 263 324 222 396 q 376 211 304 253 q 542 169 449 169 q 733 228 653 169 q 843 382 813 288 m 529 0 l 574 0 q 583 -38 574 -24 q 604 -65 592 -53 q 626 -94 617 -78 q 635 -139 635 -111 q 610 -201 635 -171 q 540 -232 585 -232 q 478 -210 503 -232 q 444 -153 453 -187 q 449 -82 436 -118 l 492 -87 q 494 -158 478 -135 q 540 -182 510 -182 q 578 -164 565 -182 q 586 -122 592 -146 q 568 -90 582 -103 q 542 -58 554 -78 q 529 0 529 -37 z "},"Ċ":{"ha":1074,"x_min":42,"x_max":1032,"o":"m 843 382 l 1032 382 q 979 235 1018 306 q 877 108 940 164 q 730 19 814 51 q 542 -14 646 -14 q 341 24 432 -14 q 183 130 250 63 q 78 289 115 197 q 42 486 42 381 q 78 684 42 593 q 183 842 115 775 q 341 948 250 910 q 542 986 432 986 q 766 938 664 986 q 938 800 868 889 q 1032 590 1008 711 l 843 590 q 733 746 813 686 q 542 806 653 806 q 376 764 449 806 q 263 650 304 722 q 222 486 222 578 q 263 324 222 396 q 376 211 304 253 q 542 169 449 169 q 733 228 653 169 q 843 382 813 288 m 474 1201 l 604 1201 l 604 1057 l 474 1057 l 474 1201 z "},"D":{"ha":575,"x_min":42,"x_max":528,"o":"m 42 0 l 42 972 l 285 972 q 408 940 353 972 q 495 852 463 907 q 528 729 528 797 l 528 243 q 495 120 528 175 q 408 33 463 65 q 285 0 353 0 l 42 0 m 249 179 l 288 179 q 310 189 301 179 q 319 211 319 199 l 319 760 q 310 782 319 772 q 288 792 301 792 l 249 792 l 249 179 z "},"Ď":{"ha":933,"x_min":42,"x_max":892,"o":"m 154 1225 l 407 1097 l 435 1097 l 688 1225 l 717 1172 l 421 1024 l 125 1172 l 154 1225 m 42 0 l 42 972 l 406 972 q 594 935 506 972 q 749 830 682 897 q 854 674 817 763 q 892 486 892 586 q 854 298 892 386 q 749 142 817 210 q 594 38 682 75 q 406 0 506 0 l 42 0 m 246 182 l 382 182 q 535 223 467 182 q 645 333 604 264 q 686 486 686 403 q 645 640 686 571 q 535 750 604 708 q 382 792 467 792 l 246 792 l 246 182 z "},"Đ":{"ha":1056,"x_min":42,"x_max":1014,"o":"m 164 0 l 164 438 l 42 438 l 42 535 l 164 535 l 164 972 l 528 972 q 716 935 628 972 q 872 830 804 897 q 976 674 939 763 q 1014 486 1014 586 q 976 298 1014 386 q 872 142 939 210 q 716 38 804 75 q 528 0 628 0 l 164 0 m 365 182 l 501 182 q 655 223 586 182 q 765 333 724 264 q 806 486 806 403 q 765 640 806 571 q 655 750 724 708 q 501 792 586 792 l 365 792 l 365 535 l 538 535 l 538 438 l 365 438 l 365 182 z "},"Ð":{"ha":1056,"x_min":42,"x_max":1014,"o":"m 164 0 l 164 438 l 42 438 l 42 535 l 164 535 l 164 972 l 528 972 q 716 935 628 972 q 872 830 804 897 q 976 674 939 763 q 1014 486 1014 586 q 976 298 1014 386 q 872 142 939 210 q 716 38 804 75 q 528 0 628 0 l 164 0 m 365 182 l 501 182 q 655 223 586 182 q 765 333 724 264 q 806 486 806 403 q 765 640 806 571 q 655 750 724 708 q 501 792 586 792 l 365 792 l 365 535 l 538 535 l 538 438 l 365 438 l 365 182 z "},"E":{"ha":472,"x_min":42,"x_max":431,"o":"m 42 0 l 42 972 l 431 972 l 431 792 l 249 792 l 249 590 l 369 590 l 369 382 l 249 382 l 249 179 l 431 179 l 431 0 l 42 0 z "},"É":{"ha":958,"x_min":42,"x_max":917,"o":"m 917 792 l 250 792 l 250 590 l 796 590 l 796 382 l 250 382 l 250 179 l 917 179 l 917 0 l 42 0 l 42 972 l 917 972 l 917 792 m 228 1101 l 719 1192 l 731 1132 l 239 1042 l 228 1101 z "},"Ě":{"ha":958,"x_min":42,"x_max":917,"o":"m 917 792 l 250 792 l 250 590 l 796 590 l 796 382 l 250 382 l 250 179 l 917 179 l 917 0 l 42 0 l 42 972 l 917 972 l 917 792 m 213 1225 l 465 1097 l 493 1097 l 746 1225 l 775 1172 l 479 1024 l 183 1172 l 213 1225 z "},"Ê":{"ha":958,"x_min":42,"x_max":917,"o":"m 917 792 l 250 792 l 250 590 l 796 590 l 796 382 l 250 382 l 250 179 l 917 179 l 917 0 l 42 0 l 42 972 l 917 972 l 917 792 m 213 1028 l 183 1081 l 479 1229 l 775 1081 l 746 1028 l 493 1156 l 465 1156 l 213 1028 z "},"Ế":{"ha":958,"x_min":42,"x_max":1032,"o":"m 917 792 l 250 792 l 250 590 l 796 590 l 796 382 l 250 382 l 250 179 l 917 179 l 917 0 l 42 0 l 42 972 l 917 972 l 917 792 m 703 1228 l 1006 1369 l 1032 1317 l 733 1178 l 703 1228 m 213 1028 l 183 1081 l 479 1229 l 775 1081 l 746 1028 l 493 1156 l 465 1156 l 213 1028 z "},"Ệ":{"ha":958,"x_min":42,"x_max":917,"o":"m 917 792 l 250 792 l 250 590 l 796 590 l 796 382 l 250 382 l 250 179 l 917 179 l 917 0 l 42 0 l 42 972 l 917 972 l 917 792 m 368 -64 l 590 -64 l 590 -190 l 368 -190 l 368 -64 m 213 1028 l 183 1081 l 479 1229 l 775 1081 l 746 1028 l 493 1156 l 465 1156 l 213 1028 z "},"Ề":{"ha":958,"x_min":42,"x_max":917,"o":"m 917 792 l 250 792 l 250 590 l 796 590 l 796 382 l 250 382 l 250 179 l 917 179 l 917 0 l 42 0 l 42 972 l 917 972 l 917 792 m 851 1218 l 822 1167 l 522 1307 l 550 1358 l 851 1218 m 213 1028 l 183 1081 l 479 1229 l 775 1081 l 746 1028 l 493 1156 l 465 1156 l 213 1028 z "},"Ể":{"ha":958,"x_min":42,"x_max":917,"o":"m 917 792 l 250 792 l 250 590 l 796 590 l 796 382 l 250 382 l 250 179 l 917 179 l 917 0 l 42 0 l 42 972 l 917 972 l 917 792 m 638 1218 q 650 1273 638 1254 q 680 1302 663 1292 q 710 1323 697 1313 q 722 1351 722 1333 q 707 1381 722 1369 q 664 1393 692 1393 q 604 1344 604 1393 l 604 1336 l 543 1336 l 543 1351 q 578 1420 543 1392 q 664 1449 613 1449 q 749 1421 714 1449 q 783 1351 783 1393 q 771 1303 783 1319 q 741 1278 758 1288 q 711 1256 724 1268 q 699 1218 699 1243 l 638 1218 m 213 1028 l 183 1081 l 479 1229 l 775 1081 l 746 1028 l 493 1156 l 465 1156 l 213 1028 z "},"Ễ":{"ha":958,"x_min":42,"x_max":917,"o":"m 917 792 l 250 792 l 250 590 l 796 590 l 796 382 l 250 382 l 250 179 l 917 179 l 917 0 l 42 0 l 42 972 l 917 972 l 917 792 m 213 1028 l 183 1081 l 479 1229 l 775 1081 l 746 1028 l 493 1156 l 465 1156 l 213 1028 m 221 1258 q 233 1317 221 1283 q 277 1378 246 1351 q 363 1408 308 1404 q 448 1394 411 1413 q 517 1354 485 1376 q 582 1319 549 1332 q 640 1316 621 1307 q 667 1347 660 1325 q 674 1393 674 1368 l 738 1393 q 699 1283 738 1317 q 590 1258 660 1249 q 507 1289 543 1265 q 439 1334 471 1313 q 371 1353 407 1356 q 308 1322 328 1350 q 285 1258 288 1293 l 221 1258 z "},"Ë":{"ha":958,"x_min":42,"x_max":917,"o":"m 917 792 l 250 792 l 250 590 l 796 590 l 796 382 l 250 382 l 250 179 l 917 179 l 917 0 l 42 0 l 42 972 l 917 972 l 917 792 m 314 1201 l 444 1201 l 444 1057 l 314 1057 l 314 1201 m 519 1201 l 650 1201 l 650 1057 l 519 1057 l 519 1201 z "},"Ė":{"ha":958,"x_min":42,"x_max":917,"o":"m 917 792 l 250 792 l 250 590 l 796 590 l 796 382 l 250 382 l 250 179 l 917 179 l 917 0 l 42 0 l 42 972 l 917 972 l 917 792 m 417 1201 l 547 1201 l 547 1057 l 417 1057 l 417 1201 z "},"Ẹ":{"ha":958,"x_min":42,"x_max":917,"o":"m 917 792 l 250 792 l 250 590 l 796 590 l 796 382 l 250 382 l 250 179 l 917 179 l 917 0 l 42 0 l 42 972 l 917 972 l 917 792 m 368 -64 l 590 -64 l 590 -190 l 368 -190 l 368 -64 z "},"È":{"ha":958,"x_min":42,"x_max":917,"o":"m 917 792 l 250 792 l 250 590 l 796 590 l 796 382 l 250 382 l 250 179 l 917 179 l 917 0 l 42 0 l 42 972 l 917 972 l 917 792 m 731 1101 l 719 1042 l 228 1132 l 239 1192 l 731 1101 z "},"Ẻ":{"ha":958,"x_min":42,"x_max":917,"o":"m 917 792 l 250 792 l 250 590 l 796 590 l 796 382 l 250 382 l 250 179 l 917 179 l 917 0 l 42 0 l 42 972 l 917 972 l 917 792 m 463 1056 q 482 1110 463 1093 q 528 1134 501 1126 q 574 1149 554 1142 q 593 1178 593 1157 q 561 1215 593 1206 q 501 1224 529 1224 q 440 1214 472 1224 q 408 1175 408 1204 l 408 1164 l 339 1164 l 339 1178 q 386 1257 339 1228 q 501 1286 433 1286 q 616 1257 569 1286 q 663 1178 663 1228 q 644 1123 663 1139 q 601 1101 625 1107 q 558 1087 576 1094 q 539 1056 539 1079 l 463 1056 z "},"Ē":{"ha":958,"x_min":42,"x_max":917,"o":"m 917 792 l 250 792 l 250 590 l 796 590 l 796 382 l 250 382 l 250 179 l 917 179 l 917 0 l 42 0 l 42 972 l 917 972 l 917 792 m 197 1056 l 197 1117 l 760 1117 l 760 1056 l 197 1056 z "},"Ę":{"ha":958,"x_min":42,"x_max":917,"o":"m 917 792 l 250 792 l 250 590 l 796 590 l 796 382 l 250 382 l 250 179 l 917 179 l 917 0 l 42 0 l 42 972 l 917 972 l 917 792 m 488 0 q 475 -58 488 -37 q 449 -90 463 -78 q 431 -122 435 -103 q 438 -164 425 -146 q 476 -182 451 -182 q 524 -158 507 -182 q 525 -87 540 -135 l 568 -82 q 573 -153 582 -118 q 539 -210 564 -187 q 476 -232 514 -232 q 407 -201 432 -232 q 382 -139 382 -171 q 391 -94 382 -111 q 413 -65 400 -78 q 434 -38 425 -53 q 443 0 443 -24 l 488 0 z "},"Ẽ":{"ha":958,"x_min":42,"x_max":917,"o":"m 917 792 l 250 792 l 250 590 l 796 590 l 796 382 l 250 382 l 250 179 l 917 179 l 917 0 l 42 0 l 42 972 l 917 972 l 917 792 m 221 1056 q 233 1115 221 1081 q 277 1175 246 1149 q 363 1206 308 1201 q 448 1192 411 1210 q 517 1151 485 1174 q 582 1117 549 1129 q 640 1113 621 1104 q 667 1144 660 1122 q 674 1190 674 1165 l 738 1190 q 699 1080 738 1114 q 590 1056 660 1046 q 507 1086 543 1063 q 439 1131 471 1110 q 371 1150 407 1153 q 308 1119 328 1147 q 285 1056 288 1090 l 221 1056 z "},"F":{"ha":472,"x_min":42,"x_max":431,"o":"m 42 0 l 42 972 l 431 972 l 431 764 l 249 764 l 249 590 l 369 590 l 369 382 l 249 382 l 249 0 l 42 0 z "},"G":{"ha":646,"x_min":42,"x_max":604,"o":"m 249 -14 q 135 19 182 -14 q 65 106 89 51 q 42 229 42 161 l 42 743 q 67 838 42 793 q 133 915 92 882 q 224 967 174 949 q 324 986 274 986 q 456 953 392 986 q 562 866 519 921 q 604 743 604 811 l 604 644 l 399 644 l 399 722 q 374 773 399 754 q 324 792 350 792 q 273 773 297 792 q 249 722 249 754 l 249 257 q 275 203 249 226 q 332 179 301 179 q 390 203 364 179 q 417 257 417 226 l 417 346 l 322 346 l 322 540 l 604 540 l 604 0 l 417 0 l 417 49 l 396 49 q 363 17 389 31 q 306 -6 338 3 q 249 -14 275 -14 z "},"Ğ":{"ha":1074,"x_min":42,"x_max":1032,"o":"m 542 486 l 1032 486 l 1032 21 l 843 21 l 843 122 l 829 122 q 777 64 811 96 q 686 9 743 32 q 542 -14 629 -14 q 341 24 432 -14 q 183 130 250 63 q 78 289 115 197 q 42 486 42 381 q 78 684 42 593 q 183 842 115 775 q 341 948 250 910 q 542 986 432 986 q 756 942 657 986 q 924 817 854 897 q 1024 625 994 736 l 829 625 q 717 756 793 707 q 542 806 642 806 q 376 764 449 806 q 263 650 304 722 q 222 486 222 578 q 263 324 222 396 q 376 211 304 253 q 542 169 449 169 q 722 211 643 169 q 833 347 801 253 l 542 347 l 542 486 m 538 1028 q 405 1049 465 1028 q 309 1105 344 1069 q 274 1182 274 1140 l 343 1182 q 403 1113 350 1139 q 538 1086 457 1086 q 673 1113 621 1086 q 731 1182 725 1139 l 801 1182 q 766 1105 801 1140 q 671 1049 731 1069 q 538 1028 611 1028 z "},"Ģ":{"ha":1074,"x_min":42,"x_max":1032,"o":"m 542 486 l 1032 486 l 1032 21 l 843 21 l 843 122 l 829 122 q 777 64 811 96 q 686 9 743 32 q 542 -14 629 -14 q 341 24 432 -14 q 183 130 250 63 q 78 289 115 197 q 42 486 42 381 q 78 684 42 593 q 183 842 115 775 q 341 948 250 910 q 542 986 432 986 q 756 942 657 986 q 924 817 854 897 q 1024 625 994 736 l 829 625 q 717 756 793 707 q 542 806 642 806 q 376 764 449 806 q 263 650 304 722 q 222 486 222 578 q 263 324 222 396 q 376 211 304 253 q 542 169 449 169 q 722 211 643 169 q 833 347 801 253 l 542 347 l 542 486 m 503 -236 l 503 -64 l 569 -64 l 569 -78 l 544 -236 l 503 -236 z "},"Ġ":{"ha":1074,"x_min":42,"x_max":1032,"o":"m 542 486 l 1032 486 l 1032 21 l 843 21 l 843 122 l 829 122 q 777 64 811 96 q 686 9 743 32 q 542 -14 629 -14 q 341 24 432 -14 q 183 130 250 63 q 78 289 115 197 q 42 486 42 381 q 78 684 42 593 q 183 842 115 775 q 341 948 250 910 q 542 986 432 986 q 756 942 657 986 q 924 817 854 897 q 1024 625 994 736 l 829 625 q 717 756 793 707 q 542 806 642 806 q 376 764 449 806 q 263 650 304 722 q 222 486 222 578 q 263 324 222 396 q 376 211 304 253 q 542 169 449 169 q 722 211 643 169 q 833 347 801 253 l 542 347 l 542 486 m 474 1201 l 604 1201 l 604 1057 l 474 1057 l 474 1201 z "},"H":{"ha":569,"x_min":42,"x_max":528,"o":"m 42 0 l 42 972 l 249 972 l 249 590 l 322 590 l 322 972 l 528 972 l 528 0 l 322 0 l 322 382 l 249 382 l 249 0 l 42 0 z "},"Ħ":{"ha":1042,"x_min":0,"x_max":1042,"o":"m 83 0 l 83 750 l 0 750 l 0 811 l 83 811 l 83 972 l 290 972 l 290 811 l 753 811 l 753 972 l 958 972 l 958 811 l 1042 811 l 1042 750 l 958 750 l 958 0 l 753 0 l 753 382 l 290 382 l 290 0 l 83 0 m 290 590 l 753 590 l 753 750 l 290 750 l 290 590 z "},"I":{"ha":293,"x_min":42,"x_max":251,"o":"m 42 0 l 42 972 l 251 972 l 251 0 l 42 0 z "},"Ĳ":{"ha":569,"x_min":42,"x_max":528,"o":"m 285 -14 q 163 19 218 -14 q 74 106 107 51 q 42 229 42 161 l 42 382 l 249 382 l 249 215 q 260 190 249 201 q 285 179 271 179 q 311 190 300 179 q 322 215 322 201 l 322 972 l 528 972 l 528 229 q 495 106 528 161 q 408 19 463 51 q 285 -14 353 -14 m 42 972 l 249 972 l 249 540 l 42 540 l 42 972 z "},"Í":{"ha":917,"x_min":42,"x_max":875,"o":"m 42 972 l 875 972 l 875 792 l 563 792 l 563 179 l 875 179 l 875 0 l 42 0 l 42 179 l 354 179 l 354 792 l 42 792 l 42 972 m 207 1115 l 699 1206 l 710 1146 l 218 1056 l 207 1115 z "},"Î":{"ha":917,"x_min":42,"x_max":875,"o":"m 42 972 l 875 972 l 875 792 l 563 792 l 563 179 l 875 179 l 875 0 l 42 0 l 42 179 l 354 179 l 354 792 l 42 792 l 42 972 m 192 1028 l 163 1081 l 458 1229 l 754 1081 l 725 1028 l 472 1156 l 444 1156 l 192 1028 z "},"Ï":{"ha":917,"x_min":42,"x_max":875,"o":"m 42 972 l 875 972 l 875 792 l 563 792 l 563 179 l 875 179 l 875 0 l 42 0 l 42 179 l 354 179 l 354 792 l 42 792 l 42 972 m 293 1201 l 424 1201 l 424 1057 l 293 1057 l 293 1201 m 499 1201 l 629 1201 l 629 1057 l 499 1057 l 499 1201 z "},"İ":{"ha":917,"x_min":42,"x_max":875,"o":"m 42 972 l 875 972 l 875 792 l 563 792 l 563 179 l 875 179 l 875 0 l 42 0 l 42 179 l 354 179 l 354 792 l 42 792 l 42 972 m 396 1201 l 526 1201 l 526 1057 l 396 1057 l 396 1201 z "},"Ị":{"ha":917,"x_min":42,"x_max":875,"o":"m 42 972 l 875 972 l 875 792 l 563 792 l 563 179 l 875 179 l 875 0 l 42 0 l 42 179 l 354 179 l 354 792 l 42 792 l 42 972 m 347 -64 l 569 -64 l 569 -190 l 347 -190 l 347 -64 z "},"Ì":{"ha":917,"x_min":42,"x_max":875,"o":"m 42 972 l 875 972 l 875 792 l 563 792 l 563 179 l 875 179 l 875 0 l 42 0 l 42 179 l 354 179 l 354 792 l 42 792 l 42 972 m 710 1115 l 699 1056 l 207 1146 l 218 1206 l 710 1115 z "},"Ỉ":{"ha":917,"x_min":42,"x_max":875,"o":"m 42 972 l 875 972 l 875 792 l 563 792 l 563 179 l 875 179 l 875 0 l 42 0 l 42 179 l 354 179 l 354 792 l 42 792 l 42 972 m 419 1056 q 439 1110 419 1093 q 485 1134 458 1126 q 531 1149 511 1142 q 550 1178 550 1157 q 518 1215 550 1206 q 458 1224 486 1224 q 397 1214 429 1224 q 365 1175 365 1204 l 365 1164 l 296 1164 l 296 1178 q 343 1257 296 1228 q 458 1286 390 1286 q 573 1257 526 1286 q 619 1178 619 1228 q 601 1123 619 1139 q 558 1101 582 1107 q 515 1087 533 1094 q 496 1056 496 1079 l 419 1056 z "},"Ī":{"ha":917,"x_min":42,"x_max":875,"o":"m 42 972 l 875 972 l 875 792 l 563 792 l 563 179 l 875 179 l 875 0 l 42 0 l 42 179 l 354 179 l 354 792 l 42 792 l 42 972 m 178 1056 l 178 1117 l 740 1117 l 740 1056 l 178 1056 z "},"Į":{"ha":917,"x_min":42,"x_max":875,"o":"m 42 972 l 875 972 l 875 792 l 563 792 l 563 179 l 875 179 l 875 0 l 42 0 l 42 179 l 354 179 l 354 792 l 42 792 l 42 972 m 467 0 q 454 -58 467 -37 q 428 -90 442 -78 q 410 -122 414 -103 q 417 -164 404 -146 q 456 -182 431 -182 q 503 -158 486 -182 q 504 -87 519 -135 l 547 -82 q 552 -153 561 -118 q 518 -210 543 -187 q 456 -232 493 -232 q 386 -201 411 -232 q 361 -139 361 -171 q 370 -94 361 -111 q 392 -65 379 -78 q 413 -38 404 -53 q 422 0 422 -24 l 467 0 z "},"Ĩ":{"ha":917,"x_min":42,"x_max":875,"o":"m 42 972 l 875 972 l 875 792 l 563 792 l 563 179 l 875 179 l 875 0 l 42 0 l 42 179 l 354 179 l 354 792 l 42 792 l 42 972 m 200 1056 q 213 1115 200 1081 q 256 1175 225 1149 q 342 1206 288 1201 q 427 1192 390 1210 q 496 1151 464 1174 q 561 1117 528 1129 q 619 1113 600 1104 q 646 1144 639 1122 q 653 1190 653 1165 l 717 1190 q 678 1080 717 1114 q 569 1056 639 1046 q 486 1086 522 1063 q 418 1131 450 1110 q 350 1150 386 1153 q 287 1119 307 1147 q 264 1056 267 1090 l 200 1056 z "},"J":{"ha":569,"x_min":42,"x_max":528,"o":"m 285 -14 q 163 19 218 -14 q 74 106 107 51 q 42 229 42 161 l 42 382 l 249 382 l 249 215 q 260 190 249 201 q 285 179 271 179 q 311 190 300 179 q 322 215 322 201 l 322 792 l 164 792 l 164 972 l 528 972 l 528 229 q 495 106 528 161 q 408 19 463 51 q 285 -14 353 -14 z "},"K":{"ha":571,"x_min":42,"x_max":528,"o":"m 42 0 l 42 972 l 249 972 l 249 694 l 263 694 l 319 972 l 528 972 l 528 944 l 389 550 l 389 529 l 528 28 l 528 0 l 319 0 l 263 300 l 249 300 l 249 0 l 42 0 z "},"Ķ":{"ha":958,"x_min":42,"x_max":917,"o":"m 432 -236 l 432 -64 l 499 -64 l 499 -78 l 474 -236 l 432 -236 m 42 0 l 42 972 l 249 972 l 249 590 l 263 590 l 681 972 l 917 972 l 917 944 l 422 493 l 422 479 l 917 28 l 917 0 l 681 0 l 263 382 l 249 382 l 249 0 l 42 0 z "},"L":{"ha":472,"x_min":42,"x_max":431,"o":"m 42 0 l 42 972 l 249 972 l 249 179 l 431 179 l 431 0 l 42 0 z "},"Ĺ":{"ha":958,"x_min":42,"x_max":917,"o":"m 42 0 l 42 972 l 249 972 l 249 179 l 917 179 l 917 0 l 42 0 m 42 1115 l 533 1206 l 544 1146 l 53 1056 l 42 1115 z "},"Ľ":{"ha":958,"x_min":42,"x_max":917,"o":"m 346 688 l 332 944 l 332 972 l 401 972 l 401 944 l 389 688 l 346 688 m 42 0 l 42 972 l 249 972 l 249 179 l 917 179 l 917 0 l 42 0 z "},"Ļ":{"ha":958,"x_min":42,"x_max":917,"o":"m 42 0 l 42 972 l 249 972 l 249 179 l 917 179 l 917 0 l 42 0 m 446 -236 l 446 -64 l 513 -64 l 513 -78 l 488 -236 l 446 -236 z "},"Ł":{"ha":958,"x_min":-92,"x_max":917,"o":"m 42 0 l 42 429 l -92 382 l -92 443 l 42 490 l 42 972 l 249 972 l 249 563 l 382 610 l 382 549 l 249 501 l 249 179 l 917 179 l 917 0 l 42 0 z "},"M":{"ha":690,"x_min":42,"x_max":649,"o":"m 42 0 l 42 972 l 279 972 l 342 540 l 350 540 l 410 972 l 649 972 l 649 0 l 468 0 l 468 432 l 460 432 l 406 0 l 285 0 l 231 432 l 222 432 l 222 0 l 42 0 z "},"N":{"ha":569,"x_min":42,"x_max":528,"o":"m 42 0 l 42 972 l 208 972 l 326 590 l 347 590 l 347 972 l 528 972 l 528 0 l 361 0 l 243 382 l 222 382 l 222 0 l 42 0 z "},"Ń":{"ha":958,"x_min":42,"x_max":917,"o":"m 42 0 l 42 972 l 249 972 l 675 368 l 696 368 l 696 972 l 917 972 l 917 0 l 696 0 l 269 604 l 249 604 l 249 0 l 42 0 m 228 1115 l 719 1206 l 731 1146 l 239 1056 l 228 1115 z "},"Ň":{"ha":958,"x_min":42,"x_max":917,"o":"m 42 0 l 42 972 l 249 972 l 675 368 l 696 368 l 696 972 l 917 972 l 917 0 l 696 0 l 269 604 l 249 604 l 249 0 l 42 0 m 213 1225 l 465 1097 l 493 1097 l 746 1225 l 775 1172 l 479 1024 l 183 1172 l 213 1225 z "},"Ņ":{"ha":958,"x_min":42,"x_max":917,"o":"m 42 0 l 42 972 l 249 972 l 675 368 l 696 368 l 696 972 l 917 972 l 917 0 l 696 0 l 269 604 l 249 604 l 249 0 l 42 0 m 439 -236 l 439 -64 l 506 -64 l 506 -78 l 481 -236 l 439 -236 z "},"Ñ":{"ha":958,"x_min":42,"x_max":917,"o":"m 42 0 l 42 972 l 249 972 l 675 368 l 696 368 l 696 972 l 917 972 l 917 0 l 696 0 l 269 604 l 249 604 l 249 0 l 42 0 m 221 1094 q 233 1153 221 1119 q 277 1214 246 1188 q 363 1244 308 1240 q 448 1231 411 1249 q 517 1190 485 1213 q 582 1156 549 1168 q 640 1152 621 1143 q 667 1183 660 1161 q 674 1229 674 1204 l 738 1229 q 699 1119 738 1153 q 590 1094 660 1085 q 507 1125 543 1101 q 439 1170 471 1149 q 371 1189 407 1192 q 308 1158 328 1186 q 285 1094 288 1129 l 221 1094 z "},"Ŋ":{"ha":958,"x_min":42,"x_max":917,"o":"m 42 0 l 42 972 l 249 972 l 675 368 l 696 368 l 696 972 l 917 972 l 917 -35 q 884 -157 917 -101 q 797 -245 851 -212 q 674 -278 742 -278 l 572 -278 l 572 -85 l 658 -85 q 685 -74 674 -85 q 696 -47 696 -62 l 696 0 l 269 604 l 249 604 l 249 0 l 42 0 z "},"O":{"ha":571,"x_min":42,"x_max":528,"o":"m 285 -14 q 163 19 218 -14 q 74 106 107 51 q 42 229 42 161 l 42 743 q 74 866 42 811 q 163 953 107 921 q 285 986 218 986 q 407 953 351 986 q 495 866 463 921 q 528 743 528 811 l 528 229 q 495 106 528 161 q 407 19 463 51 q 285 -14 351 -14 m 285 169 q 310 180 300 169 q 319 204 319 190 l 319 769 q 310 795 319 785 q 285 806 300 806 q 259 795 269 806 q 249 769 249 785 l 249 204 q 259 180 249 190 q 285 169 269 169 z "},"Ó":{"ha":1083,"x_min":42,"x_max":1042,"o":"m 542 986 q 742 948 650 986 q 901 842 833 910 q 1005 684 968 775 q 1042 486 1042 593 q 1005 289 1042 381 q 901 130 968 197 q 742 24 833 63 q 542 -14 650 -14 q 341 24 432 -14 q 183 130 250 63 q 78 289 115 197 q 42 486 42 381 q 78 684 42 593 q 183 842 115 775 q 341 948 250 910 q 542 986 432 986 m 858 486 q 817 650 858 578 q 706 764 776 722 q 542 806 635 806 q 376 764 449 806 q 263 650 304 722 q 222 486 222 578 q 263 324 222 396 q 376 211 304 253 q 542 169 449 169 q 706 211 635 169 q 817 324 776 253 q 858 486 858 396 m 290 1088 l 782 1178 l 793 1118 l 301 1028 l 290 1088 z "},"Ô":{"ha":1083,"x_min":42,"x_max":1042,"o":"m 542 986 q 742 948 650 986 q 901 842 833 910 q 1005 684 968 775 q 1042 486 1042 593 q 1005 289 1042 381 q 901 130 968 197 q 742 24 833 63 q 542 -14 650 -14 q 341 24 432 -14 q 183 130 250 63 q 78 289 115 197 q 42 486 42 381 q 78 684 42 593 q 183 842 115 775 q 341 948 250 910 q 542 986 432 986 m 858 486 q 817 650 858 578 q 706 764 776 722 q 542 806 635 806 q 376 764 449 806 q 263 650 304 722 q 222 486 222 578 q 263 324 222 396 q 376 211 304 253 q 542 169 449 169 q 706 211 635 169 q 817 324 776 253 q 858 486 858 396 m 275 1000 l 246 1053 l 542 1201 l 838 1053 l 808 1000 l 556 1128 l 528 1128 l 275 1000 z "},"Ố":{"ha":1083,"x_min":42,"x_max":1094,"o":"m 542 986 q 742 948 650 986 q 901 842 833 910 q 1005 684 968 775 q 1042 486 1042 593 q 1005 289 1042 381 q 901 130 968 197 q 742 24 833 63 q 542 -14 650 -14 q 341 24 432 -14 q 183 130 250 63 q 78 289 115 197 q 42 486 42 381 q 78 684 42 593 q 183 842 115 775 q 341 948 250 910 q 542 986 432 986 m 858 486 q 817 650 858 578 q 706 764 776 722 q 542 806 635 806 q 376 764 449 806 q 263 650 304 722 q 222 486 222 578 q 263 324 222 396 q 376 211 304 253 q 542 169 449 169 q 706 211 635 169 q 817 324 776 253 q 858 486 858 396 m 765 1200 l 1068 1342 l 1094 1289 l 796 1150 l 765 1200 m 275 1000 l 246 1053 l 542 1201 l 838 1053 l 808 1000 l 556 1128 l 528 1128 l 275 1000 z "},"Ộ":{"ha":1083,"x_min":42,"x_max":1042,"o":"m 542 986 q 742 948 650 986 q 901 842 833 910 q 1005 684 968 775 q 1042 486 1042 593 q 1005 289 1042 381 q 901 130 968 197 q 742 24 833 63 q 542 -14 650 -14 q 341 24 432 -14 q 183 130 250 63 q 78 289 115 197 q 42 486 42 381 q 78 684 42 593 q 183 842 115 775 q 341 948 250 910 q 542 986 432 986 m 858 486 q 817 650 858 578 q 706 764 776 722 q 542 806 635 806 q 376 764 449 806 q 263 650 304 722 q 222 486 222 578 q 263 324 222 396 q 376 211 304 253 q 542 169 449 169 q 706 211 635 169 q 817 324 776 253 q 858 486 858 396 m 431 -64 l 653 -64 l 653 -190 l 431 -190 l 431 -64 m 275 1000 l 246 1053 l 542 1201 l 838 1053 l 808 1000 l 556 1128 l 528 1128 l 275 1000 z "},"Ồ":{"ha":1083,"x_min":42,"x_max":1042,"o":"m 542 986 q 742 948 650 986 q 901 842 833 910 q 1005 684 968 775 q 1042 486 1042 593 q 1005 289 1042 381 q 901 130 968 197 q 742 24 833 63 q 542 -14 650 -14 q 341 24 432 -14 q 183 130 250 63 q 78 289 115 197 q 42 486 42 381 q 78 684 42 593 q 183 842 115 775 q 341 948 250 910 q 542 986 432 986 m 858 486 q 817 650 858 578 q 706 764 776 722 q 542 806 635 806 q 376 764 449 806 q 263 650 304 722 q 222 486 222 578 q 263 324 222 396 q 376 211 304 253 q 542 169 449 169 q 706 211 635 169 q 817 324 776 253 q 858 486 858 396 m 914 1190 l 885 1139 l 585 1279 l 613 1331 l 914 1190 m 275 1000 l 246 1053 l 542 1201 l 838 1053 l 808 1000 l 556 1128 l 528 1128 l 275 1000 z "},"Ổ":{"ha":1083,"x_min":42,"x_max":1042,"o":"m 542 986 q 742 948 650 986 q 901 842 833 910 q 1005 684 968 775 q 1042 486 1042 593 q 1005 289 1042 381 q 901 130 968 197 q 742 24 833 63 q 542 -14 650 -14 q 341 24 432 -14 q 183 130 250 63 q 78 289 115 197 q 42 486 42 381 q 78 684 42 593 q 183 842 115 775 q 341 948 250 910 q 542 986 432 986 m 858 486 q 817 650 858 578 q 706 764 776 722 q 542 806 635 806 q 376 764 449 806 q 263 650 304 722 q 222 486 222 578 q 263 324 222 396 q 376 211 304 253 q 542 169 449 169 q 706 211 635 169 q 817 324 776 253 q 858 486 858 396 m 700 1190 q 713 1245 700 1226 q 742 1274 725 1264 q 772 1295 760 1285 q 785 1324 785 1306 q 769 1353 785 1342 q 726 1365 754 1365 q 667 1317 667 1365 l 667 1308 l 606 1308 l 606 1324 q 640 1392 606 1364 q 726 1421 675 1421 q 811 1393 776 1421 q 846 1324 846 1365 q 833 1276 846 1292 q 803 1250 821 1260 q 774 1228 786 1240 q 761 1190 761 1215 l 700 1190 m 275 1000 l 246 1053 l 542 1201 l 838 1053 l 808 1000 l 556 1128 l 528 1128 l 275 1000 z "},"Ỗ":{"ha":1083,"x_min":42,"x_max":1042,"o":"m 542 986 q 742 948 650 986 q 901 842 833 910 q 1005 684 968 775 q 1042 486 1042 593 q 1005 289 1042 381 q 901 130 968 197 q 742 24 833 63 q 542 -14 650 -14 q 341 24 432 -14 q 183 130 250 63 q 78 289 115 197 q 42 486 42 381 q 78 684 42 593 q 183 842 115 775 q 341 948 250 910 q 542 986 432 986 m 858 486 q 817 650 858 578 q 706 764 776 722 q 542 806 635 806 q 376 764 449 806 q 263 650 304 722 q 222 486 222 578 q 263 324 222 396 q 376 211 304 253 q 542 169 449 169 q 706 211 635 169 q 817 324 776 253 q 858 486 858 396 m 275 1000 l 246 1053 l 542 1201 l 838 1053 l 808 1000 l 556 1128 l 528 1128 l 275 1000 m 283 1231 q 296 1290 283 1256 q 340 1350 308 1324 q 425 1381 371 1376 q 510 1367 474 1385 q 579 1326 547 1349 q 644 1292 611 1304 q 703 1288 683 1279 q 729 1319 722 1297 q 736 1365 736 1340 l 800 1365 q 761 1255 800 1289 q 653 1231 722 1221 q 569 1261 606 1238 q 501 1306 533 1285 q 433 1325 469 1328 q 370 1294 390 1322 q 347 1231 350 1265 l 283 1231 z "},"Ö":{"ha":1083,"x_min":42,"x_max":1042,"o":"m 542 986 q 742 948 650 986 q 901 842 833 910 q 1005 684 968 775 q 1042 486 1042 593 q 1005 289 1042 381 q 901 130 968 197 q 742 24 833 63 q 542 -14 650 -14 q 341 24 432 -14 q 183 130 250 63 q 78 289 115 197 q 42 486 42 381 q 78 684 42 593 q 183 842 115 775 q 341 948 250 910 q 542 986 432 986 m 858 486 q 817 650 858 578 q 706 764 776 722 q 542 806 635 806 q 376 764 449 806 q 263 650 304 722 q 222 486 222 578 q 263 324 222 396 q 376 211 304 253 q 542 169 449 169 q 706 211 635 169 q 817 324 776 253 q 858 486 858 396 m 376 1201 l 507 1201 l 507 1057 l 376 1057 l 376 1201 m 582 1201 l 713 1201 l 713 1057 l 582 1057 l 582 1201 z "},"Ọ":{"ha":1083,"x_min":42,"x_max":1042,"o":"m 542 986 q 742 948 650 986 q 901 842 833 910 q 1005 684 968 775 q 1042 486 1042 593 q 1005 289 1042 381 q 901 130 968 197 q 742 24 833 63 q 542 -14 650 -14 q 341 24 432 -14 q 183 130 250 63 q 78 289 115 197 q 42 486 42 381 q 78 684 42 593 q 183 842 115 775 q 341 948 250 910 q 542 986 432 986 m 858 486 q 817 650 858 578 q 706 764 776 722 q 542 806 635 806 q 376 764 449 806 q 263 650 304 722 q 222 486 222 578 q 263 324 222 396 q 376 211 304 253 q 542 169 449 169 q 706 211 635 169 q 817 324 776 253 q 858 486 858 396 m 431 -64 l 653 -64 l 653 -190 l 431 -190 l 431 -64 z "},"Ò":{"ha":1083,"x_min":42,"x_max":1042,"o":"m 542 986 q 742 948 650 986 q 901 842 833 910 q 1005 684 968 775 q 1042 486 1042 593 q 1005 289 1042 381 q 901 130 968 197 q 742 24 833 63 q 542 -14 650 -14 q 341 24 432 -14 q 183 130 250 63 q 78 289 115 197 q 42 486 42 381 q 78 684 42 593 q 183 842 115 775 q 341 948 250 910 q 542 986 432 986 m 858 486 q 817 650 858 578 q 706 764 776 722 q 542 806 635 806 q 376 764 449 806 q 263 650 304 722 q 222 486 222 578 q 263 324 222 396 q 376 211 304 253 q 542 169 449 169 q 706 211 635 169 q 817 324 776 253 q 858 486 858 396 m 793 1088 l 782 1028 l 290 1118 l 301 1178 l 793 1088 z "},"Ỏ":{"ha":1083,"x_min":42,"x_max":1042,"o":"m 542 986 q 742 948 650 986 q 901 842 833 910 q 1005 684 968 775 q 1042 486 1042 593 q 1005 289 1042 381 q 901 130 968 197 q 742 24 833 63 q 542 -14 650 -14 q 341 24 432 -14 q 183 130 250 63 q 78 289 115 197 q 42 486 42 381 q 78 684 42 593 q 183 842 115 775 q 341 948 250 910 q 542 986 432 986 m 858 486 q 817 650 858 578 q 706 764 776 722 q 542 806 635 806 q 376 764 449 806 q 263 650 304 722 q 222 486 222 578 q 263 324 222 396 q 376 211 304 253 q 542 169 449 169 q 706 211 635 169 q 817 324 776 253 q 858 486 858 396 m 503 1056 q 522 1110 503 1093 q 568 1134 542 1126 q 614 1149 594 1142 q 633 1178 633 1157 q 601 1215 633 1206 q 542 1224 569 1224 q 481 1214 513 1224 q 449 1175 449 1204 l 449 1164 l 379 1164 l 379 1178 q 426 1257 379 1228 q 542 1286 474 1286 q 656 1257 610 1286 q 703 1178 703 1228 q 684 1123 703 1139 q 641 1101 665 1107 q 598 1087 617 1094 q 579 1056 579 1079 l 503 1056 z "},"Ơ":{"ha":1083,"x_min":42,"x_max":1042,"o":"m 975 735 q 1042 486 1042 622 q 1003 292 1042 382 q 895 133 964 201 q 736 25 826 64 q 542 -14 646 -14 q 347 25 438 -14 q 188 133 257 64 q 81 292 119 201 q 42 486 42 382 q 81 681 42 590 q 188 840 119 771 q 347 947 257 908 q 542 986 438 986 q 711 958 643 986 q 819 888 779 929 q 871 811 858 847 l 885 811 q 908 880 901 843 q 915 972 915 917 l 1040 972 q 1028 844 1040 904 q 975 735 1015 785 m 835 486 q 795 634 835 568 q 690 740 756 700 q 542 779 624 779 q 395 740 461 779 q 290 634 329 700 q 250 486 250 568 q 290 340 250 406 q 395 234 329 274 q 542 194 461 194 q 690 234 624 194 q 795 340 756 274 q 835 486 835 406 z "},"Ớ":{"ha":1083,"x_min":42,"x_max":1042,"o":"m 975 735 q 1042 486 1042 622 q 1003 292 1042 382 q 895 133 964 201 q 736 25 826 64 q 542 -14 646 -14 q 347 25 438 -14 q 188 133 257 64 q 81 292 119 201 q 42 486 42 382 q 81 681 42 590 q 188 840 119 771 q 347 947 257 908 q 542 986 438 986 q 711 958 643 986 q 819 888 779 929 q 871 811 858 847 l 885 811 q 908 880 901 843 q 915 972 915 917 l 1040 972 q 1028 844 1040 904 q 975 735 1015 785 m 835 486 q 795 634 835 568 q 690 740 756 700 q 542 779 624 779 q 395 740 461 779 q 290 634 329 700 q 250 486 250 568 q 290 340 250 406 q 395 234 329 274 q 542 194 461 194 q 690 234 624 194 q 795 340 756 274 q 835 486 835 406 m 290 1088 l 782 1178 l 793 1118 l 301 1028 l 290 1088 z "},"Ợ":{"ha":1083,"x_min":42,"x_max":1042,"o":"m 975 735 q 1042 486 1042 622 q 1003 292 1042 382 q 895 133 964 201 q 736 25 826 64 q 542 -14 646 -14 q 347 25 438 -14 q 188 133 257 64 q 81 292 119 201 q 42 486 42 382 q 81 681 42 590 q 188 840 119 771 q 347 947 257 908 q 542 986 438 986 q 711 958 643 986 q 819 888 779 929 q 871 811 858 847 l 885 811 q 908 880 901 843 q 915 972 915 917 l 1040 972 q 1028 844 1040 904 q 975 735 1015 785 m 835 486 q 795 634 835 568 q 690 740 756 700 q 542 779 624 779 q 395 740 461 779 q 290 634 329 700 q 250 486 250 568 q 290 340 250 406 q 395 234 329 274 q 542 194 461 194 q 690 234 624 194 q 795 340 756 274 q 835 486 835 406 m 431 -64 l 653 -64 l 653 -190 l 431 -190 l 431 -64 z "},"Ờ":{"ha":1083,"x_min":42,"x_max":1042,"o":"m 975 735 q 1042 486 1042 622 q 1003 292 1042 382 q 895 133 964 201 q 736 25 826 64 q 542 -14 646 -14 q 347 25 438 -14 q 188 133 257 64 q 81 292 119 201 q 42 486 42 382 q 81 681 42 590 q 188 840 119 771 q 347 947 257 908 q 542 986 438 986 q 711 958 643 986 q 819 888 779 929 q 871 811 858 847 l 885 811 q 908 880 901 843 q 915 972 915 917 l 1040 972 q 1028 844 1040 904 q 975 735 1015 785 m 835 486 q 795 634 835 568 q 690 740 756 700 q 542 779 624 779 q 395 740 461 779 q 290 634 329 700 q 250 486 250 568 q 290 340 250 406 q 395 234 329 274 q 542 194 461 194 q 690 234 624 194 q 795 340 756 274 q 835 486 835 406 m 793 1088 l 782 1028 l 290 1118 l 301 1178 l 793 1088 z "},"Ở":{"ha":1083,"x_min":42,"x_max":1042,"o":"m 975 735 q 1042 486 1042 622 q 1003 292 1042 382 q 895 133 964 201 q 736 25 826 64 q 542 -14 646 -14 q 347 25 438 -14 q 188 133 257 64 q 81 292 119 201 q 42 486 42 382 q 81 681 42 590 q 188 840 119 771 q 347 947 257 908 q 542 986 438 986 q 711 958 643 986 q 819 888 779 929 q 871 811 858 847 l 885 811 q 908 880 901 843 q 915 972 915 917 l 1040 972 q 1028 844 1040 904 q 975 735 1015 785 m 835 486 q 795 634 835 568 q 690 740 756 700 q 542 779 624 779 q 395 740 461 779 q 290 634 329 700 q 250 486 250 568 q 290 340 250 406 q 395 234 329 274 q 542 194 461 194 q 690 234 624 194 q 795 340 756 274 q 835 486 835 406 m 525 1042 q 544 1096 525 1079 q 590 1120 564 1113 q 636 1135 617 1128 q 656 1164 656 1143 q 624 1201 656 1192 q 564 1210 592 1210 q 503 1200 535 1210 q 471 1161 471 1190 l 471 1150 l 401 1150 l 401 1164 q 449 1243 401 1214 q 564 1272 496 1272 q 678 1243 632 1272 q 725 1164 725 1214 q 706 1109 725 1125 q 663 1087 688 1093 q 620 1073 639 1081 q 601 1042 601 1065 l 525 1042 z "},"Ỡ":{"ha":1083,"x_min":42,"x_max":1042,"o":"m 975 735 q 1042 486 1042 622 q 1003 292 1042 382 q 895 133 964 201 q 736 25 826 64 q 542 -14 646 -14 q 347 25 438 -14 q 188 133 257 64 q 81 292 119 201 q 42 486 42 382 q 81 681 42 590 q 188 840 119 771 q 347 947 257 908 q 542 986 438 986 q 711 958 643 986 q 819 888 779 929 q 871 811 858 847 l 885 811 q 908 880 901 843 q 915 972 915 917 l 1040 972 q 1028 844 1040 904 q 975 735 1015 785 m 835 486 q 795 634 835 568 q 690 740 756 700 q 542 779 624 779 q 395 740 461 779 q 290 634 329 700 q 250 486 250 568 q 290 340 250 406 q 395 234 329 274 q 542 194 461 194 q 690 234 624 194 q 795 340 756 274 q 835 486 835 406 m 283 1039 q 296 1098 283 1064 q 340 1158 308 1132 q 425 1189 371 1185 q 510 1175 474 1193 q 579 1135 547 1157 q 644 1100 611 1113 q 703 1097 683 1088 q 729 1127 722 1106 q 736 1174 736 1149 l 800 1174 q 761 1063 800 1097 q 653 1039 722 1029 q 569 1069 606 1046 q 501 1115 533 1093 q 433 1133 469 1136 q 370 1102 390 1131 q 347 1039 350 1074 l 283 1039 z "},"Ő":{"ha":1083,"x_min":42,"x_max":1042,"o":"m 542 986 q 742 948 650 986 q 901 842 833 910 q 1005 684 968 775 q 1042 486 1042 593 q 1005 289 1042 381 q 901 130 968 197 q 742 24 833 63 q 542 -14 650 -14 q 341 24 432 -14 q 183 130 250 63 q 78 289 115 197 q 42 486 42 381 q 78 684 42 593 q 183 842 115 775 q 341 948 250 910 q 542 986 432 986 m 858 486 q 817 650 858 578 q 706 764 776 722 q 542 806 635 806 q 376 764 449 806 q 263 650 304 722 q 222 486 222 578 q 263 324 222 396 q 376 211 304 253 q 542 169 449 169 q 706 211 635 169 q 817 324 776 253 q 858 486 858 396 m 417 1088 l 600 1318 l 649 1286 l 464 1056 l 417 1088 m 601 1088 l 785 1318 l 833 1286 l 649 1056 l 601 1088 z "},"Ō":{"ha":1083,"x_min":42,"x_max":1042,"o":"m 542 986 q 742 948 650 986 q 901 842 833 910 q 1005 684 968 775 q 1042 486 1042 593 q 1005 289 1042 381 q 901 130 968 197 q 742 24 833 63 q 542 -14 650 -14 q 341 24 432 -14 q 183 130 250 63 q 78 289 115 197 q 42 486 42 381 q 78 684 42 593 q 183 842 115 775 q 341 948 250 910 q 542 986 432 986 m 858 486 q 817 650 858 578 q 706 764 776 722 q 542 806 635 806 q 376 764 449 806 q 263 650 304 722 q 222 486 222 578 q 263 324 222 396 q 376 211 304 253 q 542 169 449 169 q 706 211 635 169 q 817 324 776 253 q 858 486 858 396 m 261 1056 l 261 1117 l 824 1117 l 824 1056 l 261 1056 z "},"Ø":{"ha":1083,"x_min":42,"x_max":1042,"o":"m 542 986 q 690 966 619 986 q 818 910 760 946 l 872 986 l 921 986 l 850 886 q 990 715 939 819 q 1042 486 1042 611 q 1005 289 1042 381 q 901 130 968 197 q 742 24 833 63 q 542 -14 650 -14 q 394 6 464 -14 q 267 63 325 26 l 213 -14 l 163 -14 l 233 86 q 92 257 143 153 q 42 486 42 361 q 78 684 42 593 q 183 842 115 775 q 341 948 250 910 q 542 986 432 986 m 222 486 q 253 343 222 408 q 339 236 285 278 l 711 760 q 542 806 636 806 q 376 764 449 806 q 263 650 304 722 q 222 486 222 578 m 858 486 q 828 629 858 564 q 744 738 797 694 l 374 213 q 542 169 447 169 q 706 211 635 169 q 817 324 776 253 q 858 486 858 396 z "},"Õ":{"ha":1083,"x_min":42,"x_max":1042,"o":"m 542 986 q 742 948 650 986 q 901 842 833 910 q 1005 684 968 775 q 1042 486 1042 593 q 1005 289 1042 381 q 901 130 968 197 q 742 24 833 63 q 542 -14 650 -14 q 341 24 432 -14 q 183 130 250 63 q 78 289 115 197 q 42 486 42 381 q 78 684 42 593 q 183 842 115 775 q 341 948 250 910 q 542 986 432 986 m 858 486 q 817 650 858 578 q 706 764 776 722 q 542 806 635 806 q 376 764 449 806 q 263 650 304 722 q 222 486 222 578 q 263 324 222 396 q 376 211 304 253 q 542 169 449 169 q 706 211 635 169 q 817 324 776 253 q 858 486 858 396 m 283 1039 q 296 1098 283 1064 q 340 1158 308 1132 q 425 1189 371 1185 q 510 1175 474 1193 q 579 1135 547 1157 q 644 1100 611 1113 q 703 1097 683 1088 q 729 1127 722 1106 q 736 1174 736 1149 l 800 1174 q 761 1063 800 1097 q 653 1039 722 1029 q 569 1069 606 1046 q 501 1115 533 1093 q 433 1133 469 1136 q 370 1102 390 1131 q 347 1039 350 1074 l 283 1039 z "},"Œ":{"ha":751,"x_min":42,"x_max":710,"o":"m 285 0 q 163 33 218 0 q 74 120 107 65 q 42 243 42 175 l 42 729 q 74 852 42 797 q 163 940 107 907 q 285 972 218 972 l 710 972 l 710 792 l 528 792 l 528 590 l 649 590 l 649 382 l 528 382 l 528 179 l 710 179 l 710 0 l 285 0 m 285 183 q 310 194 300 183 q 319 218 319 204 l 319 756 q 310 781 319 771 q 285 792 300 792 q 259 781 269 792 q 249 756 249 771 l 249 218 q 259 194 249 204 q 285 183 269 183 z "},"P":{"ha":569,"x_min":42,"x_max":528,"o":"m 42 0 l 42 972 l 257 972 q 393 936 332 972 q 491 839 454 900 q 528 703 528 778 l 528 536 q 491 400 528 461 q 393 303 454 339 q 257 267 332 267 l 249 267 l 249 0 l 42 0 m 249 447 l 253 447 q 286 451 271 447 q 310 475 301 456 q 319 540 319 494 l 319 697 q 310 764 319 744 q 286 788 301 783 q 253 792 271 792 l 249 792 l 249 447 z "},"Þ":{"ha":569,"x_min":42,"x_max":528,"o":"m 42 0 l 42 972 l 257 972 l 257 839 q 393 803 332 839 q 491 706 454 767 q 528 569 528 644 l 528 403 q 491 267 528 328 q 393 169 454 206 q 257 133 332 133 l 249 133 l 249 0 l 42 0 m 249 314 l 253 314 q 286 318 271 314 q 310 342 301 322 q 319 407 319 361 l 319 564 q 310 631 319 611 q 286 654 301 650 q 253 658 271 658 l 249 658 l 249 314 z "},"Q":{"ha":571,"x_min":42,"x_max":528,"o":"m 351 -122 l 286 0 l 285 0 q 163 33 218 0 q 74 120 107 65 q 42 243 42 175 l 42 743 q 74 865 42 810 q 163 953 107 921 q 285 986 218 986 q 408 953 353 986 q 495 865 463 921 q 528 743 528 810 l 528 243 q 503 138 528 186 q 439 54 479 89 l 439 33 l 528 -101 l 528 -122 l 351 -122 m 285 179 q 311 190 300 179 q 322 215 322 200 l 322 756 q 311 781 322 771 q 285 792 300 792 q 260 781 271 792 q 249 756 249 771 l 249 215 q 260 190 249 200 q 285 179 271 179 z "},"R":{"ha":569,"x_min":42,"x_max":528,"o":"m 42 0 l 42 972 l 254 972 q 392 935 329 972 q 491 837 454 899 q 528 699 528 775 l 528 536 q 510 442 528 500 q 442 339 492 385 l 442 318 l 528 0 l 319 0 l 261 268 l 249 268 l 249 0 l 42 0 m 249 447 l 260 447 q 302 462 285 447 q 319 536 319 476 l 319 703 q 302 776 319 761 q 260 792 285 792 l 249 792 l 249 447 z "},"Ŕ":{"ha":958,"x_min":42,"x_max":917,"o":"m 42 0 l 42 972 l 564 972 q 741 924 661 972 q 869 797 821 876 q 917 619 917 717 q 886 468 917 540 q 794 339 856 396 l 794 318 l 917 0 l 708 0 l 611 268 l 249 268 l 249 0 l 42 0 m 249 447 l 515 447 q 661 497 614 447 q 708 621 708 547 q 661 743 708 694 q 515 792 614 792 l 249 792 l 249 447 m 228 1115 l 719 1206 l 731 1146 l 239 1056 l 228 1115 z "},"Ř":{"ha":958,"x_min":42,"x_max":917,"o":"m 42 0 l 42 972 l 564 972 q 741 924 661 972 q 869 797 821 876 q 917 619 917 717 q 886 468 917 540 q 794 339 856 396 l 794 318 l 917 0 l 708 0 l 611 268 l 249 268 l 249 0 l 42 0 m 249 447 l 515 447 q 661 497 614 447 q 708 621 708 547 q 661 743 708 694 q 515 792 614 792 l 249 792 l 249 447 m 186 1225 l 439 1097 l 467 1097 l 719 1225 l 749 1172 l 453 1024 l 157 1172 l 186 1225 z "},"Ŗ":{"ha":958,"x_min":42,"x_max":917,"o":"m 42 0 l 42 972 l 564 972 q 741 924 661 972 q 869 797 821 876 q 917 619 917 717 q 886 468 917 540 q 794 339 856 396 l 794 318 l 917 0 l 708 0 l 611 268 l 249 268 l 249 0 l 42 0 m 249 447 l 515 447 q 661 497 614 447 q 708 621 708 547 q 661 743 708 694 q 515 792 614 792 l 249 792 l 249 447 m 446 -236 l 446 -64 l 513 -64 l 513 -78 l 488 -236 l 446 -236 z "},"S":{"ha":569,"x_min":42,"x_max":528,"o":"m 285 -14 q 163 19 218 -14 q 74 106 107 51 q 42 229 42 161 l 42 340 l 249 340 l 249 222 q 259 197 249 208 q 285 185 269 185 q 311 197 300 185 q 322 222 322 208 q 319 244 322 235 q 307 268 317 253 l 140 540 q 99 605 122 571 q 58 673 75 639 q 42 738 42 707 l 42 743 q 74 866 42 811 q 163 953 107 921 q 285 986 218 986 q 408 953 353 986 q 495 866 463 921 q 528 743 528 811 l 528 644 l 322 644 l 322 751 q 311 778 322 767 q 285 789 300 789 q 260 778 271 789 q 249 751 249 767 q 252 735 249 742 q 263 717 256 729 l 435 443 q 497 341 467 392 q 528 235 528 290 l 528 229 q 495 106 528 161 q 408 19 463 51 q 285 -14 353 -14 z "},"Ś":{"ha":996,"x_min":42,"x_max":954,"o":"m 515 -14 q 297 17 396 -14 q 138 117 197 49 q 79 296 79 186 l 79 340 l 274 340 l 274 324 q 305 224 274 258 q 391 178 336 190 q 515 167 446 167 q 693 185 626 167 q 760 268 760 204 q 722 331 760 307 q 615 373 685 354 q 448 414 546 392 q 231 474 350 436 q 174 497 206 482 q 112 539 142 513 q 62 603 82 565 q 42 694 42 642 q 94 838 42 771 q 253 945 147 904 q 515 986 358 986 q 737 948 638 986 q 895 844 836 910 q 954 694 954 779 l 954 644 l 760 644 l 760 663 q 697 777 760 735 q 510 819 635 819 q 305 787 374 819 q 236 694 236 754 q 264 631 236 654 q 342 594 292 608 q 463 565 393 579 q 619 526 533 550 q 791 466 715 500 q 910 378 867 432 q 954 235 954 324 q 896 101 954 157 q 738 16 838 46 q 515 -14 639 -14 m 247 1088 l 739 1178 l 750 1118 l 258 1028 l 247 1088 z "},"Š":{"ha":996,"x_min":42,"x_max":954,"o":"m 515 -14 q 297 17 396 -14 q 138 117 197 49 q 79 296 79 186 l 79 340 l 274 340 l 274 324 q 305 224 274 258 q 391 178 336 190 q 515 167 446 167 q 693 185 626 167 q 760 268 760 204 q 722 331 760 307 q 615 373 685 354 q 448 414 546 392 q 231 474 350 436 q 174 497 206 482 q 112 539 142 513 q 62 603 82 565 q 42 694 42 642 q 94 838 42 771 q 253 945 147 904 q 515 986 358 986 q 737 948 638 986 q 895 844 836 910 q 954 694 954 779 l 954 644 l 760 644 l 760 663 q 697 777 760 735 q 510 819 635 819 q 305 787 374 819 q 236 694 236 754 q 264 631 236 654 q 342 594 292 608 q 463 565 393 579 q 619 526 533 550 q 791 466 715 500 q 910 378 867 432 q 954 235 954 324 q 896 101 954 157 q 738 16 838 46 q 515 -14 639 -14 m 232 1225 l 485 1097 l 513 1097 l 765 1225 l 794 1172 l 499 1024 l 203 1172 l 232 1225 z "},"Ş":{"ha":996,"x_min":42,"x_max":954,"o":"m 515 -14 q 297 17 396 -14 q 138 117 197 49 q 79 296 79 186 l 79 340 l 274 340 l 274 324 q 305 224 274 258 q 391 178 336 190 q 515 167 446 167 q 693 185 626 167 q 760 268 760 204 q 722 331 760 307 q 615 373 685 354 q 448 414 546 392 q 231 474 350 436 q 174 497 206 482 q 112 539 142 513 q 62 603 82 565 q 42 694 42 642 q 94 838 42 771 q 253 945 147 904 q 515 986 358 986 q 737 948 638 986 q 895 844 836 910 q 954 694 954 779 l 954 644 l 760 644 l 760 663 q 697 777 760 735 q 510 819 635 819 q 305 787 374 819 q 236 694 236 754 q 264 631 236 654 q 342 594 292 608 q 463 565 393 579 q 619 526 533 550 q 791 466 715 500 q 910 378 867 432 q 954 235 954 324 q 896 101 954 157 q 738 16 838 46 q 515 -14 639 -14 m 506 0 l 550 0 q 559 -38 550 -24 q 581 -65 568 -53 q 602 -94 593 -78 q 611 -139 611 -111 q 586 -201 611 -171 q 517 -232 561 -232 q 454 -210 479 -232 q 421 -153 429 -187 q 425 -82 413 -118 l 468 -87 q 470 -158 454 -135 q 517 -182 486 -182 q 555 -164 542 -182 q 563 -122 568 -146 q 544 -90 558 -103 q 518 -58 531 -78 q 506 0 506 -37 z "},"Ș":{"ha":996,"x_min":42,"x_max":954,"o":"m 515 -14 q 297 17 396 -14 q 138 117 197 49 q 79 296 79 186 l 79 340 l 274 340 l 274 324 q 305 224 274 258 q 391 178 336 190 q 515 167 446 167 q 693 185 626 167 q 760 268 760 204 q 722 331 760 307 q 615 373 685 354 q 448 414 546 392 q 231 474 350 436 q 174 497 206 482 q 112 539 142 513 q 62 603 82 565 q 42 694 42 642 q 94 838 42 771 q 253 945 147 904 q 515 986 358 986 q 737 948 638 986 q 895 844 836 910 q 954 694 954 779 l 954 644 l 760 644 l 760 663 q 697 777 760 735 q 510 819 635 819 q 305 787 374 819 q 236 694 236 754 q 264 631 236 654 q 342 594 292 608 q 463 565 393 579 q 619 526 533 550 q 791 466 715 500 q 910 378 867 432 q 954 235 954 324 q 896 101 954 157 q 738 16 838 46 q 515 -14 639 -14 m 464 -236 l 464 -64 l 531 -64 l 531 -78 l 506 -236 l 464 -236 z "},"ẞ":{"ha":951,"x_min":42,"x_max":910,"o":"m 624 -14 l 410 -14 l 410 179 l 618 179 q 687 208 658 179 q 715 281 715 238 q 687 351 715 321 q 618 382 658 382 l 410 382 l 410 590 l 604 778 l 604 792 l 243 792 l 243 -14 l 42 -14 l 42 972 l 826 972 l 826 792 l 596 569 l 596 549 q 766 522 696 557 q 873 424 836 488 q 910 281 910 360 q 871 115 910 181 q 767 18 832 50 q 624 -14 703 -14 z "},"T":{"ha":556,"x_min":42,"x_max":514,"o":"m 174 0 l 174 792 l 42 792 l 42 972 l 514 972 l 514 792 l 382 792 l 382 0 l 174 0 z "},"Ť":{"ha":958,"x_min":42,"x_max":917,"o":"m 375 0 l 375 792 l 42 792 l 42 972 l 917 972 l 917 792 l 583 792 l 583 0 l 375 0 m 213 1225 l 465 1097 l 493 1097 l 746 1225 l 775 1172 l 479 1024 l 183 1172 l 213 1225 z "},"Ț":{"ha":958,"x_min":42,"x_max":917,"o":"m 375 0 l 375 792 l 42 792 l 42 972 l 917 972 l 917 792 l 583 792 l 583 0 l 375 0 m 446 -236 l 446 -64 l 513 -64 l 513 -78 l 488 -236 l 446 -236 z "},"U":{"ha":569,"x_min":42,"x_max":528,"o":"m 285 -14 q 163 19 218 -14 q 74 106 107 51 q 42 229 42 161 l 42 972 l 249 972 l 249 217 q 260 190 249 201 q 285 179 271 179 q 311 190 300 179 q 322 217 322 201 l 322 972 l 528 972 l 528 229 q 495 106 528 161 q 408 19 463 51 q 285 -14 353 -14 z "},"Ú":{"ha":1056,"x_min":42,"x_max":1014,"o":"m 807 472 l 807 972 l 1014 972 l 1014 472 q 976 284 1014 372 q 872 128 939 196 q 716 24 804 61 q 528 -14 628 -14 q 340 24 428 -14 q 184 128 251 61 q 79 284 117 196 q 42 472 42 372 l 42 972 l 250 972 l 250 472 q 288 331 250 394 q 388 231 325 268 q 528 194 451 194 q 667 231 604 194 q 769 331 731 268 q 807 472 807 394 m 276 1088 l 768 1178 l 779 1118 l 288 1028 l 276 1088 z "},"Ŭ":{"ha":1056,"x_min":42,"x_max":1014,"o":"m 807 472 l 807 972 l 1014 972 l 1014 472 q 976 284 1014 372 q 872 128 939 196 q 716 24 804 61 q 528 -14 628 -14 q 340 24 428 -14 q 184 128 251 61 q 79 284 117 196 q 42 472 42 372 l 42 972 l 250 972 l 250 472 q 288 331 250 394 q 388 231 325 268 q 528 194 451 194 q 667 231 604 194 q 769 331 731 268 q 807 472 807 394 m 528 1028 q 395 1049 456 1028 q 299 1105 335 1069 q 264 1182 264 1140 l 333 1182 q 394 1113 340 1139 q 528 1086 447 1086 q 663 1113 611 1086 q 721 1182 715 1139 l 792 1182 q 756 1105 792 1140 q 661 1049 721 1069 q 528 1028 601 1028 z "},"Û":{"ha":1056,"x_min":42,"x_max":1014,"o":"m 807 472 l 807 972 l 1014 972 l 1014 472 q 976 284 1014 372 q 872 128 939 196 q 716 24 804 61 q 528 -14 628 -14 q 340 24 428 -14 q 184 128 251 61 q 79 284 117 196 q 42 472 42 372 l 42 972 l 250 972 l 250 472 q 288 331 250 394 q 388 231 325 268 q 528 194 451 194 q 667 231 604 194 q 769 331 731 268 q 807 472 807 394 m 261 1028 l 232 1081 l 528 1229 l 824 1081 l 794 1028 l 542 1156 l 514 1156 l 261 1028 z "},"Ü":{"ha":1056,"x_min":42,"x_max":1014,"o":"m 807 472 l 807 972 l 1014 972 l 1014 472 q 976 284 1014 372 q 872 128 939 196 q 716 24 804 61 q 528 -14 628 -14 q 340 24 428 -14 q 184 128 251 61 q 79 284 117 196 q 42 472 42 372 l 42 972 l 250 972 l 250 472 q 288 331 250 394 q 388 231 325 268 q 528 194 451 194 q 667 231 604 194 q 769 331 731 268 q 807 472 807 394 m 363 1201 l 493 1201 l 493 1057 l 363 1057 l 363 1201 m 568 1201 l 699 1201 l 699 1057 l 568 1057 l 568 1201 z "},"Ụ":{"ha":1056,"x_min":42,"x_max":1014,"o":"m 807 472 l 807 972 l 1014 972 l 1014 472 q 976 284 1014 372 q 872 128 939 196 q 716 24 804 61 q 528 -14 628 -14 q 340 24 428 -14 q 184 128 251 61 q 79 284 117 196 q 42 472 42 372 l 42 972 l 250 972 l 250 472 q 288 331 250 394 q 388 231 325 268 q 528 194 451 194 q 667 231 604 194 q 769 331 731 268 q 807 472 807 394 m 417 -64 l 639 -64 l 639 -190 l 417 -190 l 417 -64 z "},"Ù":{"ha":1056,"x_min":42,"x_max":1014,"o":"m 807 472 l 807 972 l 1014 972 l 1014 472 q 976 284 1014 372 q 872 128 939 196 q 716 24 804 61 q 528 -14 628 -14 q 340 24 428 -14 q 184 128 251 61 q 79 284 117 196 q 42 472 42 372 l 42 972 l 250 972 l 250 472 q 288 331 250 394 q 388 231 325 268 q 528 194 451 194 q 667 231 604 194 q 769 331 731 268 q 807 472 807 394 m 779 1088 l 768 1028 l 276 1118 l 288 1178 l 779 1088 z "},"Ủ":{"ha":1056,"x_min":42,"x_max":1014,"o":"m 807 472 l 807 972 l 1014 972 l 1014 472 q 976 284 1014 372 q 872 128 939 196 q 716 24 804 61 q 528 -14 628 -14 q 340 24 428 -14 q 184 128 251 61 q 79 284 117 196 q 42 472 42 372 l 42 972 l 250 972 l 250 472 q 288 331 250 394 q 388 231 325 268 q 528 194 451 194 q 667 231 604 194 q 769 331 731 268 q 807 472 807 394 m 489 1014 q 508 1068 489 1051 q 554 1092 528 1085 q 600 1108 581 1100 q 619 1136 619 1115 q 588 1173 619 1164 q 528 1182 556 1182 q 467 1172 499 1182 q 435 1133 435 1163 l 435 1122 l 365 1122 l 365 1136 q 413 1215 365 1186 q 528 1244 460 1244 q 642 1215 596 1244 q 689 1136 689 1186 q 670 1081 689 1097 q 627 1059 651 1065 q 584 1045 603 1053 q 565 1014 565 1038 l 489 1014 z "},"Ư":{"ha":1082,"x_min":42,"x_max":1040,"o":"m 915 972 l 1040 972 q 1034 882 1040 932 q 1008 786 1028 832 q 950 711 989 740 q 846 682 911 682 l 846 388 q 815 231 846 304 q 728 103 783 158 q 601 17 674 49 q 444 -14 528 -14 q 288 17 361 -14 q 160 103 215 49 q 73 231 104 158 q 42 388 42 304 l 42 972 l 249 972 l 249 372 q 275 275 249 319 q 345 205 301 231 q 443 179 389 179 q 541 205 497 179 q 610 275 585 231 q 636 372 636 319 l 636 972 l 846 972 l 846 792 q 888 818 872 792 q 909 886 903 844 q 915 972 915 928 z "},"Ứ":{"ha":1082,"x_min":42,"x_max":1040,"o":"m 915 972 l 1040 972 q 1034 882 1040 932 q 1008 786 1028 832 q 950 711 989 740 q 846 682 911 682 l 846 388 q 815 231 846 304 q 728 103 783 158 q 601 17 674 49 q 444 -14 528 -14 q 288 17 361 -14 q 160 103 215 49 q 73 231 104 158 q 42 388 42 304 l 42 972 l 249 972 l 249 372 q 275 275 249 319 q 345 205 301 231 q 443 179 389 179 q 541 205 497 179 q 610 275 585 231 q 636 372 636 319 l 636 972 l 846 972 l 846 792 q 888 818 872 792 q 909 886 903 844 q 915 972 915 928 m 192 1088 l 683 1178 l 694 1118 l 203 1028 l 192 1088 z "},"Ự":{"ha":1082,"x_min":42,"x_max":1040,"o":"m 915 972 l 1040 972 q 1034 882 1040 932 q 1008 786 1028 832 q 950 711 989 740 q 846 682 911 682 l 846 388 q 815 231 846 304 q 728 103 783 158 q 601 17 674 49 q 444 -14 528 -14 q 288 17 361 -14 q 160 103 215 49 q 73 231 104 158 q 42 388 42 304 l 42 972 l 249 972 l 249 372 q 275 275 249 319 q 345 205 301 231 q 443 179 389 179 q 541 205 497 179 q 610 275 585 231 q 636 372 636 319 l 636 972 l 846 972 l 846 792 q 888 818 872 792 q 909 886 903 844 q 915 972 915 928 m 332 -64 l 554 -64 l 554 -190 l 332 -190 l 332 -64 z "},"Ừ":{"ha":1082,"x_min":42,"x_max":1040,"o":"m 915 972 l 1040 972 q 1034 882 1040 932 q 1008 786 1028 832 q 950 711 989 740 q 846 682 911 682 l 846 388 q 815 231 846 304 q 728 103 783 158 q 601 17 674 49 q 444 -14 528 -14 q 288 17 361 -14 q 160 103 215 49 q 73 231 104 158 q 42 388 42 304 l 42 972 l 249 972 l 249 372 q 275 275 249 319 q 345 205 301 231 q 443 179 389 179 q 541 205 497 179 q 610 275 585 231 q 636 372 636 319 l 636 972 l 846 972 l 846 792 q 888 818 872 792 q 909 886 903 844 q 915 972 915 928 m 696 1088 l 685 1028 l 193 1118 l 204 1178 l 696 1088 z "},"Ử":{"ha":1082,"x_min":42,"x_max":1040,"o":"m 915 972 l 1040 972 q 1034 882 1040 932 q 1008 786 1028 832 q 950 711 989 740 q 846 682 911 682 l 846 388 q 815 231 846 304 q 728 103 783 158 q 601 17 674 49 q 444 -14 528 -14 q 288 17 361 -14 q 160 103 215 49 q 73 231 104 158 q 42 388 42 304 l 42 972 l 249 972 l 249 372 q 275 275 249 319 q 345 205 301 231 q 443 179 389 179 q 541 205 497 179 q 610 275 585 231 q 636 372 636 319 l 636 972 l 846 972 l 846 792 q 888 818 872 792 q 909 886 903 844 q 915 972 915 928 m 406 1014 q 425 1068 406 1051 q 471 1092 444 1085 q 517 1108 497 1100 q 536 1136 536 1115 q 504 1173 536 1164 q 444 1182 472 1182 q 383 1172 415 1182 q 351 1133 351 1163 l 351 1122 l 282 1122 l 282 1136 q 329 1215 282 1186 q 444 1244 376 1244 q 559 1215 513 1244 q 606 1136 606 1186 q 587 1081 606 1097 q 544 1059 568 1065 q 501 1045 519 1053 q 482 1014 482 1038 l 406 1014 z "},"Ữ":{"ha":1082,"x_min":42,"x_max":1040,"o":"m 915 972 l 1040 972 q 1034 882 1040 932 q 1008 786 1028 832 q 950 711 989 740 q 846 682 911 682 l 846 388 q 815 231 846 304 q 728 103 783 158 q 601 17 674 49 q 444 -14 528 -14 q 288 17 361 -14 q 160 103 215 49 q 73 231 104 158 q 42 388 42 304 l 42 972 l 249 972 l 249 372 q 275 275 249 319 q 345 205 301 231 q 443 179 389 179 q 541 205 497 179 q 610 275 585 231 q 636 372 636 319 l 636 972 l 846 972 l 846 792 q 888 818 872 792 q 909 886 903 844 q 915 972 915 928 m 186 1039 q 199 1098 186 1064 q 242 1158 211 1132 q 328 1189 274 1185 q 413 1175 376 1193 q 482 1135 450 1157 q 547 1100 514 1113 q 606 1097 586 1088 q 632 1127 625 1106 q 639 1174 639 1149 l 703 1174 q 664 1063 703 1097 q 556 1039 625 1029 q 472 1069 508 1046 q 404 1115 436 1093 q 336 1133 372 1136 q 273 1102 293 1131 q 250 1039 253 1074 l 186 1039 z "},"Ű":{"ha":1056,"x_min":42,"x_max":1014,"o":"m 807 472 l 807 972 l 1014 972 l 1014 472 q 976 284 1014 372 q 872 128 939 196 q 716 24 804 61 q 528 -14 628 -14 q 340 24 428 -14 q 184 128 251 61 q 79 284 117 196 q 42 472 42 372 l 42 972 l 250 972 l 250 472 q 288 331 250 394 q 388 231 325 268 q 528 194 451 194 q 667 231 604 194 q 769 331 731 268 q 807 472 807 394 m 369 1060 l 553 1290 l 601 1258 l 417 1028 l 369 1060 m 554 1060 l 738 1290 l 786 1258 l 601 1028 l 554 1060 z "},"Ū":{"ha":1056,"x_min":42,"x_max":1014,"o":"m 807 472 l 807 972 l 1014 972 l 1014 472 q 976 284 1014 372 q 872 128 939 196 q 716 24 804 61 q 528 -14 628 -14 q 340 24 428 -14 q 184 128 251 61 q 79 284 117 196 q 42 472 42 372 l 42 972 l 250 972 l 250 472 q 288 331 250 394 q 388 231 325 268 q 528 194 451 194 q 667 231 604 194 q 769 331 731 268 q 807 472 807 394 m 247 1056 l 247 1117 l 810 1117 l 810 1056 l 247 1056 z "},"Ų":{"ha":1056,"x_min":42,"x_max":1014,"o":"m 807 472 l 807 972 l 1014 972 l 1014 472 q 976 284 1014 372 q 872 128 939 196 q 716 24 804 61 q 528 -14 628 -14 q 340 24 428 -14 q 184 128 251 61 q 79 284 117 196 q 42 472 42 372 l 42 972 l 250 972 l 250 472 q 288 331 250 394 q 388 231 325 268 q 528 194 451 194 q 667 231 604 194 q 769 331 731 268 q 807 472 807 394 m 554 0 q 542 -58 554 -37 q 515 -90 529 -78 q 497 -122 501 -103 q 505 -164 492 -146 q 543 -182 518 -182 q 590 -158 574 -182 q 592 -87 607 -135 l 635 -82 q 640 -153 649 -118 q 606 -210 631 -187 q 543 -232 581 -232 q 474 -201 499 -232 q 449 -139 449 -171 q 458 -94 449 -111 q 479 -65 467 -78 q 501 -38 492 -53 q 510 0 510 -24 l 554 0 z "},"Ů":{"ha":1056,"x_min":42,"x_max":1014,"o":"m 807 472 l 807 972 l 1014 972 l 1014 472 q 976 284 1014 372 q 872 128 939 196 q 716 24 804 61 q 528 -14 628 -14 q 340 24 428 -14 q 184 128 251 61 q 79 284 117 196 q 42 472 42 372 l 42 972 l 250 972 l 250 472 q 288 331 250 394 q 388 231 325 268 q 528 194 451 194 q 667 231 604 194 q 769 331 731 268 q 807 472 807 394 m 528 1056 q 447 1090 481 1056 q 413 1171 413 1124 q 447 1253 413 1219 q 528 1286 481 1286 q 610 1253 576 1286 q 643 1171 643 1219 q 610 1090 643 1124 q 528 1056 576 1056 m 526 1104 q 576 1123 557 1104 q 594 1169 594 1142 q 576 1219 594 1200 q 526 1238 557 1238 q 480 1219 499 1238 q 461 1169 461 1200 q 480 1123 461 1142 q 526 1104 499 1104 z "},"Ũ":{"ha":1056,"x_min":42,"x_max":1014,"o":"m 807 472 l 807 972 l 1014 972 l 1014 472 q 976 284 1014 372 q 872 128 939 196 q 716 24 804 61 q 528 -14 628 -14 q 340 24 428 -14 q 184 128 251 61 q 79 284 117 196 q 42 472 42 372 l 42 972 l 250 972 l 250 472 q 288 331 250 394 q 388 231 325 268 q 528 194 451 194 q 667 231 604 194 q 769 331 731 268 q 807 472 807 394 m 269 1039 q 282 1098 269 1064 q 326 1158 294 1132 q 411 1189 357 1185 q 497 1175 460 1193 q 565 1135 533 1157 q 631 1100 597 1113 q 689 1097 669 1088 q 715 1127 708 1106 q 722 1174 722 1149 l 786 1174 q 747 1063 786 1097 q 639 1039 708 1029 q 556 1069 592 1046 q 488 1115 519 1093 q 419 1133 456 1136 q 356 1102 376 1131 q 333 1039 336 1074 l 269 1039 z "},"V":{"ha":571,"x_min":42,"x_max":528,"o":"m 167 0 l 42 951 l 42 972 l 249 972 l 275 278 l 293 278 l 319 972 l 528 972 l 528 951 l 403 0 l 167 0 z "},"W":{"ha":690,"x_min":42,"x_max":649,"o":"m 103 0 l 42 951 l 42 972 l 196 972 l 215 540 l 233 540 l 285 972 l 406 972 l 457 540 l 475 540 l 494 972 l 649 972 l 649 951 l 589 0 l 379 0 l 357 347 l 335 347 l 311 0 l 103 0 z "},"Ẃ":{"ha":958,"x_min":42,"x_max":917,"o":"m 129 0 l 42 951 l 42 972 l 263 972 l 294 243 l 317 243 l 392 969 l 565 969 l 643 243 l 661 243 l 696 972 l 917 972 l 917 951 l 831 0 l 514 0 l 490 306 l 469 306 l 444 0 l 129 0 m 228 1088 l 719 1178 l 731 1118 l 239 1028 l 228 1088 z "},"Ŵ":{"ha":958,"x_min":42,"x_max":917,"o":"m 129 0 l 42 951 l 42 972 l 263 972 l 294 243 l 317 243 l 392 969 l 565 969 l 643 243 l 661 243 l 696 972 l 917 972 l 917 951 l 831 0 l 514 0 l 490 306 l 469 306 l 444 0 l 129 0 m 213 1028 l 183 1081 l 479 1229 l 775 1081 l 746 1028 l 493 1156 l 465 1156 l 213 1028 z "},"Ẅ":{"ha":958,"x_min":42,"x_max":917,"o":"m 129 0 l 42 951 l 42 972 l 263 972 l 294 243 l 317 243 l 392 969 l 565 969 l 643 243 l 661 243 l 696 972 l 917 972 l 917 951 l 831 0 l 514 0 l 490 306 l 469 306 l 444 0 l 129 0 m 314 1201 l 444 1201 l 444 1057 l 314 1057 l 314 1201 m 519 1201 l 650 1201 l 650 1057 l 519 1057 l 519 1201 z "},"Ẁ":{"ha":958,"x_min":42,"x_max":917,"o":"m 129 0 l 42 951 l 42 972 l 263 972 l 294 243 l 317 243 l 392 969 l 565 969 l 643 243 l 661 243 l 696 972 l 917 972 l 917 951 l 831 0 l 514 0 l 490 306 l 469 306 l 444 0 l 129 0 m 731 1088 l 719 1028 l 228 1118 l 239 1178 l 731 1088 z "},"X":{"ha":569,"x_min":42,"x_max":528,"o":"m 42 0 l 42 21 l 175 486 l 42 951 l 42 972 l 247 972 l 276 660 l 294 660 l 324 972 l 528 972 l 528 951 l 396 486 l 528 21 l 528 0 l 322 0 l 294 313 l 276 313 l 249 0 l 42 0 z "},"Y":{"ha":571,"x_min":42,"x_max":528,"o":"m 182 0 l 182 432 l 42 951 l 42 972 l 249 972 l 276 611 l 294 611 l 322 972 l 528 972 l 528 951 l 389 432 l 389 0 l 182 0 z "},"Ý":{"ha":1056,"x_min":42,"x_max":1014,"o":"m 779 972 l 1014 972 l 1014 951 l 632 432 l 632 0 l 424 0 l 424 432 l 42 951 l 42 972 l 278 972 l 518 611 l 538 611 l 779 972 m 276 1088 l 768 1178 l 779 1118 l 288 1028 l 276 1088 z "},"Ŷ":{"ha":1056,"x_min":42,"x_max":1014,"o":"m 779 972 l 1014 972 l 1014 951 l 632 432 l 632 0 l 424 0 l 424 432 l 42 951 l 42 972 l 278 972 l 518 611 l 538 611 l 779 972 m 261 1028 l 232 1081 l 528 1229 l 824 1081 l 794 1028 l 542 1156 l 514 1156 l 261 1028 z "},"Ÿ":{"ha":1056,"x_min":42,"x_max":1014,"o":"m 779 972 l 1014 972 l 1014 951 l 632 432 l 632 0 l 424 0 l 424 432 l 42 951 l 42 972 l 278 972 l 518 611 l 538 611 l 779 972 m 363 1201 l 493 1201 l 493 1057 l 363 1057 l 363 1201 m 568 1201 l 699 1201 l 699 1057 l 568 1057 l 568 1201 z "},"Ỵ":{"ha":1056,"x_min":42,"x_max":1014,"o":"m 779 972 l 1014 972 l 1014 951 l 632 432 l 632 0 l 424 0 l 424 432 l 42 951 l 42 972 l 278 972 l 518 611 l 538 611 l 779 972 m 417 -64 l 639 -64 l 639 -190 l 417 -190 l 417 -64 z "},"Ỳ":{"ha":1056,"x_min":42,"x_max":1014,"o":"m 779 972 l 1014 972 l 1014 951 l 632 432 l 632 0 l 424 0 l 424 432 l 42 951 l 42 972 l 278 972 l 518 611 l 538 611 l 779 972 m 779 1088 l 768 1028 l 276 1118 l 288 1178 l 779 1088 z "},"Ỷ":{"ha":1056,"x_min":42,"x_max":1014,"o":"m 779 972 l 1014 972 l 1014 951 l 632 432 l 632 0 l 424 0 l 424 432 l 42 951 l 42 972 l 278 972 l 518 611 l 538 611 l 779 972 m 489 1028 q 508 1082 489 1065 q 554 1106 528 1099 q 600 1122 581 1114 q 619 1150 619 1129 q 588 1187 619 1178 q 528 1196 556 1196 q 467 1186 499 1196 q 435 1147 435 1176 l 435 1136 l 365 1136 l 365 1150 q 413 1229 365 1200 q 528 1258 460 1258 q 642 1229 596 1258 q 689 1150 689 1200 q 670 1095 689 1111 q 627 1073 651 1079 q 584 1059 603 1067 q 565 1028 565 1051 l 489 1028 z "},"Ỹ":{"ha":1056,"x_min":42,"x_max":1014,"o":"m 779 972 l 1014 972 l 1014 951 l 632 432 l 632 0 l 424 0 l 424 432 l 42 951 l 42 972 l 278 972 l 518 611 l 538 611 l 779 972 m 269 1056 q 282 1115 269 1081 q 326 1175 294 1149 q 411 1206 357 1201 q 497 1192 460 1210 q 565 1151 533 1174 q 631 1117 597 1129 q 689 1113 669 1104 q 715 1144 708 1122 q 722 1190 722 1165 l 786 1190 q 747 1080 786 1114 q 639 1056 708 1046 q 556 1086 592 1063 q 488 1131 519 1110 q 419 1150 456 1153 q 356 1119 376 1147 q 333 1056 336 1090 l 269 1056 z "},"Z":{"ha":503,"x_min":42,"x_max":458,"o":"m 42 0 l 42 186 l 250 764 l 250 792 l 42 792 l 42 972 l 458 972 l 458 792 l 250 207 l 250 179 l 458 179 l 458 0 l 42 0 z "},"Ź":{"ha":958,"x_min":42,"x_max":917,"o":"m 42 0 l 42 186 l 653 771 l 653 792 l 42 792 l 42 972 l 917 972 l 917 792 l 306 200 l 306 179 l 917 179 l 917 0 l 42 0 m 228 1115 l 719 1206 l 731 1146 l 239 1056 l 228 1115 z "},"Ž":{"ha":958,"x_min":42,"x_max":917,"o":"m 42 0 l 42 186 l 653 771 l 653 792 l 42 792 l 42 972 l 917 972 l 917 792 l 306 200 l 306 179 l 917 179 l 917 0 l 42 0 m 213 1225 l 465 1097 l 493 1097 l 746 1225 l 775 1172 l 479 1024 l 183 1172 l 213 1225 z "},"Ż":{"ha":958,"x_min":42,"x_max":917,"o":"m 42 0 l 42 186 l 653 771 l 653 792 l 42 792 l 42 972 l 917 972 l 917 792 l 306 200 l 306 179 l 917 179 l 917 0 l 42 0 m 417 1201 l 547 1201 l 547 1057 l 417 1057 l 417 1201 z "},"a":{"ha":569,"x_min":42,"x_max":528,"o":"m 260 -14 q 144 19 193 -14 q 68 106 94 51 q 42 229 42 161 l 42 365 q 74 488 42 432 q 163 576 107 543 q 285 608 218 608 l 322 608 l 322 786 q 311 812 322 801 q 285 822 300 822 q 260 812 271 822 q 249 786 249 801 l 249 644 l 42 644 l 42 743 q 74 866 42 811 q 163 953 107 921 q 285 986 218 986 q 408 953 353 986 q 495 866 463 921 q 528 743 528 811 l 528 0 l 382 0 l 382 49 l 368 49 q 322 2 354 18 q 260 -14 290 -14 m 285 179 q 311 190 300 179 q 322 215 322 200 l 322 414 l 285 414 q 260 403 271 414 q 249 378 249 393 l 249 215 q 260 190 249 200 q 285 179 271 179 z "},"á":{"ha":1054,"x_min":42,"x_max":1013,"o":"m 819 972 l 1013 972 l 1013 0 l 819 0 l 819 122 l 799 122 q 674 16 747 46 q 528 -14 600 -14 q 342 25 431 -14 q 187 133 254 64 q 81 292 119 201 q 42 486 42 382 q 81 681 42 590 q 187 840 119 771 q 342 947 254 908 q 528 986 431 986 q 674 957 600 986 q 799 851 749 928 l 819 851 l 819 972 m 542 183 q 694 224 625 183 q 806 335 764 265 q 847 486 847 404 q 806 639 847 569 q 694 750 764 708 q 542 792 625 792 q 390 750 460 792 q 280 639 321 708 q 239 486 239 569 q 280 335 239 404 q 390 224 321 265 q 542 183 460 183 m 275 1088 l 767 1178 l 778 1118 l 286 1028 l 275 1088 z "},"ă":{"ha":1054,"x_min":42,"x_max":1013,"o":"m 819 972 l 1013 972 l 1013 0 l 819 0 l 819 122 l 799 122 q 674 16 747 46 q 528 -14 600 -14 q 342 25 431 -14 q 187 133 254 64 q 81 292 119 201 q 42 486 42 382 q 81 681 42 590 q 187 840 119 771 q 342 947 254 908 q 528 986 431 986 q 674 957 600 986 q 799 851 749 928 l 819 851 l 819 972 m 542 183 q 694 224 625 183 q 806 335 764 265 q 847 486 847 404 q 806 639 847 569 q 694 750 764 708 q 542 792 625 792 q 390 750 460 792 q 280 639 321 708 q 239 486 239 569 q 280 335 239 404 q 390 224 321 265 q 542 183 460 183 m 526 1042 q 394 1063 454 1042 q 298 1119 333 1083 q 263 1196 263 1154 l 332 1196 q 392 1126 339 1153 q 526 1100 446 1100 q 662 1126 610 1100 q 719 1196 714 1153 l 790 1196 q 755 1119 790 1154 q 660 1063 719 1083 q 526 1042 600 1042 z "},"ắ":{"ha":1054,"x_min":42,"x_max":1013,"o":"m 819 972 l 1013 972 l 1013 0 l 819 0 l 819 122 l 799 122 q 674 16 747 46 q 528 -14 600 -14 q 342 25 431 -14 q 187 133 254 64 q 81 292 119 201 q 42 486 42 382 q 81 681 42 590 q 187 840 119 771 q 342 947 254 908 q 528 986 431 986 q 674 957 600 986 q 799 851 749 928 l 819 851 l 819 972 m 542 183 q 694 224 625 183 q 806 335 764 265 q 847 486 847 404 q 806 639 847 569 q 694 750 764 708 q 542 792 625 792 q 390 750 460 792 q 280 639 321 708 q 239 486 239 569 q 280 335 239 404 q 390 224 321 265 q 542 183 460 183 m 443 1242 l 746 1383 l 772 1331 l 474 1192 l 443 1242 m 526 1042 q 394 1063 454 1042 q 298 1119 333 1083 q 263 1196 263 1154 l 332 1196 q 392 1126 339 1153 q 526 1100 446 1100 q 662 1126 610 1100 q 719 1196 714 1153 l 790 1196 q 755 1119 790 1154 q 660 1063 719 1083 q 526 1042 600 1042 z "},"ặ":{"ha":1054,"x_min":42,"x_max":1013,"o":"m 819 972 l 1013 972 l 1013 0 l 819 0 l 819 122 l 799 122 q 674 16 747 46 q 528 -14 600 -14 q 342 25 431 -14 q 187 133 254 64 q 81 292 119 201 q 42 486 42 382 q 81 681 42 590 q 187 840 119 771 q 342 947 254 908 q 528 986 431 986 q 674 957 600 986 q 799 851 749 928 l 819 851 l 819 972 m 542 183 q 694 224 625 183 q 806 335 764 265 q 847 486 847 404 q 806 639 847 569 q 694 750 764 708 q 542 792 625 792 q 390 750 460 792 q 280 639 321 708 q 239 486 239 569 q 280 335 239 404 q 390 224 321 265 q 542 183 460 183 m 526 1042 q 394 1063 454 1042 q 298 1119 333 1083 q 263 1196 263 1154 l 332 1196 q 392 1126 339 1153 q 526 1100 446 1100 q 662 1126 610 1100 q 719 1196 714 1153 l 790 1196 q 755 1119 790 1154 q 660 1063 719 1083 q 526 1042 600 1042 m 417 -64 l 639 -64 l 639 -190 l 417 -190 l 417 -64 z "},"ằ":{"ha":1054,"x_min":42,"x_max":1013,"o":"m 819 972 l 1013 972 l 1013 0 l 819 0 l 819 122 l 799 122 q 674 16 747 46 q 528 -14 600 -14 q 342 25 431 -14 q 187 133 254 64 q 81 292 119 201 q 42 486 42 382 q 81 681 42 590 q 187 840 119 771 q 342 947 254 908 q 528 986 431 986 q 674 957 600 986 q 799 851 749 928 l 819 851 l 819 972 m 542 183 q 694 224 625 183 q 806 335 764 265 q 847 486 847 404 q 806 639 847 569 q 694 750 764 708 q 542 792 625 792 q 390 750 460 792 q 280 639 321 708 q 239 486 239 569 q 280 335 239 404 q 390 224 321 265 q 542 183 460 183 m 638 1242 l 607 1192 l 308 1331 l 335 1383 l 638 1242 m 526 1042 q 394 1063 454 1042 q 298 1119 333 1083 q 263 1196 263 1154 l 332 1196 q 392 1126 339 1153 q 526 1100 446 1100 q 662 1126 610 1100 q 719 1196 714 1153 l 790 1196 q 755 1119 790 1154 q 660 1063 719 1083 q 526 1042 600 1042 z "},"ẳ":{"ha":1054,"x_min":42,"x_max":1013,"o":"m 819 972 l 1013 972 l 1013 0 l 819 0 l 819 122 l 799 122 q 674 16 747 46 q 528 -14 600 -14 q 342 25 431 -14 q 187 133 254 64 q 81 292 119 201 q 42 486 42 382 q 81 681 42 590 q 187 840 119 771 q 342 947 254 908 q 528 986 431 986 q 674 957 600 986 q 799 851 749 928 l 819 851 l 819 972 m 542 183 q 694 224 625 183 q 806 335 764 265 q 847 486 847 404 q 806 639 847 569 q 694 750 764 708 q 542 792 625 792 q 390 750 460 792 q 280 639 321 708 q 239 486 239 569 q 280 335 239 404 q 390 224 321 265 q 542 183 460 183 m 526 1042 q 394 1063 454 1042 q 298 1119 333 1083 q 263 1196 263 1154 l 332 1196 q 392 1126 339 1153 q 526 1100 446 1100 q 662 1126 610 1100 q 719 1196 714 1153 l 790 1196 q 755 1119 790 1154 q 660 1063 719 1083 q 526 1042 600 1042 m 488 1178 q 507 1232 488 1215 q 553 1256 526 1249 q 599 1272 579 1264 q 618 1300 618 1279 q 586 1337 618 1328 q 526 1346 554 1346 q 465 1336 497 1346 q 433 1297 433 1326 l 433 1286 l 364 1286 l 364 1300 q 411 1379 364 1350 q 526 1408 458 1408 q 641 1379 594 1408 q 688 1300 688 1350 q 669 1245 688 1261 q 626 1223 650 1229 q 583 1209 601 1217 q 564 1178 564 1201 l 488 1178 z "},"ẵ":{"ha":1054,"x_min":42,"x_max":1013,"o":"m 819 972 l 1013 972 l 1013 0 l 819 0 l 819 122 l 799 122 q 674 16 747 46 q 528 -14 600 -14 q 342 25 431 -14 q 187 133 254 64 q 81 292 119 201 q 42 486 42 382 q 81 681 42 590 q 187 840 119 771 q 342 947 254 908 q 528 986 431 986 q 674 957 600 986 q 799 851 749 928 l 819 851 l 819 972 m 542 183 q 694 224 625 183 q 806 335 764 265 q 847 486 847 404 q 806 639 847 569 q 694 750 764 708 q 542 792 625 792 q 390 750 460 792 q 280 639 321 708 q 239 486 239 569 q 280 335 239 404 q 390 224 321 265 q 542 183 460 183 m 526 1042 q 394 1063 454 1042 q 298 1119 333 1083 q 263 1196 263 1154 l 332 1196 q 392 1126 339 1153 q 526 1100 446 1100 q 662 1126 610 1100 q 719 1196 714 1153 l 790 1196 q 755 1119 790 1154 q 660 1063 719 1083 q 526 1042 600 1042 m 268 1247 q 281 1306 268 1272 q 324 1367 293 1340 q 410 1397 356 1393 q 495 1383 458 1401 q 564 1343 532 1365 q 629 1308 596 1321 q 688 1305 668 1296 q 714 1335 707 1314 q 721 1382 721 1357 l 785 1382 q 746 1272 785 1306 q 638 1247 707 1238 q 554 1278 590 1254 q 486 1323 518 1301 q 418 1342 454 1344 q 355 1310 375 1339 q 332 1247 335 1282 l 268 1247 z "},"â":{"ha":1054,"x_min":42,"x_max":1013,"o":"m 819 972 l 1013 972 l 1013 0 l 819 0 l 819 122 l 799 122 q 674 16 747 46 q 528 -14 600 -14 q 342 25 431 -14 q 187 133 254 64 q 81 292 119 201 q 42 486 42 382 q 81 681 42 590 q 187 840 119 771 q 342 947 254 908 q 528 986 431 986 q 674 957 600 986 q 799 851 749 928 l 819 851 l 819 972 m 542 183 q 694 224 625 183 q 806 335 764 265 q 847 486 847 404 q 806 639 847 569 q 694 750 764 708 q 542 792 625 792 q 390 750 460 792 q 280 639 321 708 q 239 486 239 569 q 280 335 239 404 q 390 224 321 265 q 542 183 460 183 m 260 1000 l 231 1053 l 526 1201 l 822 1053 l 793 1000 l 540 1128 l 513 1128 l 260 1000 z "},"ấ":{"ha":1054,"x_min":42,"x_max":1079,"o":"m 819 972 l 1013 972 l 1013 0 l 819 0 l 819 122 l 799 122 q 674 16 747 46 q 528 -14 600 -14 q 342 25 431 -14 q 187 133 254 64 q 81 292 119 201 q 42 486 42 382 q 81 681 42 590 q 187 840 119 771 q 342 947 254 908 q 528 986 431 986 q 674 957 600 986 q 799 851 749 928 l 819 851 l 819 972 m 542 183 q 694 224 625 183 q 806 335 764 265 q 847 486 847 404 q 806 639 847 569 q 694 750 764 708 q 542 792 625 792 q 390 750 460 792 q 280 639 321 708 q 239 486 239 569 q 280 335 239 404 q 390 224 321 265 q 542 183 460 183 m 750 1200 l 1053 1342 l 1079 1289 l 781 1150 l 750 1200 m 260 1000 l 231 1053 l 526 1201 l 822 1053 l 793 1000 l 540 1128 l 513 1128 l 260 1000 z "},"ậ":{"ha":1054,"x_min":42,"x_max":1013,"o":"m 819 972 l 1013 972 l 1013 0 l 819 0 l 819 122 l 799 122 q 674 16 747 46 q 528 -14 600 -14 q 342 25 431 -14 q 187 133 254 64 q 81 292 119 201 q 42 486 42 382 q 81 681 42 590 q 187 840 119 771 q 342 947 254 908 q 528 986 431 986 q 674 957 600 986 q 799 851 749 928 l 819 851 l 819 972 m 542 183 q 694 224 625 183 q 806 335 764 265 q 847 486 847 404 q 806 639 847 569 q 694 750 764 708 q 542 792 625 792 q 390 750 460 792 q 280 639 321 708 q 239 486 239 569 q 280 335 239 404 q 390 224 321 265 q 542 183 460 183 m 415 -64 l 638 -64 l 638 -190 l 415 -190 l 415 -64 m 260 1000 l 231 1053 l 526 1201 l 822 1053 l 793 1000 l 540 1128 l 513 1128 l 260 1000 z "},"ầ":{"ha":1054,"x_min":42,"x_max":1013,"o":"m 819 972 l 1013 972 l 1013 0 l 819 0 l 819 122 l 799 122 q 674 16 747 46 q 528 -14 600 -14 q 342 25 431 -14 q 187 133 254 64 q 81 292 119 201 q 42 486 42 382 q 81 681 42 590 q 187 840 119 771 q 342 947 254 908 q 528 986 431 986 q 674 957 600 986 q 799 851 749 928 l 819 851 l 819 972 m 542 183 q 694 224 625 183 q 806 335 764 265 q 847 486 847 404 q 806 639 847 569 q 694 750 764 708 q 542 792 625 792 q 390 750 460 792 q 280 639 321 708 q 239 486 239 569 q 280 335 239 404 q 390 224 321 265 q 542 183 460 183 m 899 1190 l 869 1139 l 569 1279 l 597 1331 l 899 1190 m 260 1000 l 231 1053 l 526 1201 l 822 1053 l 793 1000 l 540 1128 l 513 1128 l 260 1000 z "},"ẩ":{"ha":1054,"x_min":42,"x_max":1013,"o":"m 819 972 l 1013 972 l 1013 0 l 819 0 l 819 122 l 799 122 q 674 16 747 46 q 528 -14 600 -14 q 342 25 431 -14 q 187 133 254 64 q 81 292 119 201 q 42 486 42 382 q 81 681 42 590 q 187 840 119 771 q 342 947 254 908 q 528 986 431 986 q 674 957 600 986 q 799 851 749 928 l 819 851 l 819 972 m 542 183 q 694 224 625 183 q 806 335 764 265 q 847 486 847 404 q 806 639 847 569 q 694 750 764 708 q 542 792 625 792 q 390 750 460 792 q 280 639 321 708 q 239 486 239 569 q 280 335 239 404 q 390 224 321 265 q 542 183 460 183 m 685 1190 q 697 1245 685 1226 q 727 1274 710 1264 q 757 1295 744 1285 q 769 1324 769 1306 q 754 1353 769 1342 q 711 1365 739 1365 q 651 1317 651 1365 l 651 1308 l 590 1308 l 590 1324 q 625 1392 590 1364 q 711 1421 660 1421 q 796 1393 761 1421 q 831 1324 831 1365 q 818 1276 831 1292 q 788 1250 806 1260 q 758 1228 771 1240 q 746 1190 746 1215 l 685 1190 m 260 1000 l 231 1053 l 526 1201 l 822 1053 l 793 1000 l 540 1128 l 513 1128 l 260 1000 z "},"ẫ":{"ha":1054,"x_min":42,"x_max":1013,"o":"m 819 972 l 1013 972 l 1013 0 l 819 0 l 819 122 l 799 122 q 674 16 747 46 q 528 -14 600 -14 q 342 25 431 -14 q 187 133 254 64 q 81 292 119 201 q 42 486 42 382 q 81 681 42 590 q 187 840 119 771 q 342 947 254 908 q 528 986 431 986 q 674 957 600 986 q 799 851 749 928 l 819 851 l 819 972 m 542 183 q 694 224 625 183 q 806 335 764 265 q 847 486 847 404 q 806 639 847 569 q 694 750 764 708 q 542 792 625 792 q 390 750 460 792 q 280 639 321 708 q 239 486 239 569 q 280 335 239 404 q 390 224 321 265 q 542 183 460 183 m 261 1000 l 232 1053 l 528 1201 l 824 1053 l 794 1000 l 542 1128 l 514 1128 l 261 1000 m 269 1231 q 282 1290 269 1256 q 326 1350 294 1324 q 411 1381 357 1376 q 497 1367 460 1385 q 565 1326 533 1349 q 631 1292 597 1304 q 689 1288 669 1279 q 715 1319 708 1297 q 722 1365 722 1340 l 786 1365 q 747 1255 786 1289 q 639 1231 708 1221 q 556 1261 592 1238 q 488 1306 519 1285 q 419 1325 456 1328 q 356 1294 376 1322 q 333 1231 336 1265 l 269 1231 z "},"ä":{"ha":1054,"x_min":42,"x_max":1013,"o":"m 819 972 l 1013 972 l 1013 0 l 819 0 l 819 122 l 799 122 q 674 16 747 46 q 528 -14 600 -14 q 342 25 431 -14 q 187 133 254 64 q 81 292 119 201 q 42 486 42 382 q 81 681 42 590 q 187 840 119 771 q 342 947 254 908 q 528 986 431 986 q 674 957 600 986 q 799 851 749 928 l 819 851 l 819 972 m 542 183 q 694 224 625 183 q 806 335 764 265 q 847 486 847 404 q 806 639 847 569 q 694 750 764 708 q 542 792 625 792 q 390 750 460 792 q 280 639 321 708 q 239 486 239 569 q 280 335 239 404 q 390 224 321 265 q 542 183 460 183 m 361 1174 l 492 1174 l 492 1029 l 361 1029 l 361 1174 m 567 1174 l 697 1174 l 697 1029 l 567 1029 l 567 1174 z "},"ạ":{"ha":1054,"x_min":42,"x_max":1013,"o":"m 819 972 l 1013 972 l 1013 0 l 819 0 l 819 122 l 799 122 q 674 16 747 46 q 528 -14 600 -14 q 342 25 431 -14 q 187 133 254 64 q 81 292 119 201 q 42 486 42 382 q 81 681 42 590 q 187 840 119 771 q 342 947 254 908 q 528 986 431 986 q 674 957 600 986 q 799 851 749 928 l 819 851 l 819 972 m 542 183 q 694 224 625 183 q 806 335 764 265 q 847 486 847 404 q 806 639 847 569 q 694 750 764 708 q 542 792 625 792 q 390 750 460 792 q 280 639 321 708 q 239 486 239 569 q 280 335 239 404 q 390 224 321 265 q 542 183 460 183 m 415 -64 l 638 -64 l 638 -190 l 415 -190 l 415 -64 z "},"à":{"ha":1054,"x_min":42,"x_max":1013,"o":"m 819 972 l 1013 972 l 1013 0 l 819 0 l 819 122 l 799 122 q 674 16 747 46 q 528 -14 600 -14 q 342 25 431 -14 q 187 133 254 64 q 81 292 119 201 q 42 486 42 382 q 81 681 42 590 q 187 840 119 771 q 342 947 254 908 q 528 986 431 986 q 674 957 600 986 q 799 851 749 928 l 819 851 l 819 972 m 542 183 q 694 224 625 183 q 806 335 764 265 q 847 486 847 404 q 806 639 847 569 q 694 750 764 708 q 542 792 625 792 q 390 750 460 792 q 280 639 321 708 q 239 486 239 569 q 280 335 239 404 q 390 224 321 265 q 542 183 460 183 m 778 1088 l 767 1028 l 275 1118 l 286 1178 l 778 1088 z "},"ả":{"ha":1054,"x_min":42,"x_max":1013,"o":"m 819 972 l 1013 972 l 1013 0 l 819 0 l 819 122 l 799 122 q 674 16 747 46 q 528 -14 600 -14 q 342 25 431 -14 q 187 133 254 64 q 81 292 119 201 q 42 486 42 382 q 81 681 42 590 q 187 840 119 771 q 342 947 254 908 q 528 986 431 986 q 674 957 600 986 q 799 851 749 928 l 819 851 l 819 972 m 542 183 q 694 224 625 183 q 806 335 764 265 q 847 486 847 404 q 806 639 847 569 q 694 750 764 708 q 542 792 625 792 q 390 750 460 792 q 280 639 321 708 q 239 486 239 569 q 280 335 239 404 q 390 224 321 265 q 542 183 460 183 m 489 1056 q 508 1110 489 1093 q 554 1134 528 1126 q 600 1149 581 1142 q 619 1178 619 1157 q 588 1215 619 1206 q 528 1224 556 1224 q 467 1214 499 1224 q 435 1175 435 1204 l 435 1164 l 365 1164 l 365 1178 q 413 1257 365 1228 q 528 1286 460 1286 q 642 1257 596 1286 q 689 1178 689 1228 q 670 1123 689 1139 q 627 1101 651 1107 q 584 1087 603 1094 q 565 1056 565 1079 l 489 1056 z "},"ā":{"ha":1054,"x_min":42,"x_max":1013,"o":"m 819 972 l 1013 972 l 1013 0 l 819 0 l 819 122 l 799 122 q 674 16 747 46 q 528 -14 600 -14 q 342 25 431 -14 q 187 133 254 64 q 81 292 119 201 q 42 486 42 382 q 81 681 42 590 q 187 840 119 771 q 342 947 254 908 q 528 986 431 986 q 674 957 600 986 q 799 851 749 928 l 819 851 l 819 972 m 542 183 q 694 224 625 183 q 806 335 764 265 q 847 486 847 404 q 806 639 847 569 q 694 750 764 708 q 542 792 625 792 q 390 750 460 792 q 280 639 321 708 q 239 486 239 569 q 280 335 239 404 q 390 224 321 265 q 542 183 460 183 m 246 1056 l 246 1117 l 808 1117 l 808 1056 l 246 1056 z "},"ą":{"ha":1054,"x_min":42,"x_max":1019,"o":"m 819 972 l 1013 972 l 1013 0 l 819 0 l 819 122 l 799 122 q 674 16 747 46 q 528 -14 600 -14 q 342 25 431 -14 q 187 133 254 64 q 81 292 119 201 q 42 486 42 382 q 81 681 42 590 q 187 840 119 771 q 342 947 254 908 q 528 986 431 986 q 674 957 600 986 q 799 851 749 928 l 819 851 l 819 972 m 542 183 q 694 224 625 183 q 806 335 764 265 q 847 486 847 404 q 806 639 847 569 q 694 750 764 708 q 542 792 625 792 q 390 750 460 792 q 280 639 321 708 q 239 486 239 569 q 280 335 239 404 q 390 224 321 265 q 542 183 460 183 m 925 0 q 913 -58 925 -37 q 886 -90 900 -78 q 868 -122 872 -103 q 876 -164 863 -146 q 914 -182 889 -182 q 961 -158 944 -182 q 963 -87 978 -135 l 1006 -82 q 1010 -153 1019 -118 q 976 -210 1001 -187 q 914 -232 951 -232 q 844 -201 869 -232 q 819 -139 819 -171 q 828 -94 819 -111 q 850 -65 838 -78 q 872 -38 863 -53 q 881 0 881 -24 l 925 0 z "},"å":{"ha":1054,"x_min":42,"x_max":1013,"o":"m 819 972 l 1013 972 l 1013 0 l 819 0 l 819 122 l 799 122 q 674 16 747 46 q 528 -14 600 -14 q 342 25 431 -14 q 187 133 254 64 q 81 292 119 201 q 42 486 42 382 q 81 681 42 590 q 187 840 119 771 q 342 947 254 908 q 528 986 431 986 q 674 957 600 986 q 799 851 749 928 l 819 851 l 819 972 m 542 183 q 694 224 625 183 q 806 335 764 265 q 847 486 847 404 q 806 639 847 569 q 694 750 764 708 q 542 792 625 792 q 390 750 460 792 q 280 639 321 708 q 239 486 239 569 q 280 335 239 404 q 390 224 321 265 q 542 183 460 183 m 528 1056 q 447 1090 481 1056 q 413 1171 413 1124 q 447 1253 413 1219 q 528 1286 481 1286 q 610 1253 576 1286 q 643 1171 643 1219 q 610 1090 643 1124 q 528 1056 576 1056 m 526 1104 q 576 1123 557 1104 q 594 1169 594 1142 q 576 1219 594 1200 q 526 1238 557 1238 q 480 1219 499 1238 q 461 1169 461 1200 q 480 1123 461 1142 q 526 1104 499 1104 z "},"ã":{"ha":1054,"x_min":42,"x_max":1013,"o":"m 819 972 l 1013 972 l 1013 0 l 819 0 l 819 122 l 799 122 q 674 16 747 46 q 528 -14 600 -14 q 342 25 431 -14 q 187 133 254 64 q 81 292 119 201 q 42 486 42 382 q 81 681 42 590 q 187 840 119 771 q 342 947 254 908 q 528 986 431 986 q 674 957 600 986 q 799 851 749 928 l 819 851 l 819 972 m 542 183 q 694 224 625 183 q 806 335 764 265 q 847 486 847 404 q 806 639 847 569 q 694 750 764 708 q 542 792 625 792 q 390 750 460 792 q 280 639 321 708 q 239 486 239 569 q 280 335 239 404 q 390 224 321 265 q 542 183 460 183 m 268 1039 q 281 1098 268 1064 q 324 1158 293 1132 q 410 1189 356 1185 q 495 1175 458 1193 q 564 1135 532 1157 q 629 1100 596 1113 q 688 1097 668 1088 q 714 1127 707 1106 q 721 1174 721 1149 l 785 1174 q 746 1063 785 1097 q 638 1039 707 1029 q 554 1069 590 1046 q 486 1115 518 1093 q 418 1133 454 1136 q 355 1102 375 1131 q 332 1039 335 1074 l 268 1039 z "},"æ":{"ha":850,"x_min":42,"x_max":808,"o":"m 260 -14 q 144 19 193 -14 q 68 106 94 51 q 42 229 42 161 l 42 365 q 74 488 42 432 q 163 576 107 543 q 285 608 218 608 l 322 608 l 322 786 q 311 812 322 801 q 285 822 300 822 q 260 812 271 822 q 249 786 249 801 l 249 644 l 42 644 l 42 743 q 74 866 42 811 q 163 953 107 921 q 285 986 218 986 q 425 942 363 986 q 565 986 488 986 q 688 953 632 986 q 776 866 743 921 q 808 743 808 811 l 808 432 l 529 432 l 529 215 q 540 190 529 201 q 565 179 550 179 q 590 190 581 179 q 600 215 600 201 l 600 361 l 808 361 l 808 214 q 772 99 806 150 q 684 17 738 47 q 565 -14 631 -14 q 476 3 518 -14 q 403 49 435 19 l 368 49 q 322 2 354 18 q 260 -14 290 -14 m 529 626 l 600 626 l 600 771 q 590 796 600 786 q 565 806 581 806 q 540 796 550 806 q 529 771 529 786 l 529 626 m 285 179 q 311 190 300 179 q 322 215 322 200 l 322 400 l 285 400 q 260 390 271 400 q 249 364 249 379 l 249 215 q 260 190 249 200 q 285 179 271 179 z "},"b":{"ha":569,"x_min":42,"x_max":528,"o":"m 42 0 l 42 972 l 285 972 q 408 941 353 972 q 495 857 463 910 q 528 736 528 804 q 513 662 528 700 q 469 594 497 624 q 403 554 442 565 l 403 540 q 494 468 460 518 q 528 365 528 418 l 528 243 q 495 120 528 175 q 408 33 463 65 q 285 0 353 0 l 42 0 m 249 668 l 265 668 q 303 685 288 668 q 319 729 319 703 q 303 774 319 756 q 265 792 288 792 l 249 792 l 249 668 m 249 179 l 258 179 q 301 207 283 179 q 319 274 319 235 l 319 338 q 301 405 319 378 q 258 432 283 432 l 249 432 l 249 179 z "},"c":{"ha":583,"x_min":49,"x_max":535,"o":"m 292 -14 q 169 19 225 -14 q 81 106 114 51 q 49 229 49 161 l 49 743 q 81 866 49 811 q 169 953 114 921 q 292 986 225 986 q 415 953 360 986 q 502 866 469 921 q 535 743 535 811 l 535 590 l 329 590 l 329 756 q 318 781 329 771 q 292 792 307 792 q 267 781 278 792 q 256 756 256 771 l 256 215 q 267 190 256 201 q 292 179 278 179 q 318 190 307 179 q 329 215 329 201 l 329 382 l 535 382 l 535 229 q 502 106 535 161 q 415 19 469 51 q 292 -14 360 -14 z "},"ć":{"ha":1074,"x_min":42,"x_max":1032,"o":"m 843 382 l 1032 382 q 979 235 1018 306 q 877 108 940 164 q 730 19 814 51 q 542 -14 646 -14 q 341 24 432 -14 q 183 130 250 63 q 78 289 115 197 q 42 486 42 381 q 78 684 42 593 q 183 842 115 775 q 341 948 250 910 q 542 986 432 986 q 766 938 664 986 q 938 800 868 889 q 1032 590 1008 711 l 843 590 q 733 746 813 686 q 542 806 653 806 q 376 764 449 806 q 263 650 304 722 q 222 486 222 578 q 263 324 222 396 q 376 211 304 253 q 542 169 449 169 q 733 228 653 169 q 843 382 813 288 m 286 1088 l 778 1178 l 789 1118 l 297 1028 l 286 1088 z "},"č":{"ha":1074,"x_min":42,"x_max":1032,"o":"m 843 382 l 1032 382 q 979 235 1018 306 q 877 108 940 164 q 730 19 814 51 q 542 -14 646 -14 q 341 24 432 -14 q 183 130 250 63 q 78 289 115 197 q 42 486 42 381 q 78 684 42 593 q 183 842 115 775 q 341 948 250 910 q 542 986 432 986 q 766 938 664 986 q 938 800 868 889 q 1032 590 1008 711 l 843 590 q 733 746 813 686 q 542 806 653 806 q 376 764 449 806 q 263 650 304 722 q 222 486 222 578 q 263 324 222 396 q 376 211 304 253 q 542 169 449 169 q 733 228 653 169 q 843 382 813 288 m 269 1225 l 522 1097 l 550 1097 l 803 1225 l 832 1172 l 536 1024 l 240 1172 l 269 1225 z "},"ç":{"ha":1074,"x_min":42,"x_max":1032,"o":"m 843 382 l 1032 382 q 979 235 1018 306 q 877 108 940 164 q 730 19 814 51 q 542 -14 646 -14 q 341 24 432 -14 q 183 130 250 63 q 78 289 115 197 q 42 486 42 381 q 78 684 42 593 q 183 842 115 775 q 341 948 250 910 q 542 986 432 986 q 766 938 664 986 q 938 800 868 889 q 1032 590 1008 711 l 843 590 q 733 746 813 686 q 542 806 653 806 q 376 764 449 806 q 263 650 304 722 q 222 486 222 578 q 263 324 222 396 q 376 211 304 253 q 542 169 449 169 q 733 228 653 169 q 843 382 813 288 m 529 0 l 574 0 q 583 -38 574 -24 q 604 -65 592 -53 q 626 -94 617 -78 q 635 -139 635 -111 q 610 -201 635 -171 q 540 -232 585 -232 q 478 -210 503 -232 q 444 -153 453 -187 q 449 -82 436 -118 l 492 -87 q 494 -158 478 -135 q 540 -182 510 -182 q 578 -164 565 -182 q 586 -122 592 -146 q 568 -90 582 -103 q 542 -58 554 -78 q 529 0 529 -37 z "},"ċ":{"ha":1074,"x_min":42,"x_max":1032,"o":"m 843 382 l 1032 382 q 979 235 1018 306 q 877 108 940 164 q 730 19 814 51 q 542 -14 646 -14 q 341 24 432 -14 q 183 130 250 63 q 78 289 115 197 q 42 486 42 381 q 78 684 42 593 q 183 842 115 775 q 341 948 250 910 q 542 986 432 986 q 766 938 664 986 q 938 800 868 889 q 1032 590 1008 711 l 843 590 q 733 746 813 686 q 542 806 653 806 q 376 764 449 806 q 263 650 304 722 q 222 486 222 578 q 263 324 222 396 q 376 211 304 253 q 542 169 449 169 q 733 228 653 169 q 843 382 813 288 m 474 1201 l 604 1201 l 604 1057 l 474 1057 l 474 1201 z "},"d":{"ha":575,"x_min":42,"x_max":528,"o":"m 42 0 l 42 972 l 285 972 q 408 940 353 972 q 495 852 463 907 q 528 729 528 797 l 528 243 q 495 120 528 175 q 408 33 463 65 q 285 0 353 0 l 42 0 m 249 179 l 288 179 q 310 189 301 179 q 319 211 319 199 l 319 760 q 310 782 319 772 q 288 792 301 792 l 249 792 l 249 179 z "},"ď":{"ha":933,"x_min":42,"x_max":892,"o":"m 154 1225 l 407 1097 l 435 1097 l 688 1225 l 717 1172 l 421 1024 l 125 1172 l 154 1225 m 42 0 l 42 972 l 406 972 q 594 935 506 972 q 749 830 682 897 q 854 674 817 763 q 892 486 892 586 q 854 298 892 386 q 749 142 817 210 q 594 38 682 75 q 406 0 506 0 l 42 0 m 246 182 l 382 182 q 535 223 467 182 q 645 333 604 264 q 686 486 686 403 q 645 640 686 571 q 535 750 604 708 q 382 792 467 792 l 246 792 l 246 182 z "},"đ":{"ha":1056,"x_min":42,"x_max":1014,"o":"m 164 0 l 164 438 l 42 438 l 42 535 l 164 535 l 164 972 l 528 972 q 716 935 628 972 q 872 830 804 897 q 976 674 939 763 q 1014 486 1014 586 q 976 298 1014 386 q 872 142 939 210 q 716 38 804 75 q 528 0 628 0 l 164 0 m 365 182 l 501 182 q 655 223 586 182 q 765 333 724 264 q 806 486 806 403 q 765 640 806 571 q 655 750 724 708 q 501 792 586 792 l 365 792 l 365 535 l 538 535 l 538 438 l 365 438 l 365 182 z "},"ð":{"ha":1056,"x_min":42,"x_max":1014,"o":"m 164 0 l 164 438 l 42 438 l 42 535 l 164 535 l 164 972 l 528 972 q 716 935 628 972 q 872 830 804 897 q 976 674 939 763 q 1014 486 1014 586 q 976 298 1014 386 q 872 142 939 210 q 716 38 804 75 q 528 0 628 0 l 164 0 m 365 182 l 501 182 q 655 223 586 182 q 765 333 724 264 q 806 486 806 403 q 765 640 806 571 q 655 750 724 708 q 501 792 586 792 l 365 792 l 365 535 l 538 535 l 538 438 l 365 438 l 365 182 z "},"e":{"ha":569,"x_min":42,"x_max":528,"o":"m 285 -14 q 163 19 218 -14 q 74 106 107 51 q 42 229 42 161 l 42 743 q 74 866 42 811 q 163 953 107 921 q 285 986 218 986 q 407 953 351 986 q 495 866 463 921 q 528 743 528 811 l 528 432 l 249 432 l 249 215 q 259 190 249 201 q 285 179 269 179 q 310 190 300 179 q 319 215 319 201 l 319 361 l 528 361 l 528 214 q 491 99 525 150 q 403 17 457 47 q 285 -14 350 -14 m 249 626 l 319 626 l 319 771 q 310 796 319 786 q 285 806 300 806 q 259 796 269 806 q 249 771 249 786 l 249 626 z "},"é":{"ha":1083,"x_min":42,"x_max":1042,"o":"m 1042 486 l 1042 375 l 240 375 q 293 279 254 326 q 394 201 332 232 q 542 169 457 169 q 702 210 638 169 q 797 293 767 250 l 1003 293 l 1003 272 q 888 117 960 182 q 728 19 817 53 q 542 -14 639 -14 q 347 22 438 -14 q 188 125 257 58 q 81 283 119 192 q 42 486 42 375 q 81 692 42 600 q 190 849 121 783 q 349 951 258 915 q 542 986 440 986 q 735 951 644 986 q 894 851 825 917 q 1003 693 964 785 q 1042 486 1042 601 m 236 593 l 844 593 q 785 697 826 647 q 682 777 743 746 q 542 808 621 808 q 399 776 461 808 q 296 695 336 744 q 236 593 256 646 m 290 1088 l 782 1178 l 793 1118 l 301 1028 l 290 1088 z "},"ě":{"ha":1083,"x_min":42,"x_max":1042,"o":"m 1042 486 l 1042 375 l 240 375 q 293 279 254 326 q 394 201 332 232 q 542 169 457 169 q 702 210 638 169 q 797 293 767 250 l 1003 293 l 1003 272 q 888 117 960 182 q 728 19 817 53 q 542 -14 639 -14 q 347 22 438 -14 q 188 125 257 58 q 81 283 119 192 q 42 486 42 375 q 81 692 42 600 q 190 849 121 783 q 349 951 258 915 q 542 986 440 986 q 735 951 644 986 q 894 851 825 917 q 1003 693 964 785 q 1042 486 1042 601 m 236 593 l 844 593 q 785 697 826 647 q 682 777 743 746 q 542 808 621 808 q 399 776 461 808 q 296 695 336 744 q 236 593 256 646 m 275 1225 l 528 1097 l 556 1097 l 808 1225 l 838 1172 l 542 1024 l 246 1172 l 275 1225 z "},"ê":{"ha":1083,"x_min":42,"x_max":1042,"o":"m 1042 486 l 1042 375 l 240 375 q 293 279 254 326 q 394 201 332 232 q 542 169 457 169 q 702 210 638 169 q 797 293 767 250 l 1003 293 l 1003 272 q 888 117 960 182 q 728 19 817 53 q 542 -14 639 -14 q 347 22 438 -14 q 188 125 257 58 q 81 283 119 192 q 42 486 42 375 q 81 692 42 600 q 190 849 121 783 q 349 951 258 915 q 542 986 440 986 q 735 951 644 986 q 894 851 825 917 q 1003 693 964 785 q 1042 486 1042 601 m 236 593 l 844 593 q 785 697 826 647 q 682 777 743 746 q 542 808 621 808 q 399 776 461 808 q 296 695 336 744 q 236 593 256 646 m 275 1000 l 246 1053 l 542 1201 l 838 1053 l 808 1000 l 556 1128 l 528 1128 l 275 1000 z "},"ế":{"ha":1083,"x_min":42,"x_max":1094,"o":"m 1042 486 l 1042 375 l 240 375 q 293 279 254 326 q 394 201 332 232 q 542 169 457 169 q 702 210 638 169 q 797 293 767 250 l 1003 293 l 1003 272 q 888 117 960 182 q 728 19 817 53 q 542 -14 639 -14 q 347 22 438 -14 q 188 125 257 58 q 81 283 119 192 q 42 486 42 375 q 81 692 42 600 q 190 849 121 783 q 349 951 258 915 q 542 986 440 986 q 735 951 644 986 q 894 851 825 917 q 1003 693 964 785 q 1042 486 1042 601 m 236 593 l 844 593 q 785 697 826 647 q 682 777 743 746 q 542 808 621 808 q 399 776 461 808 q 296 695 336 744 q 236 593 256 646 m 765 1200 l 1068 1342 l 1094 1289 l 796 1150 l 765 1200 m 275 1000 l 246 1053 l 542 1201 l 838 1053 l 808 1000 l 556 1128 l 528 1128 l 275 1000 z "},"ệ":{"ha":1083,"x_min":42,"x_max":1042,"o":"m 1042 486 l 1042 375 l 240 375 q 293 279 254 326 q 394 201 332 232 q 542 169 457 169 q 702 210 638 169 q 797 293 767 250 l 1003 293 l 1003 272 q 888 117 960 182 q 728 19 817 53 q 542 -14 639 -14 q 347 22 438 -14 q 188 125 257 58 q 81 283 119 192 q 42 486 42 375 q 81 692 42 600 q 190 849 121 783 q 349 951 258 915 q 542 986 440 986 q 735 951 644 986 q 894 851 825 917 q 1003 693 964 785 q 1042 486 1042 601 m 236 593 l 844 593 q 785 697 826 647 q 682 777 743 746 q 542 808 621 808 q 399 776 461 808 q 296 695 336 744 q 236 593 256 646 m 431 -64 l 653 -64 l 653 -190 l 431 -190 l 431 -64 m 275 1000 l 246 1053 l 542 1201 l 838 1053 l 808 1000 l 556 1128 l 528 1128 l 275 1000 z "},"ề":{"ha":1083,"x_min":42,"x_max":1042,"o":"m 1042 486 l 1042 375 l 240 375 q 293 279 254 326 q 394 201 332 232 q 542 169 457 169 q 702 210 638 169 q 797 293 767 250 l 1003 293 l 1003 272 q 888 117 960 182 q 728 19 817 53 q 542 -14 639 -14 q 347 22 438 -14 q 188 125 257 58 q 81 283 119 192 q 42 486 42 375 q 81 692 42 600 q 190 849 121 783 q 349 951 258 915 q 542 986 440 986 q 735 951 644 986 q 894 851 825 917 q 1003 693 964 785 q 1042 486 1042 601 m 236 593 l 844 593 q 785 697 826 647 q 682 777 743 746 q 542 808 621 808 q 399 776 461 808 q 296 695 336 744 q 236 593 256 646 m 914 1190 l 885 1139 l 585 1279 l 613 1331 l 914 1190 m 275 1000 l 246 1053 l 542 1201 l 838 1053 l 808 1000 l 556 1128 l 528 1128 l 275 1000 z "},"ể":{"ha":1083,"x_min":42,"x_max":1042,"o":"m 1042 486 l 1042 375 l 240 375 q 293 279 254 326 q 394 201 332 232 q 542 169 457 169 q 702 210 638 169 q 797 293 767 250 l 1003 293 l 1003 272 q 888 117 960 182 q 728 19 817 53 q 542 -14 639 -14 q 347 22 438 -14 q 188 125 257 58 q 81 283 119 192 q 42 486 42 375 q 81 692 42 600 q 190 849 121 783 q 349 951 258 915 q 542 986 440 986 q 735 951 644 986 q 894 851 825 917 q 1003 693 964 785 q 1042 486 1042 601 m 236 593 l 844 593 q 785 697 826 647 q 682 777 743 746 q 542 808 621 808 q 399 776 461 808 q 296 695 336 744 q 236 593 256 646 m 700 1190 q 713 1245 700 1226 q 742 1274 725 1264 q 772 1295 760 1285 q 785 1324 785 1306 q 769 1353 785 1342 q 726 1365 754 1365 q 667 1317 667 1365 l 667 1308 l 606 1308 l 606 1324 q 640 1392 606 1364 q 726 1421 675 1421 q 811 1393 776 1421 q 846 1324 846 1365 q 833 1276 846 1292 q 803 1250 821 1260 q 774 1228 786 1240 q 761 1190 761 1215 l 700 1190 m 275 1000 l 246 1053 l 542 1201 l 838 1053 l 808 1000 l 556 1128 l 528 1128 l 275 1000 z "},"ễ":{"ha":1083,"x_min":42,"x_max":1042,"o":"m 1042 486 l 1042 375 l 240 375 q 293 279 254 326 q 394 201 332 232 q 542 169 457 169 q 702 210 638 169 q 797 293 767 250 l 1003 293 l 1003 272 q 888 117 960 182 q 728 19 817 53 q 542 -14 639 -14 q 347 22 438 -14 q 188 125 257 58 q 81 283 119 192 q 42 486 42 375 q 81 692 42 600 q 190 849 121 783 q 349 951 258 915 q 542 986 440 986 q 735 951 644 986 q 894 851 825 917 q 1003 693 964 785 q 1042 486 1042 601 m 236 593 l 844 593 q 785 697 826 647 q 682 777 743 746 q 542 808 621 808 q 399 776 461 808 q 296 695 336 744 q 236 593 256 646 m 275 1000 l 246 1053 l 542 1201 l 838 1053 l 808 1000 l 556 1128 l 528 1128 l 275 1000 m 283 1231 q 296 1290 283 1256 q 340 1350 308 1324 q 425 1381 371 1376 q 510 1367 474 1385 q 579 1326 547 1349 q 644 1292 611 1304 q 703 1288 683 1279 q 729 1319 722 1297 q 736 1365 736 1340 l 800 1365 q 761 1255 800 1289 q 653 1231 722 1221 q 569 1261 606 1238 q 501 1306 533 1285 q 433 1325 469 1328 q 370 1294 390 1322 q 347 1231 350 1265 l 283 1231 z "},"ë":{"ha":1083,"x_min":42,"x_max":1042,"o":"m 1042 486 l 1042 375 l 240 375 q 293 279 254 326 q 394 201 332 232 q 542 169 457 169 q 702 210 638 169 q 797 293 767 250 l 1003 293 l 1003 272 q 888 117 960 182 q 728 19 817 53 q 542 -14 639 -14 q 347 22 438 -14 q 188 125 257 58 q 81 283 119 192 q 42 486 42 375 q 81 692 42 600 q 190 849 121 783 q 349 951 258 915 q 542 986 440 986 q 735 951 644 986 q 894 851 825 917 q 1003 693 964 785 q 1042 486 1042 601 m 236 593 l 844 593 q 785 697 826 647 q 682 777 743 746 q 542 808 621 808 q 399 776 461 808 q 296 695 336 744 q 236 593 256 646 m 376 1201 l 507 1201 l 507 1057 l 376 1057 l 376 1201 m 582 1201 l 713 1201 l 713 1057 l 582 1057 l 582 1201 z "},"ė":{"ha":1083,"x_min":42,"x_max":1042,"o":"m 1042 486 l 1042 375 l 240 375 q 293 279 254 326 q 394 201 332 232 q 542 169 457 169 q 702 210 638 169 q 797 293 767 250 l 1003 293 l 1003 272 q 888 117 960 182 q 728 19 817 53 q 542 -14 639 -14 q 347 22 438 -14 q 188 125 257 58 q 81 283 119 192 q 42 486 42 375 q 81 692 42 600 q 190 849 121 783 q 349 951 258 915 q 542 986 440 986 q 735 951 644 986 q 894 851 825 917 q 1003 693 964 785 q 1042 486 1042 601 m 236 593 l 844 593 q 785 697 826 647 q 682 777 743 746 q 542 808 621 808 q 399 776 461 808 q 296 695 336 744 q 236 593 256 646 m 479 1201 l 610 1201 l 610 1057 l 479 1057 l 479 1201 z "},"ẹ":{"ha":1083,"x_min":42,"x_max":1042,"o":"m 1042 486 l 1042 375 l 240 375 q 293 279 254 326 q 394 201 332 232 q 542 169 457 169 q 702 210 638 169 q 797 293 767 250 l 1003 293 l 1003 272 q 888 117 960 182 q 728 19 817 53 q 542 -14 639 -14 q 347 22 438 -14 q 188 125 257 58 q 81 283 119 192 q 42 486 42 375 q 81 692 42 600 q 190 849 121 783 q 349 951 258 915 q 542 986 440 986 q 735 951 644 986 q 894 851 825 917 q 1003 693 964 785 q 1042 486 1042 601 m 236 593 l 844 593 q 785 697 826 647 q 682 777 743 746 q 542 808 621 808 q 399 776 461 808 q 296 695 336 744 q 236 593 256 646 m 431 -64 l 653 -64 l 653 -190 l 431 -190 l 431 -64 z "},"è":{"ha":1083,"x_min":42,"x_max":1042,"o":"m 1042 486 l 1042 375 l 240 375 q 293 279 254 326 q 394 201 332 232 q 542 169 457 169 q 702 210 638 169 q 797 293 767 250 l 1003 293 l 1003 272 q 888 117 960 182 q 728 19 817 53 q 542 -14 639 -14 q 347 22 438 -14 q 188 125 257 58 q 81 283 119 192 q 42 486 42 375 q 81 692 42 600 q 190 849 121 783 q 349 951 258 915 q 542 986 440 986 q 735 951 644 986 q 894 851 825 917 q 1003 693 964 785 q 1042 486 1042 601 m 236 593 l 844 593 q 785 697 826 647 q 682 777 743 746 q 542 808 621 808 q 399 776 461 808 q 296 695 336 744 q 236 593 256 646 m 793 1088 l 782 1028 l 290 1118 l 301 1178 l 793 1088 z "},"ẻ":{"ha":1083,"x_min":42,"x_max":1042,"o":"m 1042 486 l 1042 375 l 240 375 q 293 279 254 326 q 394 201 332 232 q 542 169 457 169 q 702 210 638 169 q 797 293 767 250 l 1003 293 l 1003 272 q 888 117 960 182 q 728 19 817 53 q 542 -14 639 -14 q 347 22 438 -14 q 188 125 257 58 q 81 283 119 192 q 42 486 42 375 q 81 692 42 600 q 190 849 121 783 q 349 951 258 915 q 542 986 440 986 q 735 951 644 986 q 894 851 825 917 q 1003 693 964 785 q 1042 486 1042 601 m 236 593 l 844 593 q 785 697 826 647 q 682 777 743 746 q 542 808 621 808 q 399 776 461 808 q 296 695 336 744 q 236 593 256 646 m 504 1056 q 524 1110 504 1093 q 569 1134 543 1126 q 615 1149 596 1142 q 635 1178 635 1157 q 603 1215 635 1206 q 543 1224 571 1224 q 482 1214 514 1224 q 450 1175 450 1204 l 450 1164 l 381 1164 l 381 1178 q 428 1257 381 1228 q 543 1286 475 1286 q 658 1257 611 1286 q 704 1178 704 1228 q 685 1123 704 1139 q 642 1101 667 1107 q 599 1087 618 1094 q 581 1056 581 1079 l 504 1056 z "},"ē":{"ha":1083,"x_min":42,"x_max":1042,"o":"m 1042 486 l 1042 375 l 240 375 q 293 279 254 326 q 394 201 332 232 q 542 169 457 169 q 702 210 638 169 q 797 293 767 250 l 1003 293 l 1003 272 q 888 117 960 182 q 728 19 817 53 q 542 -14 639 -14 q 347 22 438 -14 q 188 125 257 58 q 81 283 119 192 q 42 486 42 375 q 81 692 42 600 q 190 849 121 783 q 349 951 258 915 q 542 986 440 986 q 735 951 644 986 q 894 851 825 917 q 1003 693 964 785 q 1042 486 1042 601 m 236 593 l 844 593 q 785 697 826 647 q 682 777 743 746 q 542 808 621 808 q 399 776 461 808 q 296 695 336 744 q 236 593 256 646 m 260 1056 l 260 1117 l 822 1117 l 822 1056 l 260 1056 z "},"ę":{"ha":1083,"x_min":42,"x_max":1042,"o":"m 1042 486 l 1042 375 l 240 375 q 293 279 254 326 q 394 201 332 232 q 542 169 457 169 q 702 210 638 169 q 797 293 767 250 l 1003 293 l 1003 272 q 888 117 960 182 q 728 19 817 53 q 542 -14 639 -14 q 347 22 438 -14 q 188 125 257 58 q 81 283 119 192 q 42 486 42 375 q 81 692 42 600 q 190 849 121 783 q 349 951 258 915 q 542 986 440 986 q 735 951 644 986 q 894 851 825 917 q 1003 693 964 785 q 1042 486 1042 601 m 236 593 l 844 593 q 785 697 826 647 q 682 777 743 746 q 542 808 621 808 q 399 776 461 808 q 296 695 336 744 q 236 593 256 646 m 574 0 q 561 -58 574 -37 q 535 -90 549 -78 q 517 -122 521 -103 q 524 -164 511 -146 q 563 -182 538 -182 q 610 -158 593 -182 q 611 -87 626 -135 l 654 -82 q 659 -153 668 -118 q 625 -210 650 -187 q 563 -232 600 -232 q 493 -201 518 -232 q 468 -139 468 -171 q 477 -94 468 -111 q 499 -65 486 -78 q 520 -38 511 -53 q 529 0 529 -24 l 574 0 z "},"ẽ":{"ha":1083,"x_min":42,"x_max":1042,"o":"m 1042 486 l 1042 375 l 240 375 q 293 279 254 326 q 394 201 332 232 q 542 169 457 169 q 702 210 638 169 q 797 293 767 250 l 1003 293 l 1003 272 q 888 117 960 182 q 728 19 817 53 q 542 -14 639 -14 q 347 22 438 -14 q 188 125 257 58 q 81 283 119 192 q 42 486 42 375 q 81 692 42 600 q 190 849 121 783 q 349 951 258 915 q 542 986 440 986 q 735 951 644 986 q 894 851 825 917 q 1003 693 964 785 q 1042 486 1042 601 m 236 593 l 844 593 q 785 697 826 647 q 682 777 743 746 q 542 808 621 808 q 399 776 461 808 q 296 695 336 744 q 236 593 256 646 m 283 1039 q 296 1098 283 1064 q 340 1158 308 1132 q 425 1189 371 1185 q 510 1175 474 1193 q 579 1135 547 1157 q 644 1100 611 1113 q 703 1097 683 1088 q 729 1127 722 1106 q 736 1174 736 1149 l 800 1174 q 761 1063 800 1097 q 653 1039 722 1029 q 569 1069 606 1046 q 501 1115 533 1093 q 433 1133 469 1136 q 370 1102 390 1131 q 347 1039 350 1074 l 283 1039 z "},"f":{"ha":472,"x_min":42,"x_max":431,"o":"m 42 0 l 42 972 l 431 972 l 431 764 l 249 764 l 249 590 l 369 590 l 369 382 l 249 382 l 249 0 l 42 0 z "},"g":{"ha":646,"x_min":42,"x_max":604,"o":"m 249 -14 q 135 19 182 -14 q 65 106 89 51 q 42 229 42 161 l 42 743 q 67 838 42 793 q 133 915 92 882 q 224 967 174 949 q 324 986 274 986 q 456 953 392 986 q 562 866 519 921 q 604 743 604 811 l 604 644 l 399 644 l 399 722 q 374 773 399 754 q 324 792 350 792 q 273 773 297 792 q 249 722 249 754 l 249 257 q 275 203 249 226 q 332 179 301 179 q 390 203 364 179 q 417 257 417 226 l 417 346 l 322 346 l 322 540 l 604 540 l 604 0 l 417 0 l 417 49 l 396 49 q 363 17 389 31 q 306 -6 338 3 q 249 -14 275 -14 z "},"ğ":{"ha":1074,"x_min":42,"x_max":1032,"o":"m 542 486 l 1032 486 l 1032 21 l 843 21 l 843 122 l 829 122 q 777 64 811 96 q 686 9 743 32 q 542 -14 629 -14 q 341 24 432 -14 q 183 130 250 63 q 78 289 115 197 q 42 486 42 381 q 78 684 42 593 q 183 842 115 775 q 341 948 250 910 q 542 986 432 986 q 756 942 657 986 q 924 817 854 897 q 1024 625 994 736 l 829 625 q 717 756 793 707 q 542 806 642 806 q 376 764 449 806 q 263 650 304 722 q 222 486 222 578 q 263 324 222 396 q 376 211 304 253 q 542 169 449 169 q 722 211 643 169 q 833 347 801 253 l 542 347 l 542 486 m 538 1028 q 405 1049 465 1028 q 309 1105 344 1069 q 274 1182 274 1140 l 343 1182 q 403 1113 350 1139 q 538 1086 457 1086 q 673 1113 621 1086 q 731 1182 725 1139 l 801 1182 q 766 1105 801 1140 q 671 1049 731 1069 q 538 1028 611 1028 z "},"ģ":{"ha":1074,"x_min":42,"x_max":1032,"o":"m 542 486 l 1032 486 l 1032 21 l 843 21 l 843 122 l 829 122 q 777 64 811 96 q 686 9 743 32 q 542 -14 629 -14 q 341 24 432 -14 q 183 130 250 63 q 78 289 115 197 q 42 486 42 381 q 78 684 42 593 q 183 842 115 775 q 341 948 250 910 q 542 986 432 986 q 756 942 657 986 q 924 817 854 897 q 1024 625 994 736 l 829 625 q 717 756 793 707 q 542 806 642 806 q 376 764 449 806 q 263 650 304 722 q 222 486 222 578 q 263 324 222 396 q 376 211 304 253 q 542 169 449 169 q 722 211 643 169 q 833 347 801 253 l 542 347 l 542 486 m 503 -236 l 503 -64 l 569 -64 l 569 -78 l 544 -236 l 503 -236 z "},"ġ":{"ha":1074,"x_min":42,"x_max":1032,"o":"m 542 486 l 1032 486 l 1032 21 l 843 21 l 843 122 l 829 122 q 777 64 811 96 q 686 9 743 32 q 542 -14 629 -14 q 341 24 432 -14 q 183 130 250 63 q 78 289 115 197 q 42 486 42 381 q 78 684 42 593 q 183 842 115 775 q 341 948 250 910 q 542 986 432 986 q 756 942 657 986 q 924 817 854 897 q 1024 625 994 736 l 829 625 q 717 756 793 707 q 542 806 642 806 q 376 764 449 806 q 263 650 304 722 q 222 486 222 578 q 263 324 222 396 q 376 211 304 253 q 542 169 449 169 q 722 211 643 169 q 833 347 801 253 l 542 347 l 542 486 m 474 1201 l 604 1201 l 604 1057 l 474 1057 l 474 1201 z "},"h":{"ha":569,"x_min":42,"x_max":528,"o":"m 42 0 l 42 972 l 249 972 l 249 590 l 322 590 l 322 972 l 528 972 l 528 0 l 322 0 l 322 382 l 249 382 l 249 0 l 42 0 z "},"ħ":{"ha":1042,"x_min":0,"x_max":1042,"o":"m 83 0 l 83 750 l 0 750 l 0 811 l 83 811 l 83 972 l 290 972 l 290 811 l 753 811 l 753 972 l 958 972 l 958 811 l 1042 811 l 1042 750 l 958 750 l 958 0 l 753 0 l 753 382 l 290 382 l 290 0 l 83 0 m 290 590 l 753 590 l 753 750 l 290 750 l 290 590 z "},"i":{"ha":293,"x_min":42,"x_max":251,"o":"m 42 1014 l 42 1075 l 251 1075 l 251 1014 l 42 1014 m 42 0 l 42 972 l 251 972 l 251 0 l 42 0 z "},"ı":{"ha":293,"x_min":42,"x_max":251,"o":"m 42 0 l 42 972 l 251 972 l 251 0 l 42 0 z "},"í":{"ha":917,"x_min":42,"x_max":875,"o":"m 42 972 l 875 972 l 875 792 l 563 792 l 563 179 l 875 179 l 875 0 l 42 0 l 42 179 l 354 179 l 354 792 l 42 792 l 42 972 m 207 1101 l 699 1192 l 710 1132 l 218 1042 l 207 1101 z "},"î":{"ha":917,"x_min":42,"x_max":875,"o":"m 42 972 l 875 972 l 875 792 l 563 792 l 563 179 l 875 179 l 875 0 l 42 0 l 42 179 l 354 179 l 354 792 l 42 792 l 42 972 m 192 1028 l 163 1081 l 458 1229 l 754 1081 l 725 1028 l 472 1156 l 444 1156 l 192 1028 z "},"ï":{"ha":917,"x_min":42,"x_max":875,"o":"m 42 972 l 875 972 l 875 792 l 563 792 l 563 179 l 875 179 l 875 0 l 42 0 l 42 179 l 354 179 l 354 792 l 42 792 l 42 972 m 293 1201 l 424 1201 l 424 1057 l 293 1057 l 293 1201 m 499 1201 l 629 1201 l 629 1057 l 499 1057 l 499 1201 z "},"ị":{"ha":917,"x_min":42,"x_max":875,"o":"m 42 972 l 875 972 l 875 792 l 563 792 l 563 179 l 875 179 l 875 0 l 42 0 l 42 179 l 354 179 l 354 792 l 42 792 l 42 972 m 347 -64 l 569 -64 l 569 -190 l 347 -190 l 347 -64 z "},"ì":{"ha":917,"x_min":42,"x_max":875,"o":"m 42 972 l 875 972 l 875 792 l 563 792 l 563 179 l 875 179 l 875 0 l 42 0 l 42 179 l 354 179 l 354 792 l 42 792 l 42 972 m 710 1101 l 699 1042 l 207 1132 l 218 1192 l 710 1101 z "},"ỉ":{"ha":917,"x_min":42,"x_max":875,"o":"m 42 972 l 875 972 l 875 792 l 563 792 l 563 179 l 875 179 l 875 0 l 42 0 l 42 179 l 354 179 l 354 792 l 42 792 l 42 972 m 419 1056 q 439 1110 419 1093 q 485 1134 458 1126 q 531 1149 511 1142 q 550 1178 550 1157 q 518 1215 550 1206 q 458 1224 486 1224 q 397 1214 429 1224 q 365 1175 365 1204 l 365 1164 l 296 1164 l 296 1178 q 343 1257 296 1228 q 458 1286 390 1286 q 573 1257 526 1286 q 619 1178 619 1228 q 601 1123 619 1139 q 558 1101 582 1107 q 515 1087 533 1094 q 496 1056 496 1079 l 419 1056 z "},"ī":{"ha":917,"x_min":42,"x_max":875,"o":"m 42 972 l 875 972 l 875 792 l 563 792 l 563 179 l 875 179 l 875 0 l 42 0 l 42 179 l 354 179 l 354 792 l 42 792 l 42 972 m 178 1056 l 178 1117 l 740 1117 l 740 1056 l 178 1056 z "},"į":{"ha":917,"x_min":42,"x_max":875,"o":"m 42 972 l 875 972 l 875 792 l 563 792 l 563 179 l 875 179 l 875 0 l 42 0 l 42 179 l 354 179 l 354 792 l 42 792 l 42 972 m 490 0 q 478 -58 490 -37 q 451 -90 465 -78 q 433 -122 438 -103 q 441 -164 428 -146 q 479 -182 454 -182 q 526 -158 510 -182 q 528 -87 543 -135 l 571 -82 q 576 -153 585 -118 q 542 -210 567 -187 q 479 -232 517 -232 q 410 -201 435 -232 q 385 -139 385 -171 q 394 -94 385 -111 q 415 -65 403 -78 q 437 -38 428 -53 q 446 0 446 -24 l 490 0 z "},"ĩ":{"ha":917,"x_min":42,"x_max":875,"o":"m 42 972 l 875 972 l 875 792 l 563 792 l 563 179 l 875 179 l 875 0 l 42 0 l 42 179 l 354 179 l 354 792 l 42 792 l 42 972 m 200 1056 q 213 1115 200 1081 q 256 1175 225 1149 q 342 1206 288 1201 q 427 1192 390 1210 q 496 1151 464 1174 q 561 1117 528 1129 q 619 1113 600 1104 q 646 1144 639 1122 q 653 1190 653 1165 l 717 1190 q 678 1080 717 1114 q 569 1056 639 1046 q 486 1086 522 1063 q 418 1131 450 1110 q 350 1150 386 1153 q 287 1119 307 1147 q 264 1056 267 1090 l 200 1056 z "},"ĳ":{"ha":569,"x_min":42,"x_max":528,"o":"m 285 -14 q 163 19 218 -14 q 74 106 107 51 q 42 229 42 161 l 42 382 l 249 382 l 249 215 q 260 190 249 201 q 285 179 271 179 q 311 190 300 179 q 322 215 322 201 l 322 972 l 528 972 l 528 229 q 495 106 528 161 q 408 19 463 51 q 285 -14 353 -14 m 42 972 l 249 972 l 249 540 l 42 540 l 42 972 z "},"j":{"ha":569,"x_min":42,"x_max":528,"o":"m 322 1014 l 322 1075 l 528 1075 l 528 1014 l 322 1014 m 285 -14 q 163 19 218 -14 q 74 106 107 51 q 42 229 42 161 l 42 382 l 249 382 l 249 217 q 259 190 249 201 q 285 179 269 179 q 311 190 300 179 q 322 217 322 201 l 322 972 l 528 972 l 528 229 q 495 106 528 161 q 408 19 463 51 q 285 -14 353 -14 z "},"ȷ":{"ha":569,"x_min":42,"x_max":528,"o":"m 322 1014 l 322 1075 l 528 1075 l 528 1014 l 322 1014 m 285 -14 q 163 19 218 -14 q 74 106 107 51 q 42 229 42 161 l 42 382 l 249 382 l 249 217 q 259 190 249 201 q 285 179 269 179 q 311 190 300 179 q 322 217 322 201 l 322 972 l 528 972 l 528 229 q 495 106 528 161 q 408 19 463 51 q 285 -14 353 -14 z "},"k":{"ha":571,"x_min":42,"x_max":528,"o":"m 42 0 l 42 972 l 249 972 l 249 694 l 263 694 l 319 972 l 528 972 l 528 944 l 389 550 l 389 529 l 528 28 l 528 0 l 319 0 l 263 300 l 249 300 l 249 0 l 42 0 z "},"ķ":{"ha":958,"x_min":42,"x_max":917,"o":"m 432 -236 l 432 -64 l 499 -64 l 499 -78 l 474 -236 l 432 -236 m 42 0 l 42 972 l 249 972 l 249 590 l 263 590 l 681 972 l 917 972 l 917 944 l 422 493 l 422 479 l 917 28 l 917 0 l 681 0 l 263 382 l 249 382 l 249 0 l 42 0 z "},"l":{"ha":472,"x_min":42,"x_max":431,"o":"m 42 0 l 42 972 l 249 972 l 249 179 l 431 179 l 431 0 l 42 0 z "},"ĺ":{"ha":958,"x_min":42,"x_max":917,"o":"m 42 0 l 42 972 l 249 972 l 249 179 l 917 179 l 917 0 l 42 0 m 42 1115 l 533 1206 l 544 1146 l 53 1056 l 42 1115 z "},"ľ":{"ha":958,"x_min":42,"x_max":917,"o":"m 346 688 l 332 944 l 332 972 l 401 972 l 401 944 l 389 688 l 346 688 m 42 0 l 42 972 l 249 972 l 249 179 l 917 179 l 917 0 l 42 0 z "},"ļ":{"ha":958,"x_min":42,"x_max":917,"o":"m 42 0 l 42 972 l 249 972 l 249 179 l 917 179 l 917 0 l 42 0 m 382 -236 l 382 -64 l 449 -64 l 449 -78 l 424 -236 l 382 -236 z "},"ł":{"ha":958,"x_min":-92,"x_max":917,"o":"m 42 0 l 42 429 l -92 382 l -92 443 l 42 490 l 42 972 l 249 972 l 249 563 l 382 610 l 382 549 l 249 501 l 249 179 l 917 179 l 917 0 l 42 0 z "},"m":{"ha":775,"x_min":42,"x_max":733,"o":"m 42 0 l 42 972 l 207 972 l 207 924 l 221 924 q 260 968 228 950 q 332 986 293 986 q 404 967 374 986 q 444 924 435 949 l 458 924 q 499 965 472 944 q 582 986 525 986 q 692 940 651 986 q 733 804 733 894 l 733 0 l 529 0 l 529 772 q 523 787 529 781 q 508 793 517 793 q 494 787 500 793 q 488 772 488 781 l 488 0 l 286 0 l 286 769 q 265 792 286 792 q 244 769 244 792 l 244 0 l 42 0 z "},"n":{"ha":569,"x_min":42,"x_max":528,"o":"m 349 986 q 453 953 414 986 q 510 866 493 921 q 528 743 528 811 l 528 0 l 321 0 l 321 757 q 310 783 321 772 q 285 793 300 793 q 260 783 271 793 q 250 757 250 772 l 250 0 l 42 0 l 42 972 l 207 972 l 207 924 l 221 924 q 269 967 232 947 q 349 986 306 986 z "},"ń":{"ha":958,"x_min":42,"x_max":917,"o":"m 542 986 q 740 928 656 986 q 870 774 824 869 q 917 563 917 678 l 917 0 l 710 0 l 710 563 q 649 727 710 661 q 479 793 588 793 q 310 727 371 793 q 249 563 249 661 l 249 0 l 42 0 l 42 972 l 249 972 l 249 851 l 263 851 q 381 951 313 917 q 542 986 449 986 m 228 1088 l 719 1178 l 731 1118 l 239 1028 l 228 1088 z "},"ň":{"ha":958,"x_min":42,"x_max":917,"o":"m 542 986 q 740 928 656 986 q 870 774 824 869 q 917 563 917 678 l 917 0 l 710 0 l 710 563 q 649 727 710 661 q 479 793 588 793 q 310 727 371 793 q 249 563 249 661 l 249 0 l 42 0 l 42 972 l 249 972 l 249 851 l 263 851 q 381 951 313 917 q 542 986 449 986 m 213 1225 l 465 1097 l 493 1097 l 746 1225 l 775 1172 l 479 1024 l 183 1172 l 213 1225 z "},"ņ":{"ha":958,"x_min":42,"x_max":917,"o":"m 542 986 q 740 928 656 986 q 870 774 824 869 q 917 563 917 678 l 917 0 l 710 0 l 710 563 q 649 727 710 661 q 479 793 588 793 q 310 727 371 793 q 249 563 249 661 l 249 0 l 42 0 l 42 972 l 249 972 l 249 851 l 263 851 q 381 951 313 917 q 542 986 449 986 m 446 -236 l 446 -64 l 513 -64 l 513 -78 l 488 -236 l 446 -236 z "},"ñ":{"ha":958,"x_min":42,"x_max":917,"o":"m 542 986 q 740 928 656 986 q 870 774 824 869 q 917 563 917 678 l 917 0 l 710 0 l 710 563 q 649 727 710 661 q 479 793 588 793 q 310 727 371 793 q 249 563 249 661 l 249 0 l 42 0 l 42 972 l 249 972 l 249 851 l 263 851 q 381 951 313 917 q 542 986 449 986 m 269 1039 q 282 1098 269 1064 q 326 1158 294 1132 q 411 1189 357 1185 q 497 1175 460 1193 q 565 1135 533 1157 q 631 1100 597 1113 q 689 1097 669 1088 q 715 1127 708 1106 q 722 1174 722 1149 l 786 1174 q 747 1063 786 1097 q 639 1039 708 1029 q 556 1069 592 1046 q 488 1115 519 1093 q 419 1133 456 1136 q 356 1102 376 1131 q 333 1039 336 1074 l 269 1039 z "},"ŋ":{"ha":958,"x_min":42,"x_max":917,"o":"m 674 -278 l 572 -278 l 586 -85 l 672 -85 q 699 -74 688 -85 q 710 -47 710 -62 l 710 563 q 649 727 710 661 q 479 793 588 793 q 310 727 371 793 q 249 563 249 661 l 249 0 l 42 0 l 42 972 l 249 972 l 249 851 l 263 851 q 381 951 313 917 q 542 986 449 986 q 740 928 656 986 q 870 774 824 869 q 917 563 917 678 l 917 -35 q 884 -157 917 -101 q 797 -245 851 -212 q 674 -278 742 -278 z "},"o":{"ha":571,"x_min":42,"x_max":528,"o":"m 285 -14 q 163 19 218 -14 q 74 106 107 51 q 42 229 42 161 l 42 743 q 74 866 42 811 q 163 953 107 921 q 285 986 218 986 q 407 953 351 986 q 495 866 463 921 q 528 743 528 811 l 528 229 q 495 106 528 161 q 407 19 463 51 q 285 -14 351 -14 m 285 169 q 310 180 300 169 q 319 204 319 190 l 319 769 q 310 795 319 785 q 285 806 300 806 q 259 795 269 806 q 249 769 249 785 l 249 204 q 259 180 249 190 q 285 169 269 169 z "},"ó":{"ha":1083,"x_min":42,"x_max":1042,"o":"m 542 986 q 742 948 650 986 q 901 842 833 910 q 1005 684 968 775 q 1042 486 1042 593 q 1005 289 1042 381 q 901 130 968 197 q 742 24 833 63 q 542 -14 650 -14 q 341 24 432 -14 q 183 130 250 63 q 78 289 115 197 q 42 486 42 381 q 78 684 42 593 q 183 842 115 775 q 341 948 250 910 q 542 986 432 986 m 858 486 q 817 650 858 578 q 706 764 776 722 q 542 806 635 806 q 376 764 449 806 q 263 650 304 722 q 222 486 222 578 q 263 324 222 396 q 376 211 304 253 q 542 169 449 169 q 706 211 635 169 q 817 324 776 253 q 858 486 858 396 m 290 1088 l 782 1178 l 793 1118 l 301 1028 l 290 1088 z "},"ô":{"ha":1083,"x_min":42,"x_max":1042,"o":"m 542 986 q 742 948 650 986 q 901 842 833 910 q 1005 684 968 775 q 1042 486 1042 593 q 1005 289 1042 381 q 901 130 968 197 q 742 24 833 63 q 542 -14 650 -14 q 341 24 432 -14 q 183 130 250 63 q 78 289 115 197 q 42 486 42 381 q 78 684 42 593 q 183 842 115 775 q 341 948 250 910 q 542 986 432 986 m 858 486 q 817 650 858 578 q 706 764 776 722 q 542 806 635 806 q 376 764 449 806 q 263 650 304 722 q 222 486 222 578 q 263 324 222 396 q 376 211 304 253 q 542 169 449 169 q 706 211 635 169 q 817 324 776 253 q 858 486 858 396 m 275 1000 l 246 1053 l 542 1201 l 838 1053 l 808 1000 l 556 1128 l 528 1128 l 275 1000 z "},"ố":{"ha":1083,"x_min":42,"x_max":1094,"o":"m 542 986 q 742 948 650 986 q 901 842 833 910 q 1005 684 968 775 q 1042 486 1042 593 q 1005 289 1042 381 q 901 130 968 197 q 742 24 833 63 q 542 -14 650 -14 q 341 24 432 -14 q 183 130 250 63 q 78 289 115 197 q 42 486 42 381 q 78 684 42 593 q 183 842 115 775 q 341 948 250 910 q 542 986 432 986 m 858 486 q 817 650 858 578 q 706 764 776 722 q 542 806 635 806 q 376 764 449 806 q 263 650 304 722 q 222 486 222 578 q 263 324 222 396 q 376 211 304 253 q 542 169 449 169 q 706 211 635 169 q 817 324 776 253 q 858 486 858 396 m 765 1200 l 1068 1342 l 1094 1289 l 796 1150 l 765 1200 m 275 1000 l 246 1053 l 542 1201 l 838 1053 l 808 1000 l 556 1128 l 528 1128 l 275 1000 z "},"ộ":{"ha":1083,"x_min":42,"x_max":1042,"o":"m 542 986 q 742 948 650 986 q 901 842 833 910 q 1005 684 968 775 q 1042 486 1042 593 q 1005 289 1042 381 q 901 130 968 197 q 742 24 833 63 q 542 -14 650 -14 q 341 24 432 -14 q 183 130 250 63 q 78 289 115 197 q 42 486 42 381 q 78 684 42 593 q 183 842 115 775 q 341 948 250 910 q 542 986 432 986 m 858 486 q 817 650 858 578 q 706 764 776 722 q 542 806 635 806 q 376 764 449 806 q 263 650 304 722 q 222 486 222 578 q 263 324 222 396 q 376 211 304 253 q 542 169 449 169 q 706 211 635 169 q 817 324 776 253 q 858 486 858 396 m 431 -64 l 653 -64 l 653 -190 l 431 -190 l 431 -64 m 275 1000 l 246 1053 l 542 1201 l 838 1053 l 808 1000 l 556 1128 l 528 1128 l 275 1000 z "},"ồ":{"ha":1083,"x_min":42,"x_max":1042,"o":"m 542 986 q 742 948 650 986 q 901 842 833 910 q 1005 684 968 775 q 1042 486 1042 593 q 1005 289 1042 381 q 901 130 968 197 q 742 24 833 63 q 542 -14 650 -14 q 341 24 432 -14 q 183 130 250 63 q 78 289 115 197 q 42 486 42 381 q 78 684 42 593 q 183 842 115 775 q 341 948 250 910 q 542 986 432 986 m 858 486 q 817 650 858 578 q 706 764 776 722 q 542 806 635 806 q 376 764 449 806 q 263 650 304 722 q 222 486 222 578 q 263 324 222 396 q 376 211 304 253 q 542 169 449 169 q 706 211 635 169 q 817 324 776 253 q 858 486 858 396 m 914 1190 l 885 1139 l 585 1279 l 613 1331 l 914 1190 m 275 1000 l 246 1053 l 542 1201 l 838 1053 l 808 1000 l 556 1128 l 528 1128 l 275 1000 z "},"ổ":{"ha":1083,"x_min":42,"x_max":1042,"o":"m 542 986 q 742 948 650 986 q 901 842 833 910 q 1005 684 968 775 q 1042 486 1042 593 q 1005 289 1042 381 q 901 130 968 197 q 742 24 833 63 q 542 -14 650 -14 q 341 24 432 -14 q 183 130 250 63 q 78 289 115 197 q 42 486 42 381 q 78 684 42 593 q 183 842 115 775 q 341 948 250 910 q 542 986 432 986 m 858 486 q 817 650 858 578 q 706 764 776 722 q 542 806 635 806 q 376 764 449 806 q 263 650 304 722 q 222 486 222 578 q 263 324 222 396 q 376 211 304 253 q 542 169 449 169 q 706 211 635 169 q 817 324 776 253 q 858 486 858 396 m 700 1190 q 713 1245 700 1226 q 742 1274 725 1264 q 772 1295 760 1285 q 785 1324 785 1306 q 769 1353 785 1342 q 726 1365 754 1365 q 667 1317 667 1365 l 667 1308 l 606 1308 l 606 1324 q 640 1392 606 1364 q 726 1421 675 1421 q 811 1393 776 1421 q 846 1324 846 1365 q 833 1276 846 1292 q 803 1250 821 1260 q 774 1228 786 1240 q 761 1190 761 1215 l 700 1190 m 275 1000 l 246 1053 l 542 1201 l 838 1053 l 808 1000 l 556 1128 l 528 1128 l 275 1000 z "},"ỗ":{"ha":1083,"x_min":42,"x_max":1042,"o":"m 542 986 q 742 948 650 986 q 901 842 833 910 q 1005 684 968 775 q 1042 486 1042 593 q 1005 289 1042 381 q 901 130 968 197 q 742 24 833 63 q 542 -14 650 -14 q 341 24 432 -14 q 183 130 250 63 q 78 289 115 197 q 42 486 42 381 q 78 684 42 593 q 183 842 115 775 q 341 948 250 910 q 542 986 432 986 m 858 486 q 817 650 858 578 q 706 764 776 722 q 542 806 635 806 q 376 764 449 806 q 263 650 304 722 q 222 486 222 578 q 263 324 222 396 q 376 211 304 253 q 542 169 449 169 q 706 211 635 169 q 817 324 776 253 q 858 486 858 396 m 275 1000 l 246 1053 l 542 1201 l 838 1053 l 808 1000 l 556 1128 l 528 1128 l 275 1000 m 283 1231 q 296 1290 283 1256 q 340 1350 308 1324 q 425 1381 371 1376 q 510 1367 474 1385 q 579 1326 547 1349 q 644 1292 611 1304 q 703 1288 683 1279 q 729 1319 722 1297 q 736 1365 736 1340 l 800 1365 q 761 1255 800 1289 q 653 1231 722 1221 q 569 1261 606 1238 q 501 1306 533 1285 q 433 1325 469 1328 q 370 1294 390 1322 q 347 1231 350 1265 l 283 1231 z "},"ö":{"ha":1083,"x_min":42,"x_max":1042,"o":"m 542 986 q 742 948 650 986 q 901 842 833 910 q 1005 684 968 775 q 1042 486 1042 593 q 1005 289 1042 381 q 901 130 968 197 q 742 24 833 63 q 542 -14 650 -14 q 341 24 432 -14 q 183 130 250 63 q 78 289 115 197 q 42 486 42 381 q 78 684 42 593 q 183 842 115 775 q 341 948 250 910 q 542 986 432 986 m 858 486 q 817 650 858 578 q 706 764 776 722 q 542 806 635 806 q 376 764 449 806 q 263 650 304 722 q 222 486 222 578 q 263 324 222 396 q 376 211 304 253 q 542 169 449 169 q 706 211 635 169 q 817 324 776 253 q 858 486 858 396 m 376 1201 l 507 1201 l 507 1057 l 376 1057 l 376 1201 m 582 1201 l 713 1201 l 713 1057 l 582 1057 l 582 1201 z "},"ọ":{"ha":1083,"x_min":42,"x_max":1042,"o":"m 542 986 q 742 948 650 986 q 901 842 833 910 q 1005 684 968 775 q 1042 486 1042 593 q 1005 289 1042 381 q 901 130 968 197 q 742 24 833 63 q 542 -14 650 -14 q 341 24 432 -14 q 183 130 250 63 q 78 289 115 197 q 42 486 42 381 q 78 684 42 593 q 183 842 115 775 q 341 948 250 910 q 542 986 432 986 m 858 486 q 817 650 858 578 q 706 764 776 722 q 542 806 635 806 q 376 764 449 806 q 263 650 304 722 q 222 486 222 578 q 263 324 222 396 q 376 211 304 253 q 542 169 449 169 q 706 211 635 169 q 817 324 776 253 q 858 486 858 396 m 431 -64 l 653 -64 l 653 -190 l 431 -190 l 431 -64 z "},"ò":{"ha":1083,"x_min":42,"x_max":1042,"o":"m 542 986 q 742 948 650 986 q 901 842 833 910 q 1005 684 968 775 q 1042 486 1042 593 q 1005 289 1042 381 q 901 130 968 197 q 742 24 833 63 q 542 -14 650 -14 q 341 24 432 -14 q 183 130 250 63 q 78 289 115 197 q 42 486 42 381 q 78 684 42 593 q 183 842 115 775 q 341 948 250 910 q 542 986 432 986 m 858 486 q 817 650 858 578 q 706 764 776 722 q 542 806 635 806 q 376 764 449 806 q 263 650 304 722 q 222 486 222 578 q 263 324 222 396 q 376 211 304 253 q 542 169 449 169 q 706 211 635 169 q 817 324 776 253 q 858 486 858 396 m 793 1088 l 782 1028 l 290 1118 l 301 1178 l 793 1088 z "},"ỏ":{"ha":1083,"x_min":42,"x_max":1042,"o":"m 542 986 q 742 948 650 986 q 901 842 833 910 q 1005 684 968 775 q 1042 486 1042 593 q 1005 289 1042 381 q 901 130 968 197 q 742 24 833 63 q 542 -14 650 -14 q 341 24 432 -14 q 183 130 250 63 q 78 289 115 197 q 42 486 42 381 q 78 684 42 593 q 183 842 115 775 q 341 948 250 910 q 542 986 432 986 m 858 486 q 817 650 858 578 q 706 764 776 722 q 542 806 635 806 q 376 764 449 806 q 263 650 304 722 q 222 486 222 578 q 263 324 222 396 q 376 211 304 253 q 542 169 449 169 q 706 211 635 169 q 817 324 776 253 q 858 486 858 396 m 504 1056 q 524 1110 504 1093 q 569 1134 543 1126 q 615 1149 596 1142 q 635 1178 635 1157 q 603 1215 635 1206 q 543 1224 571 1224 q 482 1214 514 1224 q 450 1175 450 1204 l 450 1164 l 381 1164 l 381 1178 q 428 1257 381 1228 q 543 1286 475 1286 q 658 1257 611 1286 q 704 1178 704 1228 q 685 1123 704 1139 q 642 1101 667 1107 q 599 1087 618 1094 q 581 1056 581 1079 l 504 1056 z "},"ơ":{"ha":1083,"x_min":42,"x_max":1042,"o":"m 975 735 q 1042 486 1042 622 q 1003 292 1042 382 q 895 133 964 201 q 736 25 826 64 q 542 -14 646 -14 q 347 25 438 -14 q 188 133 257 64 q 81 292 119 201 q 42 486 42 382 q 81 681 42 590 q 188 840 119 771 q 347 947 257 908 q 542 986 438 986 q 711 958 643 986 q 819 888 779 929 q 871 811 858 847 l 885 811 q 908 880 901 843 q 915 972 915 917 l 1040 972 q 1028 844 1040 904 q 975 735 1015 785 m 835 486 q 795 634 835 568 q 690 740 756 700 q 542 779 624 779 q 395 740 461 779 q 290 634 329 700 q 250 486 250 568 q 290 340 250 406 q 395 234 329 274 q 542 194 461 194 q 690 234 624 194 q 795 340 756 274 q 835 486 835 406 z "},"ớ":{"ha":1083,"x_min":42,"x_max":1042,"o":"m 975 735 q 1042 486 1042 622 q 1003 292 1042 382 q 895 133 964 201 q 736 25 826 64 q 542 -14 646 -14 q 347 25 438 -14 q 188 133 257 64 q 81 292 119 201 q 42 486 42 382 q 81 681 42 590 q 188 840 119 771 q 347 947 257 908 q 542 986 438 986 q 711 958 643 986 q 819 888 779 929 q 871 811 858 847 l 885 811 q 908 880 901 843 q 915 972 915 917 l 1040 972 q 1028 844 1040 904 q 975 735 1015 785 m 835 486 q 795 634 835 568 q 690 740 756 700 q 542 779 624 779 q 395 740 461 779 q 290 634 329 700 q 250 486 250 568 q 290 340 250 406 q 395 234 329 274 q 542 194 461 194 q 690 234 624 194 q 795 340 756 274 q 835 486 835 406 m 290 1088 l 782 1178 l 793 1118 l 301 1028 l 290 1088 z "},"ợ":{"ha":1083,"x_min":42,"x_max":1042,"o":"m 975 735 q 1042 486 1042 622 q 1003 292 1042 382 q 895 133 964 201 q 736 25 826 64 q 542 -14 646 -14 q 347 25 438 -14 q 188 133 257 64 q 81 292 119 201 q 42 486 42 382 q 81 681 42 590 q 188 840 119 771 q 347 947 257 908 q 542 986 438 986 q 711 958 643 986 q 819 888 779 929 q 871 811 858 847 l 885 811 q 908 880 901 843 q 915 972 915 917 l 1040 972 q 1028 844 1040 904 q 975 735 1015 785 m 835 486 q 795 634 835 568 q 690 740 756 700 q 542 779 624 779 q 395 740 461 779 q 290 634 329 700 q 250 486 250 568 q 290 340 250 406 q 395 234 329 274 q 542 194 461 194 q 690 234 624 194 q 795 340 756 274 q 835 486 835 406 m 431 -64 l 653 -64 l 653 -190 l 431 -190 l 431 -64 z "},"ờ":{"ha":1083,"x_min":42,"x_max":1042,"o":"m 975 735 q 1042 486 1042 622 q 1003 292 1042 382 q 895 133 964 201 q 736 25 826 64 q 542 -14 646 -14 q 347 25 438 -14 q 188 133 257 64 q 81 292 119 201 q 42 486 42 382 q 81 681 42 590 q 188 840 119 771 q 347 947 257 908 q 542 986 438 986 q 711 958 643 986 q 819 888 779 929 q 871 811 858 847 l 885 811 q 908 880 901 843 q 915 972 915 917 l 1040 972 q 1028 844 1040 904 q 975 735 1015 785 m 835 486 q 795 634 835 568 q 690 740 756 700 q 542 779 624 779 q 395 740 461 779 q 290 634 329 700 q 250 486 250 568 q 290 340 250 406 q 395 234 329 274 q 542 194 461 194 q 690 234 624 194 q 795 340 756 274 q 835 486 835 406 m 793 1088 l 782 1028 l 290 1118 l 301 1178 l 793 1088 z "},"ở":{"ha":1083,"x_min":42,"x_max":1042,"o":"m 975 735 q 1042 486 1042 622 q 1003 292 1042 382 q 895 133 964 201 q 736 25 826 64 q 542 -14 646 -14 q 347 25 438 -14 q 188 133 257 64 q 81 292 119 201 q 42 486 42 382 q 81 681 42 590 q 188 840 119 771 q 347 947 257 908 q 542 986 438 986 q 711 958 643 986 q 819 888 779 929 q 871 811 858 847 l 885 811 q 908 880 901 843 q 915 972 915 917 l 1040 972 q 1028 844 1040 904 q 975 735 1015 785 m 835 486 q 795 634 835 568 q 690 740 756 700 q 542 779 624 779 q 395 740 461 779 q 290 634 329 700 q 250 486 250 568 q 290 340 250 406 q 395 234 329 274 q 542 194 461 194 q 690 234 624 194 q 795 340 756 274 q 835 486 835 406 m 503 1056 q 522 1110 503 1093 q 568 1134 542 1126 q 614 1149 594 1142 q 633 1178 633 1157 q 601 1215 633 1206 q 542 1224 569 1224 q 481 1214 513 1224 q 449 1175 449 1204 l 449 1164 l 379 1164 l 379 1178 q 426 1257 379 1228 q 542 1286 474 1286 q 656 1257 610 1286 q 703 1178 703 1228 q 684 1123 703 1139 q 641 1101 665 1107 q 598 1087 617 1094 q 579 1056 579 1079 l 503 1056 z "},"ỡ":{"ha":1083,"x_min":42,"x_max":1042,"o":"m 975 735 q 1042 486 1042 622 q 1003 292 1042 382 q 895 133 964 201 q 736 25 826 64 q 542 -14 646 -14 q 347 25 438 -14 q 188 133 257 64 q 81 292 119 201 q 42 486 42 382 q 81 681 42 590 q 188 840 119 771 q 347 947 257 908 q 542 986 438 986 q 711 958 643 986 q 819 888 779 929 q 871 811 858 847 l 885 811 q 908 880 901 843 q 915 972 915 917 l 1040 972 q 1028 844 1040 904 q 975 735 1015 785 m 835 486 q 795 634 835 568 q 690 740 756 700 q 542 779 624 779 q 395 740 461 779 q 290 634 329 700 q 250 486 250 568 q 290 340 250 406 q 395 234 329 274 q 542 194 461 194 q 690 234 624 194 q 795 340 756 274 q 835 486 835 406 m 283 1039 q 296 1098 283 1064 q 340 1158 308 1132 q 425 1189 371 1185 q 510 1175 474 1193 q 579 1135 547 1157 q 644 1100 611 1113 q 703 1097 683 1088 q 729 1127 722 1106 q 736 1174 736 1149 l 800 1174 q 761 1063 800 1097 q 653 1039 722 1029 q 569 1069 606 1046 q 501 1115 533 1093 q 433 1133 469 1136 q 370 1102 390 1131 q 347 1039 350 1074 l 283 1039 z "},"ő":{"ha":1083,"x_min":42,"x_max":1042,"o":"m 542 986 q 742 948 650 986 q 901 842 833 910 q 1005 684 968 775 q 1042 486 1042 593 q 1005 289 1042 381 q 901 130 968 197 q 742 24 833 63 q 542 -14 650 -14 q 341 24 432 -14 q 183 130 250 63 q 78 289 115 197 q 42 486 42 381 q 78 684 42 593 q 183 842 115 775 q 341 948 250 910 q 542 986 432 986 m 858 486 q 817 650 858 578 q 706 764 776 722 q 542 806 635 806 q 376 764 449 806 q 263 650 304 722 q 222 486 222 578 q 263 324 222 396 q 376 211 304 253 q 542 169 449 169 q 706 211 635 169 q 817 324 776 253 q 858 486 858 396 m 417 1088 l 600 1318 l 649 1286 l 464 1056 l 417 1088 m 601 1088 l 785 1318 l 833 1286 l 649 1056 l 601 1088 z "},"ō":{"ha":1083,"x_min":42,"x_max":1042,"o":"m 542 986 q 742 948 650 986 q 901 842 833 910 q 1005 684 968 775 q 1042 486 1042 593 q 1005 289 1042 381 q 901 130 968 197 q 742 24 833 63 q 542 -14 650 -14 q 341 24 432 -14 q 183 130 250 63 q 78 289 115 197 q 42 486 42 381 q 78 684 42 593 q 183 842 115 775 q 341 948 250 910 q 542 986 432 986 m 858 486 q 817 650 858 578 q 706 764 776 722 q 542 806 635 806 q 376 764 449 806 q 263 650 304 722 q 222 486 222 578 q 263 324 222 396 q 376 211 304 253 q 542 169 449 169 q 706 211 635 169 q 817 324 776 253 q 858 486 858 396 m 261 1056 l 261 1117 l 824 1117 l 824 1056 l 261 1056 z "},"ø":{"ha":1083,"x_min":42,"x_max":1042,"o":"m 542 986 q 690 966 619 986 q 818 910 760 946 l 872 986 l 921 986 l 850 886 q 990 715 939 819 q 1042 486 1042 611 q 1005 289 1042 381 q 901 130 968 197 q 742 24 833 63 q 542 -14 650 -14 q 394 6 464 -14 q 267 63 325 26 l 213 -14 l 163 -14 l 233 86 q 92 257 143 153 q 42 486 42 361 q 78 684 42 593 q 183 842 115 775 q 341 948 250 910 q 542 986 432 986 m 222 486 q 253 343 222 408 q 339 236 285 278 l 711 760 q 542 806 636 806 q 376 764 449 806 q 263 650 304 722 q 222 486 222 578 m 858 486 q 828 629 858 564 q 744 738 797 694 l 374 213 q 542 169 447 169 q 706 211 635 169 q 817 324 776 253 q 858 486 858 396 z "},"õ":{"ha":1083,"x_min":42,"x_max":1042,"o":"m 542 986 q 742 948 650 986 q 901 842 833 910 q 1005 684 968 775 q 1042 486 1042 593 q 1005 289 1042 381 q 901 130 968 197 q 742 24 833 63 q 542 -14 650 -14 q 341 24 432 -14 q 183 130 250 63 q 78 289 115 197 q 42 486 42 381 q 78 684 42 593 q 183 842 115 775 q 341 948 250 910 q 542 986 432 986 m 858 486 q 817 650 858 578 q 706 764 776 722 q 542 806 635 806 q 376 764 449 806 q 263 650 304 722 q 222 486 222 578 q 263 324 222 396 q 376 211 304 253 q 542 169 449 169 q 706 211 635 169 q 817 324 776 253 q 858 486 858 396 m 283 1039 q 296 1098 283 1064 q 340 1158 308 1132 q 425 1189 371 1185 q 510 1175 474 1193 q 579 1135 547 1157 q 644 1100 611 1113 q 703 1097 683 1088 q 729 1127 722 1106 q 736 1174 736 1149 l 800 1174 q 761 1063 800 1097 q 653 1039 722 1029 q 569 1069 606 1046 q 501 1115 533 1093 q 433 1133 469 1136 q 370 1102 390 1131 q 347 1039 350 1074 l 283 1039 z "},"œ":{"ha":849,"x_min":42,"x_max":807,"o":"m 285 -14 q 163 19 218 -14 q 74 106 107 51 q 42 229 42 161 l 42 743 q 74 866 42 811 q 163 953 107 921 q 285 986 218 986 q 407 953 351 986 q 495 866 463 921 q 528 743 528 811 l 528 229 q 495 106 528 161 q 407 19 463 51 q 285 -14 351 -14 m 285 169 q 310 180 300 169 q 319 204 319 190 l 319 769 q 310 795 319 785 q 285 806 300 806 q 259 795 269 806 q 249 769 249 785 l 249 204 q 259 180 249 190 q 285 169 269 169 m 564 -14 q 442 19 497 -14 q 353 106 386 51 q 321 229 321 161 l 321 743 q 353 866 321 811 q 442 953 386 921 q 564 986 497 986 q 686 953 631 986 q 774 866 742 921 q 807 743 807 811 l 807 432 l 528 432 l 528 215 q 538 190 528 201 q 564 179 549 179 q 589 190 579 179 q 599 215 599 201 l 599 361 l 807 361 l 807 214 q 770 99 804 150 q 683 17 736 47 q 564 -14 629 -14 m 528 626 l 599 626 l 599 771 q 589 796 599 786 q 564 806 579 806 q 538 796 549 806 q 528 771 528 786 l 528 626 z "},"p":{"ha":569,"x_min":42,"x_max":528,"o":"m 42 0 l 42 972 l 257 972 q 393 936 332 972 q 491 839 454 900 q 528 703 528 778 l 528 536 q 491 400 528 461 q 393 303 454 339 q 257 267 332 267 l 249 267 l 249 0 l 42 0 m 249 447 l 253 447 q 286 451 271 447 q 310 475 301 456 q 319 540 319 494 l 319 697 q 310 764 319 744 q 286 788 301 783 q 253 792 271 792 l 249 792 l 249 447 z "},"þ":{"ha":569,"x_min":42,"x_max":528,"o":"m 42 0 l 42 972 l 257 972 l 257 839 q 393 803 332 839 q 491 706 454 767 q 528 569 528 644 l 528 403 q 491 267 528 328 q 393 169 454 206 q 257 133 332 133 l 249 133 l 249 0 l 42 0 m 249 314 l 253 314 q 286 318 271 314 q 310 342 301 322 q 319 407 319 361 l 319 564 q 310 631 319 611 q 286 654 301 650 q 253 658 271 658 l 249 658 l 249 314 z "},"q":{"ha":569,"x_min":42,"x_max":528,"o":"m 528 -121 q 404 -88 460 -121 q 317 0 349 -56 l 285 0 q 163 33 218 0 q 75 122 108 67 q 42 243 42 176 l 42 743 q 75 866 42 811 q 163 953 108 921 q 285 986 218 986 q 408 953 353 986 q 495 866 463 921 q 528 743 528 811 l 528 243 q 500 129 528 182 q 425 43 472 76 l 425 29 q 528 18 458 6 l 528 -121 m 285 179 q 311 190 300 179 q 322 215 322 201 l 322 756 q 311 781 322 771 q 285 792 300 792 q 260 781 271 792 q 249 756 249 771 l 249 215 q 260 190 249 201 q 285 179 271 179 z "},"r":{"ha":569,"x_min":42,"x_max":528,"o":"m 249 0 l 42 0 l 42 972 l 254 972 q 392 937 331 972 q 491 842 454 901 q 528 706 528 782 q 483 571 528 621 q 376 501 438 521 l 376 481 q 473 424 438 471 q 508 304 508 378 l 508 -1 l 303 -1 l 303 304 q 292 330 303 319 q 265 340 281 340 l 249 340 l 249 0 m 249 618 l 275 618 q 308 631 294 618 q 321 663 321 644 l 321 743 q 308 776 321 763 q 275 789 294 789 l 249 789 l 249 618 z "},"ŕ":{"ha":958,"x_min":42,"x_max":917,"o":"m 249 0 l 42 0 l 42 972 l 576 972 q 757 931 681 972 q 875 819 833 890 q 917 656 917 749 q 872 514 917 571 q 765 438 826 457 l 765 417 q 862 362 826 407 q 897 243 897 317 l 897 0 l 692 0 l 692 179 q 640 299 692 258 q 514 340 589 340 l 249 340 l 249 0 m 249 515 l 565 515 q 667 556 624 515 q 710 656 710 596 q 671 751 710 713 q 576 789 632 789 l 249 789 l 249 515 m 228 1088 l 719 1178 l 731 1118 l 239 1028 l 228 1088 z "},"ř":{"ha":958,"x_min":42,"x_max":917,"o":"m 249 0 l 42 0 l 42 972 l 576 972 q 757 931 681 972 q 875 819 833 890 q 917 656 917 749 q 872 514 917 571 q 765 438 826 457 l 765 417 q 862 362 826 407 q 897 243 897 317 l 897 0 l 692 0 l 692 179 q 640 299 692 258 q 514 340 589 340 l 249 340 l 249 0 m 249 515 l 565 515 q 667 556 624 515 q 710 656 710 596 q 671 751 710 713 q 576 789 632 789 l 249 789 l 249 515 m 185 1225 l 438 1097 l 465 1097 l 718 1225 l 747 1172 l 451 1024 l 156 1172 l 185 1225 z "},"ŗ":{"ha":958,"x_min":42,"x_max":917,"o":"m 249 0 l 42 0 l 42 972 l 576 972 q 757 931 681 972 q 875 819 833 890 q 917 656 917 749 q 872 514 917 571 q 765 438 826 457 l 765 417 q 862 362 826 407 q 897 243 897 317 l 897 0 l 692 0 l 692 179 q 640 299 692 258 q 514 340 589 340 l 249 340 l 249 0 m 249 515 l 565 515 q 667 556 624 515 q 710 656 710 596 q 671 751 710 713 q 576 789 632 789 l 249 789 l 249 515 m 446 -236 l 446 -64 l 513 -64 l 513 -78 l 488 -236 l 446 -236 z "},"s":{"ha":569,"x_min":42,"x_max":528,"o":"m 285 -14 q 163 19 218 -14 q 74 106 107 51 q 42 229 42 161 l 42 340 l 249 340 l 249 222 q 259 197 249 208 q 285 185 269 185 q 311 197 300 185 q 322 222 322 208 q 319 244 322 235 q 307 268 317 253 l 140 540 q 99 605 122 571 q 58 673 75 639 q 42 738 42 707 l 42 743 q 74 866 42 811 q 163 953 107 921 q 285 986 218 986 q 408 953 353 986 q 495 866 463 921 q 528 743 528 811 l 528 644 l 322 644 l 322 751 q 311 778 322 767 q 285 789 300 789 q 260 778 271 789 q 249 751 249 767 q 252 735 249 742 q 263 717 256 729 l 435 443 q 497 341 467 392 q 528 235 528 290 l 528 229 q 495 106 528 161 q 408 19 463 51 q 285 -14 353 -14 z "},"ś":{"ha":996,"x_min":42,"x_max":954,"o":"m 515 -14 q 297 17 396 -14 q 138 117 197 49 q 79 296 79 186 l 79 340 l 274 340 l 274 324 q 305 224 274 258 q 391 178 336 190 q 515 167 446 167 q 693 185 626 167 q 760 268 760 204 q 722 331 760 307 q 615 373 685 354 q 448 414 546 392 q 231 474 350 436 q 174 497 206 482 q 112 539 142 513 q 62 603 82 565 q 42 694 42 642 q 94 838 42 771 q 253 945 147 904 q 515 986 358 986 q 737 948 638 986 q 895 844 836 910 q 954 694 954 779 l 954 644 l 760 644 l 760 663 q 697 777 760 735 q 510 819 635 819 q 305 787 374 819 q 236 694 236 754 q 264 631 236 654 q 342 594 292 608 q 463 565 393 579 q 619 526 533 550 q 791 466 715 500 q 910 378 867 432 q 954 235 954 324 q 896 101 954 157 q 738 16 838 46 q 515 -14 639 -14 m 247 1088 l 739 1178 l 750 1118 l 258 1028 l 247 1088 z "},"š":{"ha":996,"x_min":42,"x_max":954,"o":"m 515 -14 q 297 17 396 -14 q 138 117 197 49 q 79 296 79 186 l 79 340 l 274 340 l 274 324 q 305 224 274 258 q 391 178 336 190 q 515 167 446 167 q 693 185 626 167 q 760 268 760 204 q 722 331 760 307 q 615 373 685 354 q 448 414 546 392 q 231 474 350 436 q 174 497 206 482 q 112 539 142 513 q 62 603 82 565 q 42 694 42 642 q 94 838 42 771 q 253 945 147 904 q 515 986 358 986 q 737 948 638 986 q 895 844 836 910 q 954 694 954 779 l 954 644 l 760 644 l 760 663 q 697 777 760 735 q 510 819 635 819 q 305 787 374 819 q 236 694 236 754 q 264 631 236 654 q 342 594 292 608 q 463 565 393 579 q 619 526 533 550 q 791 466 715 500 q 910 378 867 432 q 954 235 954 324 q 896 101 954 157 q 738 16 838 46 q 515 -14 639 -14 m 232 1225 l 485 1097 l 513 1097 l 765 1225 l 794 1172 l 499 1024 l 203 1172 l 232 1225 z "},"ş":{"ha":996,"x_min":42,"x_max":954,"o":"m 515 -14 q 297 17 396 -14 q 138 117 197 49 q 79 296 79 186 l 79 340 l 274 340 l 274 324 q 305 224 274 258 q 391 178 336 190 q 515 167 446 167 q 693 185 626 167 q 760 268 760 204 q 722 331 760 307 q 615 373 685 354 q 448 414 546 392 q 231 474 350 436 q 174 497 206 482 q 112 539 142 513 q 62 603 82 565 q 42 694 42 642 q 94 838 42 771 q 253 945 147 904 q 515 986 358 986 q 737 948 638 986 q 895 844 836 910 q 954 694 954 779 l 954 644 l 760 644 l 760 663 q 697 777 760 735 q 510 819 635 819 q 305 787 374 819 q 236 694 236 754 q 264 631 236 654 q 342 594 292 608 q 463 565 393 579 q 619 526 533 550 q 791 466 715 500 q 910 378 867 432 q 954 235 954 324 q 896 101 954 157 q 738 16 838 46 q 515 -14 639 -14 m 506 0 l 550 0 q 559 -38 550 -24 q 581 -65 568 -53 q 602 -94 593 -78 q 611 -139 611 -111 q 586 -201 611 -171 q 517 -232 561 -232 q 454 -210 479 -232 q 421 -153 429 -187 q 425 -82 413 -118 l 468 -87 q 470 -158 454 -135 q 517 -182 486 -182 q 555 -164 542 -182 q 563 -122 568 -146 q 544 -90 558 -103 q 518 -58 531 -78 q 506 0 506 -37 z "},"ș":{"ha":996,"x_min":42,"x_max":954,"o":"m 515 -14 q 297 17 396 -14 q 138 117 197 49 q 79 296 79 186 l 79 340 l 274 340 l 274 324 q 305 224 274 258 q 391 178 336 190 q 515 167 446 167 q 693 185 626 167 q 760 268 760 204 q 722 331 760 307 q 615 373 685 354 q 448 414 546 392 q 231 474 350 436 q 174 497 206 482 q 112 539 142 513 q 62 603 82 565 q 42 694 42 642 q 94 838 42 771 q 253 945 147 904 q 515 986 358 986 q 737 948 638 986 q 895 844 836 910 q 954 694 954 779 l 954 644 l 760 644 l 760 663 q 697 777 760 735 q 510 819 635 819 q 305 787 374 819 q 236 694 236 754 q 264 631 236 654 q 342 594 292 608 q 463 565 393 579 q 619 526 533 550 q 791 466 715 500 q 910 378 867 432 q 954 235 954 324 q 896 101 954 157 q 738 16 838 46 q 515 -14 639 -14 m 464 -236 l 464 -64 l 531 -64 l 531 -78 l 506 -236 l 464 -236 z "},"ß":{"ha":944,"x_min":42,"x_max":903,"o":"m 617 -14 l 403 -14 l 403 179 l 611 179 q 680 208 651 179 q 708 281 708 238 q 680 351 708 321 q 611 382 651 382 l 403 382 l 403 576 l 575 576 q 658 605 624 576 q 693 685 693 633 q 658 764 693 736 q 578 792 624 792 l 331 792 q 263 763 290 792 q 236 690 236 735 l 236 -14 l 42 -14 l 42 721 q 74 848 42 792 q 162 938 107 904 q 285 972 217 972 l 615 972 q 760 941 696 972 q 864 853 825 910 q 903 721 903 797 q 873 593 903 650 q 765 496 843 536 l 765 474 q 865 399 828 453 q 903 251 903 346 q 864 111 903 171 q 760 19 825 51 q 617 -14 696 -14 z "},"t":{"ha":556,"x_min":42,"x_max":514,"o":"m 174 0 l 174 792 l 42 792 l 42 972 l 514 972 l 514 792 l 382 792 l 382 0 l 174 0 z "},"ť":{"ha":958,"x_min":42,"x_max":917,"o":"m 375 0 l 375 792 l 42 792 l 42 972 l 917 972 l 917 792 l 583 792 l 583 0 l 375 0 m 213 1225 l 465 1097 l 493 1097 l 746 1225 l 775 1172 l 479 1024 l 183 1172 l 213 1225 z "},"ț":{"ha":958,"x_min":42,"x_max":917,"o":"m 375 0 l 375 792 l 42 792 l 42 972 l 917 972 l 917 792 l 583 792 l 583 0 l 375 0 m 446 -236 l 446 -64 l 513 -64 l 513 -78 l 488 -236 l 446 -236 z "},"u":{"ha":569,"x_min":42,"x_max":528,"o":"m 221 -14 q 116 19 156 -14 q 59 106 76 51 q 42 229 42 161 l 42 972 l 249 972 l 249 215 q 259 190 249 201 q 285 179 269 179 q 310 190 300 179 q 319 215 319 201 l 319 972 l 528 972 l 528 0 l 363 0 l 363 49 l 349 49 q 302 6 339 25 q 221 -14 265 -14 z "},"ú":{"ha":1056,"x_min":42,"x_max":1014,"o":"m 801 972 l 1014 972 l 1014 0 l 829 0 l 829 151 l 808 151 q 705 37 775 88 q 528 -14 635 -14 q 338 24 426 -14 q 183 128 250 61 q 79 284 117 196 q 42 472 42 372 l 42 972 l 254 972 l 254 453 q 291 315 254 378 q 390 216 328 253 q 528 179 453 179 q 666 216 604 179 q 765 315 728 253 q 801 453 801 378 l 801 972 m 276 1088 l 768 1178 l 779 1118 l 288 1028 l 276 1088 z "},"ŭ":{"ha":1056,"x_min":42,"x_max":1014,"o":"m 801 972 l 1014 972 l 1014 0 l 829 0 l 829 151 l 808 151 q 705 37 775 88 q 528 -14 635 -14 q 338 24 426 -14 q 183 128 250 61 q 79 284 117 196 q 42 472 42 372 l 42 972 l 254 972 l 254 453 q 291 315 254 378 q 390 216 328 253 q 528 179 453 179 q 666 216 604 179 q 765 315 728 253 q 801 453 801 378 l 801 972 m 528 1014 q 395 1035 456 1014 q 299 1091 335 1056 q 264 1168 264 1126 l 333 1168 q 394 1099 340 1125 q 528 1072 447 1072 q 663 1099 611 1072 q 721 1168 715 1125 l 792 1168 q 756 1091 792 1126 q 661 1035 721 1056 q 528 1014 601 1014 z "},"û":{"ha":1056,"x_min":42,"x_max":1014,"o":"m 801 972 l 1014 972 l 1014 0 l 829 0 l 829 151 l 808 151 q 705 37 775 88 q 528 -14 635 -14 q 338 24 426 -14 q 183 128 250 61 q 79 284 117 196 q 42 472 42 372 l 42 972 l 254 972 l 254 453 q 291 315 254 378 q 390 216 328 253 q 528 179 453 179 q 666 216 604 179 q 765 315 728 253 q 801 453 801 378 l 801 972 m 261 1028 l 232 1081 l 528 1229 l 824 1081 l 794 1028 l 542 1156 l 514 1156 l 261 1028 z "},"ü":{"ha":1056,"x_min":42,"x_max":1014,"o":"m 801 972 l 1014 972 l 1014 0 l 829 0 l 829 151 l 808 151 q 705 37 775 88 q 528 -14 635 -14 q 338 24 426 -14 q 183 128 250 61 q 79 284 117 196 q 42 472 42 372 l 42 972 l 254 972 l 254 453 q 291 315 254 378 q 390 216 328 253 q 528 179 453 179 q 666 216 604 179 q 765 315 728 253 q 801 453 801 378 l 801 972 m 363 1174 l 493 1174 l 493 1029 l 363 1029 l 363 1174 m 568 1174 l 699 1174 l 699 1029 l 568 1029 l 568 1174 z "},"ụ":{"ha":1056,"x_min":42,"x_max":1014,"o":"m 801 972 l 1014 972 l 1014 0 l 829 0 l 829 151 l 808 151 q 705 37 775 88 q 528 -14 635 -14 q 338 24 426 -14 q 183 128 250 61 q 79 284 117 196 q 42 472 42 372 l 42 972 l 254 972 l 254 453 q 291 315 254 378 q 390 216 328 253 q 528 179 453 179 q 666 216 604 179 q 765 315 728 253 q 801 453 801 378 l 801 972 m 417 -64 l 639 -64 l 639 -190 l 417 -190 l 417 -64 z "},"ù":{"ha":1056,"x_min":42,"x_max":1014,"o":"m 801 972 l 1014 972 l 1014 0 l 829 0 l 829 151 l 808 151 q 705 37 775 88 q 528 -14 635 -14 q 338 24 426 -14 q 183 128 250 61 q 79 284 117 196 q 42 472 42 372 l 42 972 l 254 972 l 254 453 q 291 315 254 378 q 390 216 328 253 q 528 179 453 179 q 666 216 604 179 q 765 315 728 253 q 801 453 801 378 l 801 972 m 753 1088 l 742 1028 l 250 1118 l 261 1178 l 753 1088 z "},"ủ":{"ha":1056,"x_min":42,"x_max":1014,"o":"m 801 972 l 1014 972 l 1014 0 l 829 0 l 829 151 l 808 151 q 705 37 775 88 q 528 -14 635 -14 q 338 24 426 -14 q 183 128 250 61 q 79 284 117 196 q 42 472 42 372 l 42 972 l 254 972 l 254 453 q 291 315 254 378 q 390 216 328 253 q 528 179 453 179 q 666 216 604 179 q 765 315 728 253 q 801 453 801 378 l 801 972 m 489 1028 q 508 1082 489 1065 q 554 1106 528 1099 q 600 1122 581 1114 q 619 1150 619 1129 q 588 1187 619 1178 q 528 1196 556 1196 q 467 1186 499 1196 q 435 1147 435 1176 l 435 1136 l 365 1136 l 365 1150 q 413 1229 365 1200 q 528 1258 460 1258 q 642 1229 596 1258 q 689 1150 689 1200 q 670 1095 689 1111 q 627 1073 651 1079 q 584 1059 603 1067 q 565 1028 565 1051 l 489 1028 z "},"ư":{"ha":1082,"x_min":42,"x_max":1040,"o":"m 915 972 l 1040 972 q 1034 882 1040 932 q 1008 786 1028 832 q 950 711 989 740 q 846 682 911 682 l 846 0 l 663 0 l 663 151 l 642 151 q 553 31 611 76 q 381 -14 494 -14 q 194 40 269 -14 q 80 185 118 94 q 42 388 42 276 l 42 972 l 249 972 l 249 372 q 275 275 249 319 q 345 205 301 231 q 443 179 389 179 q 541 205 497 179 q 610 275 585 231 q 636 372 636 319 l 636 972 l 846 972 l 846 792 q 888 818 872 792 q 909 886 903 844 q 915 972 915 928 z "},"ứ":{"ha":1082,"x_min":42,"x_max":1040,"o":"m 915 972 l 1040 972 q 1034 882 1040 932 q 1008 786 1028 832 q 950 711 989 740 q 846 682 911 682 l 846 0 l 663 0 l 663 151 l 642 151 q 553 31 611 76 q 381 -14 494 -14 q 194 40 269 -14 q 80 185 118 94 q 42 388 42 276 l 42 972 l 249 972 l 249 372 q 275 275 249 319 q 345 205 301 231 q 443 179 389 179 q 541 205 497 179 q 610 275 585 231 q 636 372 636 319 l 636 972 l 846 972 l 846 792 q 888 818 872 792 q 909 886 903 844 q 915 972 915 928 m 193 1088 l 685 1178 l 696 1118 l 204 1028 l 193 1088 z "},"ự":{"ha":1082,"x_min":42,"x_max":1040,"o":"m 915 972 l 1040 972 q 1034 882 1040 932 q 1008 786 1028 832 q 950 711 989 740 q 846 682 911 682 l 846 0 l 663 0 l 663 151 l 642 151 q 553 31 611 76 q 381 -14 494 -14 q 194 40 269 -14 q 80 185 118 94 q 42 388 42 276 l 42 972 l 249 972 l 249 372 q 275 275 249 319 q 345 205 301 231 q 443 179 389 179 q 541 205 497 179 q 610 275 585 231 q 636 372 636 319 l 636 972 l 846 972 l 846 792 q 888 818 872 792 q 909 886 903 844 q 915 972 915 928 m 332 -64 l 554 -64 l 554 -190 l 332 -190 l 332 -64 z "},"ừ":{"ha":1082,"x_min":42,"x_max":1040,"o":"m 915 972 l 1040 972 q 1034 882 1040 932 q 1008 786 1028 832 q 950 711 989 740 q 846 682 911 682 l 846 0 l 663 0 l 663 151 l 642 151 q 553 31 611 76 q 381 -14 494 -14 q 194 40 269 -14 q 80 185 118 94 q 42 388 42 276 l 42 972 l 249 972 l 249 372 q 275 275 249 319 q 345 205 301 231 q 443 179 389 179 q 541 205 497 179 q 610 275 585 231 q 636 372 636 319 l 636 972 l 846 972 l 846 792 q 888 818 872 792 q 909 886 903 844 q 915 972 915 928 m 694 1088 l 683 1028 l 192 1118 l 203 1178 l 694 1088 z "},"ử":{"ha":1082,"x_min":42,"x_max":1040,"o":"m 915 972 l 1040 972 q 1034 882 1040 932 q 1008 786 1028 832 q 950 711 989 740 q 846 682 911 682 l 846 0 l 663 0 l 663 151 l 642 151 q 553 31 611 76 q 381 -14 494 -14 q 194 40 269 -14 q 80 185 118 94 q 42 388 42 276 l 42 972 l 249 972 l 249 372 q 275 275 249 319 q 345 205 301 231 q 443 179 389 179 q 541 205 497 179 q 610 275 585 231 q 636 372 636 319 l 636 972 l 846 972 l 846 792 q 888 818 872 792 q 909 886 903 844 q 915 972 915 928 m 406 1014 q 425 1068 406 1051 q 471 1092 444 1085 q 517 1108 497 1100 q 536 1136 536 1115 q 504 1173 536 1164 q 444 1182 472 1182 q 383 1172 415 1182 q 351 1133 351 1163 l 351 1122 l 282 1122 l 282 1136 q 329 1215 282 1186 q 444 1244 376 1244 q 559 1215 513 1244 q 606 1136 606 1186 q 587 1081 606 1097 q 544 1059 568 1065 q 501 1045 519 1053 q 482 1014 482 1038 l 406 1014 z "},"ữ":{"ha":1082,"x_min":42,"x_max":1040,"o":"m 915 972 l 1040 972 q 1034 882 1040 932 q 1008 786 1028 832 q 950 711 989 740 q 846 682 911 682 l 846 0 l 663 0 l 663 151 l 642 151 q 553 31 611 76 q 381 -14 494 -14 q 194 40 269 -14 q 80 185 118 94 q 42 388 42 276 l 42 972 l 249 972 l 249 372 q 275 275 249 319 q 345 205 301 231 q 443 179 389 179 q 541 205 497 179 q 610 275 585 231 q 636 372 636 319 l 636 972 l 846 972 l 846 792 q 888 818 872 792 q 909 886 903 844 q 915 972 915 928 m 185 1039 q 197 1098 185 1064 q 241 1158 210 1132 q 326 1189 272 1185 q 412 1175 375 1193 q 481 1135 449 1157 q 546 1100 513 1113 q 604 1097 585 1088 q 631 1127 624 1106 q 638 1174 638 1149 l 701 1174 q 663 1063 701 1097 q 554 1039 624 1029 q 471 1069 507 1046 q 403 1115 435 1093 q 335 1133 371 1136 q 272 1102 292 1131 q 249 1039 251 1074 l 185 1039 z "},"ű":{"ha":1056,"x_min":42,"x_max":1014,"o":"m 801 972 l 1014 972 l 1014 0 l 829 0 l 829 151 l 808 151 q 705 37 775 88 q 528 -14 635 -14 q 338 24 426 -14 q 183 128 250 61 q 79 284 117 196 q 42 472 42 372 l 42 972 l 254 972 l 254 453 q 291 315 254 378 q 390 216 328 253 q 528 179 453 179 q 666 216 604 179 q 765 315 728 253 q 801 453 801 378 l 801 972 m 369 1060 l 553 1290 l 601 1258 l 417 1028 l 369 1060 m 554 1060 l 738 1290 l 786 1258 l 601 1028 l 554 1060 z "},"ū":{"ha":1056,"x_min":42,"x_max":1014,"o":"m 801 972 l 1014 972 l 1014 0 l 829 0 l 829 151 l 808 151 q 705 37 775 88 q 528 -14 635 -14 q 338 24 426 -14 q 183 128 250 61 q 79 284 117 196 q 42 472 42 372 l 42 972 l 254 972 l 254 453 q 291 315 254 378 q 390 216 328 253 q 528 179 453 179 q 666 216 604 179 q 765 315 728 253 q 801 453 801 378 l 801 972 m 246 1056 l 246 1117 l 808 1117 l 808 1056 l 246 1056 z "},"ų":{"ha":1056,"x_min":42,"x_max":1025,"o":"m 801 972 l 1014 972 l 1014 0 l 829 0 l 829 151 l 808 151 q 705 37 775 88 q 528 -14 635 -14 q 338 24 426 -14 q 183 128 250 61 q 79 284 117 196 q 42 472 42 372 l 42 972 l 254 972 l 254 453 q 291 315 254 378 q 390 216 328 253 q 528 179 453 179 q 666 216 604 179 q 765 315 728 253 q 801 453 801 378 l 801 972 m 931 0 q 918 -58 931 -37 q 892 -90 906 -78 q 874 -122 878 -103 q 881 -164 868 -146 q 919 -182 894 -182 q 967 -158 950 -182 q 968 -87 983 -135 l 1011 -82 q 1016 -153 1025 -118 q 982 -210 1007 -187 q 919 -232 957 -232 q 850 -201 875 -232 q 825 -139 825 -171 q 834 -94 825 -111 q 856 -65 843 -78 q 877 -38 868 -53 q 886 0 886 -24 l 931 0 z "},"ů":{"ha":1056,"x_min":42,"x_max":1014,"o":"m 801 972 l 1014 972 l 1014 0 l 829 0 l 829 151 l 808 151 q 705 37 775 88 q 528 -14 635 -14 q 338 24 426 -14 q 183 128 250 61 q 79 284 117 196 q 42 472 42 372 l 42 972 l 254 972 l 254 453 q 291 315 254 378 q 390 216 328 253 q 528 179 453 179 q 666 216 604 179 q 765 315 728 253 q 801 453 801 378 l 801 972 m 528 1028 q 447 1062 481 1028 q 413 1143 413 1096 q 447 1225 413 1192 q 528 1258 481 1258 q 610 1225 576 1258 q 643 1143 643 1192 q 610 1062 643 1096 q 528 1028 576 1028 m 526 1076 q 576 1095 557 1076 q 594 1142 594 1114 q 576 1191 594 1172 q 526 1210 557 1210 q 480 1191 499 1210 q 461 1142 461 1172 q 480 1095 461 1114 q 526 1076 499 1076 z "},"ũ":{"ha":1056,"x_min":42,"x_max":1014,"o":"m 801 972 l 1014 972 l 1014 0 l 829 0 l 829 151 l 808 151 q 705 37 775 88 q 528 -14 635 -14 q 338 24 426 -14 q 183 128 250 61 q 79 284 117 196 q 42 472 42 372 l 42 972 l 254 972 l 254 453 q 291 315 254 378 q 390 216 328 253 q 528 179 453 179 q 666 216 604 179 q 765 315 728 253 q 801 453 801 378 l 801 972 m 269 1056 q 282 1115 269 1081 q 326 1175 294 1149 q 411 1206 357 1201 q 497 1192 460 1210 q 565 1151 533 1174 q 631 1117 597 1129 q 689 1113 669 1104 q 715 1144 708 1122 q 722 1190 722 1165 l 786 1190 q 747 1080 786 1114 q 639 1056 708 1046 q 556 1086 592 1063 q 488 1131 519 1110 q 419 1150 456 1153 q 356 1119 376 1147 q 333 1056 336 1090 l 269 1056 z "},"v":{"ha":571,"x_min":42,"x_max":528,"o":"m 167 0 l 42 951 l 42 972 l 249 972 l 275 278 l 293 278 l 319 972 l 528 972 l 528 951 l 403 0 l 167 0 z "},"w":{"ha":776,"x_min":42,"x_max":735,"o":"m 229 -14 q 137 11 179 -14 q 68 77 94 36 q 42 168 42 118 l 42 972 l 244 972 l 244 201 q 265 179 244 179 q 288 201 288 179 l 288 972 l 488 972 l 488 201 q 508 179 488 179 q 531 201 531 179 l 531 972 l 735 972 l 735 168 q 710 77 735 118 q 643 11 686 36 q 546 -14 600 -14 q 490 -6 522 -14 q 431 19 458 3 q 394 61 404 36 l 381 61 q 344 19 369 36 q 287 -6 318 3 q 229 -14 256 -14 z "},"ẃ":{"ha":1056,"x_min":42,"x_max":1014,"o":"m 301 -14 q 164 26 222 -14 q 74 131 106 65 q 42 276 42 197 l 42 972 l 250 972 l 250 267 q 275 205 250 231 q 331 179 300 179 q 391 205 367 179 q 415 267 415 231 l 415 972 l 636 972 l 636 269 q 660 206 636 232 q 719 179 685 179 q 782 206 757 179 q 807 269 807 232 l 807 972 l 1014 972 l 1014 276 q 983 131 1014 197 q 892 26 951 65 q 744 -14 832 -14 q 664 -1 706 -14 q 588 38 622 11 q 539 106 554 65 l 515 106 q 426 15 489 44 q 301 -14 364 -14 m 276 1115 l 768 1206 l 779 1146 l 288 1056 l 276 1115 z "},"ŵ":{"ha":1056,"x_min":42,"x_max":1014,"o":"m 301 -14 q 164 26 222 -14 q 74 131 106 65 q 42 276 42 197 l 42 972 l 250 972 l 250 267 q 275 205 250 231 q 331 179 300 179 q 391 205 367 179 q 415 267 415 231 l 415 972 l 636 972 l 636 269 q 660 206 636 232 q 719 179 685 179 q 782 206 757 179 q 807 269 807 232 l 807 972 l 1014 972 l 1014 276 q 983 131 1014 197 q 892 26 951 65 q 744 -14 832 -14 q 664 -1 706 -14 q 588 38 622 11 q 539 106 554 65 l 515 106 q 426 15 489 44 q 301 -14 364 -14 m 261 1028 l 232 1081 l 528 1229 l 824 1081 l 794 1028 l 542 1156 l 514 1156 l 261 1028 z "},"ẅ":{"ha":1056,"x_min":42,"x_max":1014,"o":"m 301 -14 q 164 26 222 -14 q 74 131 106 65 q 42 276 42 197 l 42 972 l 250 972 l 250 267 q 275 205 250 231 q 331 179 300 179 q 391 205 367 179 q 415 267 415 231 l 415 972 l 636 972 l 636 269 q 660 206 636 232 q 719 179 685 179 q 782 206 757 179 q 807 269 807 232 l 807 972 l 1014 972 l 1014 276 q 983 131 1014 197 q 892 26 951 65 q 744 -14 832 -14 q 664 -1 706 -14 q 588 38 622 11 q 539 106 554 65 l 515 106 q 426 15 489 44 q 301 -14 364 -14 m 363 1201 l 493 1201 l 493 1057 l 363 1057 l 363 1201 m 568 1201 l 699 1201 l 699 1057 l 568 1057 l 568 1201 z "},"ẁ":{"ha":1056,"x_min":42,"x_max":1014,"o":"m 301 -14 q 164 26 222 -14 q 74 131 106 65 q 42 276 42 197 l 42 972 l 250 972 l 250 267 q 275 205 250 231 q 331 179 300 179 q 391 205 367 179 q 415 267 415 231 l 415 972 l 636 972 l 636 269 q 660 206 636 232 q 719 179 685 179 q 782 206 757 179 q 807 269 807 232 l 807 972 l 1014 972 l 1014 276 q 983 131 1014 197 q 892 26 951 65 q 744 -14 832 -14 q 664 -1 706 -14 q 588 38 622 11 q 539 106 554 65 l 515 106 q 426 15 489 44 q 301 -14 364 -14 m 779 1115 l 768 1056 l 276 1146 l 288 1206 l 779 1115 z "},"x":{"ha":569,"x_min":42,"x_max":528,"o":"m 42 0 l 42 21 l 175 486 l 42 951 l 42 972 l 247 972 l 276 660 l 294 660 l 324 972 l 528 972 l 528 951 l 396 486 l 528 21 l 528 0 l 322 0 l 294 313 l 276 313 l 249 0 l 42 0 z "},"y":{"ha":571,"x_min":42,"x_max":528,"o":"m 182 0 l 182 432 l 42 951 l 42 972 l 249 972 l 276 611 l 294 611 l 322 972 l 528 972 l 528 951 l 389 432 l 389 0 l 182 0 z "},"ý":{"ha":1056,"x_min":42,"x_max":1014,"o":"m 779 972 l 1014 972 l 1014 951 l 632 432 l 632 0 l 424 0 l 424 432 l 42 951 l 42 972 l 278 972 l 518 611 l 538 611 l 779 972 m 276 1088 l 768 1178 l 779 1118 l 288 1028 l 276 1088 z "},"ŷ":{"ha":1056,"x_min":42,"x_max":1014,"o":"m 779 972 l 1014 972 l 1014 951 l 632 432 l 632 0 l 424 0 l 424 432 l 42 951 l 42 972 l 278 972 l 518 611 l 538 611 l 779 972 m 261 1028 l 232 1081 l 528 1229 l 824 1081 l 794 1028 l 542 1156 l 514 1156 l 261 1028 z "},"ÿ":{"ha":1056,"x_min":42,"x_max":1014,"o":"m 779 972 l 1014 972 l 1014 951 l 632 432 l 632 0 l 424 0 l 424 432 l 42 951 l 42 972 l 278 972 l 518 611 l 538 611 l 779 972 m 363 1201 l 493 1201 l 493 1057 l 363 1057 l 363 1201 m 568 1201 l 699 1201 l 699 1057 l 568 1057 l 568 1201 z "},"ỵ":{"ha":1056,"x_min":42,"x_max":1014,"o":"m 779 972 l 1014 972 l 1014 951 l 632 432 l 632 0 l 424 0 l 424 432 l 42 951 l 42 972 l 278 972 l 518 611 l 538 611 l 779 972 m 417 -64 l 639 -64 l 639 -190 l 417 -190 l 417 -64 z "},"ỳ":{"ha":1056,"x_min":42,"x_max":1014,"o":"m 779 972 l 1014 972 l 1014 951 l 632 432 l 632 0 l 424 0 l 424 432 l 42 951 l 42 972 l 278 972 l 518 611 l 538 611 l 779 972 m 779 1088 l 768 1028 l 276 1118 l 288 1178 l 779 1088 z "},"ỷ":{"ha":1056,"x_min":42,"x_max":1014,"o":"m 779 972 l 1014 972 l 1014 951 l 632 432 l 632 0 l 424 0 l 424 432 l 42 951 l 42 972 l 278 972 l 518 611 l 538 611 l 779 972 m 489 1028 q 508 1082 489 1065 q 554 1106 528 1099 q 600 1122 581 1114 q 619 1150 619 1129 q 588 1187 619 1178 q 528 1196 556 1196 q 467 1186 499 1196 q 435 1147 435 1176 l 435 1136 l 365 1136 l 365 1150 q 413 1229 365 1200 q 528 1258 460 1258 q 642 1229 596 1258 q 689 1150 689 1200 q 670 1095 689 1111 q 627 1073 651 1079 q 584 1059 603 1067 q 565 1028 565 1051 l 489 1028 z "},"ỹ":{"ha":1056,"x_min":42,"x_max":1014,"o":"m 779 972 l 1014 972 l 1014 951 l 632 432 l 632 0 l 424 0 l 424 432 l 42 951 l 42 972 l 278 972 l 518 611 l 538 611 l 779 972 m 269 1056 q 282 1115 269 1081 q 326 1175 294 1149 q 411 1206 357 1201 q 497 1192 460 1210 q 565 1151 533 1174 q 631 1117 597 1129 q 689 1113 669 1104 q 715 1144 708 1122 q 722 1190 722 1165 l 786 1190 q 747 1080 786 1114 q 639 1056 708 1046 q 556 1086 592 1063 q 488 1131 519 1110 q 419 1150 456 1153 q 356 1119 376 1147 q 333 1056 336 1090 l 269 1056 z "},"z":{"ha":503,"x_min":42,"x_max":458,"o":"m 42 0 l 42 186 l 250 764 l 250 792 l 42 792 l 42 972 l 458 972 l 458 792 l 250 207 l 250 179 l 458 179 l 458 0 l 42 0 z "},"ź":{"ha":958,"x_min":42,"x_max":917,"o":"m 42 0 l 42 186 l 653 771 l 653 792 l 42 792 l 42 972 l 917 972 l 917 792 l 306 200 l 306 179 l 917 179 l 917 0 l 42 0 m 228 1115 l 719 1206 l 731 1146 l 239 1056 l 228 1115 z "},"ž":{"ha":958,"x_min":42,"x_max":917,"o":"m 42 0 l 42 186 l 653 771 l 653 792 l 42 792 l 42 972 l 917 972 l 917 792 l 306 200 l 306 179 l 917 179 l 917 0 l 42 0 m 213 1225 l 465 1097 l 493 1097 l 746 1225 l 775 1172 l 479 1024 l 183 1172 l 213 1225 z "},"ż":{"ha":958,"x_min":42,"x_max":917,"o":"m 42 0 l 42 186 l 653 771 l 653 792 l 42 792 l 42 972 l 917 972 l 917 792 l 306 200 l 306 179 l 917 179 l 917 0 l 42 0 m 417 1201 l 547 1201 l 547 1057 l 417 1057 l 417 1201 z "},"ª":{"ha":326,"x_min":42,"x_max":285,"o":"m 151 486 q 92 503 117 486 q 55 547 68 519 q 42 608 42 574 l 42 676 q 58 737 42 710 q 102 781 75 764 q 164 797 129 797 l 182 797 l 182 886 q 176 899 182 893 q 164 904 171 904 q 151 899 156 904 q 146 886 146 893 l 146 815 l 42 815 l 42 865 q 58 926 42 899 q 102 969 75 953 q 164 986 129 986 q 224 969 197 986 q 268 926 251 953 q 285 865 285 899 l 285 493 l 213 493 l 213 518 l 206 518 q 181 494 197 501 q 151 486 165 486 m 164 583 q 176 588 171 583 q 182 601 182 593 l 182 700 l 164 700 q 151 695 156 700 q 146 682 146 690 l 146 601 q 151 588 146 593 q 164 583 156 583 z "},"º":{"ha":326,"x_min":42,"x_max":285,"o":"m 164 486 q 102 503 129 486 q 58 547 75 519 q 42 608 42 574 l 42 865 q 58 926 42 899 q 102 969 75 953 q 164 986 129 986 q 224 969 197 986 q 268 926 251 953 q 285 865 285 899 l 285 608 q 268 547 285 574 q 224 503 251 519 q 164 486 197 486 m 164 578 q 176 583 171 578 q 181 596 181 588 l 181 878 q 176 890 181 885 q 164 896 171 896 q 151 890 156 896 q 146 878 146 885 l 146 596 q 151 583 146 588 q 164 578 156 578 z "},"⁄":{"ha":361,"x_min":42,"x_max":319,"o":"m 42 -64 l 42 -43 l 285 1029 l 319 1029 l 319 1008 l 76 -64 l 42 -64 z "}," ":{"ha":278,"x_min":0,"x_max":0,"o":""}," ":{"ha":278,"x_min":0,"x_max":0,"o":""},".":{"ha":340,"x_min":69,"x_max":271,"o":"m 69 208 l 271 208 l 271 -14 l 69 -14 l 69 208 z "},",":{"ha":250,"x_min":69,"x_max":181,"o":"m 69 -197 l 69 179 l 181 179 l 181 53 l 125 -197 l 69 -197 z "},":":{"ha":333,"x_min":111,"x_max":222,"o":"m 111 740 l 222 740 l 222 532 l 111 532 l 111 740 m 111 403 l 222 403 l 222 194 l 111 194 l 111 403 z "},";":{"ha":278,"x_min":83,"x_max":194,"o":"m 83 740 l 194 740 l 194 532 l 83 532 l 83 740 m 83 26 l 83 403 l 194 403 l 194 276 l 139 26 l 83 26 z "},"…":{"ha":1000,"x_min":69,"x_max":938,"o":"m 736 208 l 938 208 l 938 -14 l 736 -14 l 736 208 m 403 208 l 604 208 l 604 -14 l 403 -14 l 403 208 m 69 208 l 271 208 l 271 -14 l 69 -14 l 69 208 z "},"!":{"ha":292,"x_min":42,"x_max":250,"o":"m 83 264 l 42 972 l 250 972 l 208 264 l 83 264 m 69 0 l 69 179 l 222 179 l 222 0 l 69 0 z "},"¡":{"ha":292,"x_min":42,"x_max":250,"o":"m 83 528 l 208 528 l 250 -181 l 42 -181 l 83 528 m 69 792 l 222 792 l 222 613 l 69 613 l 69 792 z "},"?":{"ha":569,"x_min":42,"x_max":528,"o":"m 197 264 q 213 432 197 365 q 249 542 228 499 q 293 617 271 586 q 329 674 315 647 q 340 736 343 701 q 324 776 339 760 q 285 792 308 792 q 247 776 263 792 q 231 736 231 760 l 231 600 l 42 600 l 42 729 q 75 852 42 797 q 163 940 108 907 q 285 972 218 972 q 408 940 353 972 q 495 852 463 907 q 528 729 528 797 q 509 633 528 672 q 462 562 490 594 q 405 491 433 529 q 358 399 376 453 q 339 264 339 346 l 197 264 m 192 0 l 192 179 l 344 179 l 344 0 l 192 0 z "},"¿":{"ha":569,"x_min":42,"x_max":528,"o":"m 372 528 q 357 360 372 426 q 320 249 342 293 q 276 175 299 206 q 241 117 254 144 q 229 56 228 90 q 247 17 231 33 q 285 0 263 0 q 323 17 307 0 q 339 56 339 33 l 339 192 l 528 192 l 528 63 q 495 -60 528 -4 q 407 -148 463 -115 q 285 -181 351 -181 q 163 -148 218 -181 q 74 -60 107 -115 q 42 63 42 -4 q 60 158 42 119 q 108 230 79 197 q 165 301 136 263 q 212 393 193 339 q 231 528 231 447 l 372 528 m 378 792 l 378 613 l 225 613 l 225 792 l 378 792 z "},"·":{"ha":333,"x_min":69,"x_max":271,"o":"m 69 626 l 271 626 l 271 404 l 69 404 l 69 626 z "},"•":{"ha":583,"x_min":97,"x_max":500,"o":"m 97 765 l 500 765 l 500 321 l 97 321 l 97 765 z "},"*":{"ha":586,"x_min":42,"x_max":544,"o":"m 272 417 l 272 658 l 63 538 l 42 574 l 251 694 l 43 815 l 64 851 l 272 731 l 272 972 l 314 972 l 314 731 l 522 851 l 543 815 l 335 694 l 544 574 l 524 538 l 314 658 l 314 417 l 272 417 z "},"#":{"ha":783,"x_min":42,"x_max":742,"o":"m 246 0 l 246 317 l 42 317 l 42 358 l 246 358 l 246 614 l 42 614 l 42 656 l 246 656 l 246 972 l 288 972 l 288 656 l 496 656 l 496 972 l 538 972 l 538 656 l 742 656 l 742 614 l 538 614 l 538 358 l 742 358 l 742 317 l 538 317 l 538 0 l 496 0 l 496 317 l 288 317 l 288 0 l 246 0 m 288 358 l 496 358 l 496 614 l 288 614 l 288 358 z "},"/":{"ha":361,"x_min":42,"x_max":319,"o":"m 42 -64 l 42 -43 l 285 1029 l 319 1029 l 319 1008 l 76 -64 l 42 -64 z "},"\\":{"ha":361,"x_min":42,"x_max":319,"o":"m 319 -64 l 285 -64 l 42 1008 l 42 1029 l 76 1029 l 319 -43 l 319 -64 z "},"-":{"ha":504,"x_min":69,"x_max":435,"o":"m 69 451 l 69 521 l 435 521 l 435 451 l 69 451 z "},"–":{"ha":625,"x_min":69,"x_max":556,"o":"m 69 451 l 69 521 l 556 521 l 556 451 l 69 451 z "},"—":{"ha":1111,"x_min":69,"x_max":1042,"o":"m 69 451 l 69 521 l 1042 521 l 1042 451 l 69 451 z "},"_":{"ha":569,"x_min":69,"x_max":556,"o":"m 69 -83 l 69 -14 l 556 -14 l 556 -83 l 69 -83 z "},"(":{"ha":383,"x_min":42,"x_max":342,"o":"m 322 -64 q 290 -43 319 -62 q 219 16 260 -24 q 137 119 178 56 q 69 272 96 182 q 42 483 42 363 q 69 694 42 604 q 137 848 96 785 q 219 951 178 911 q 290 1009 260 990 q 322 1029 319 1028 l 342 986 q 266 933 310 969 q 181 837 222 897 q 111 689 139 776 q 83 483 83 601 q 113 274 83 364 q 185 122 142 183 q 272 24 229 60 q 342 -21 315 -11 l 322 -64 z "},")":{"ha":383,"x_min":42,"x_max":342,"o":"m 61 -64 l 42 -21 q 112 24 69 -11 q 198 122 154 60 q 271 274 242 183 q 300 483 300 364 q 272 689 300 601 q 203 837 244 776 q 117 933 161 897 q 42 986 74 969 l 61 1029 q 94 1009 64 1028 q 165 951 124 990 q 247 848 206 911 q 315 694 288 785 q 342 483 342 604 q 315 272 342 363 q 247 119 288 182 q 165 16 206 56 q 94 -43 124 -24 q 61 -64 64 -62 z "},"{":{"ha":449,"x_min":42,"x_max":407,"o":"m 407 -75 q 285 -44 340 -75 q 196 44 229 -14 q 163 181 163 101 l 163 263 q 147 359 163 322 q 103 420 131 396 q 42 465 75 444 l 42 507 q 99 540 72 524 q 144 585 126 556 q 163 674 163 615 l 163 792 q 196 918 163 861 q 284 1008 229 975 q 406 1042 339 1042 l 406 1000 q 321 977 368 1000 q 239 908 274 954 q 204 792 204 861 l 204 674 q 183 567 204 606 q 96 496 163 529 l 96 475 q 164 424 140 451 q 196 358 188 396 q 204 263 204 319 l 204 179 q 224 80 204 119 q 276 17 244 40 q 342 -15 308 -6 q 406 -25 376 -25 l 407 -75 z "},"}":{"ha":449,"x_min":42,"x_max":407,"o":"m 42 -75 l 43 -25 q 106 -15 72 -25 q 172 17 140 -6 q 224 80 204 40 q 244 179 244 119 l 244 263 q 253 358 244 319 q 285 424 261 396 q 353 475 308 451 l 353 496 q 265 567 286 529 q 244 674 244 606 l 244 792 q 210 908 244 861 q 128 977 175 954 q 43 1000 82 1000 l 43 1042 q 165 1008 110 1042 q 253 918 221 975 q 286 792 286 861 l 286 674 q 304 585 286 615 q 350 540 322 556 q 407 507 378 524 l 407 465 q 347 420 374 444 q 303 359 319 396 q 286 263 286 322 l 286 181 q 253 44 286 101 q 164 -44 219 -14 q 42 -75 108 -75 z "},"[":{"ha":289,"x_min":42,"x_max":219,"o":"m 42 -56 l 42 1028 l 219 1028 l 219 986 l 83 986 l 83 -14 l 219 -14 l 219 -56 l 42 -56 z "},"]":{"ha":289,"x_min":69,"x_max":247,"o":"m 247 -56 l 69 -56 l 69 -14 l 206 -14 l 206 986 l 69 986 l 69 1028 l 247 1028 l 247 -56 z "},"‚":{"ha":276,"x_min":69,"x_max":181,"o":"m 69 -197 l 69 179 l 181 179 l 181 53 l 125 -197 l 69 -197 z "},"„":{"ha":417,"x_min":69,"x_max":347,"o":"m 69 -197 l 69 179 l 181 179 l 181 53 l 125 -197 l 69 -197 m 236 -197 l 236 179 l 347 179 l 347 53 l 292 -197 l 236 -197 z "},"“":{"ha":417,"x_min":69,"x_max":347,"o":"m 347 1168 l 347 792 l 236 792 l 236 918 l 292 1168 l 347 1168 m 181 1168 l 181 792 l 69 792 l 69 918 l 125 1168 l 181 1168 z "},"”":{"ha":417,"x_min":69,"x_max":347,"o":"m 69 693 l 69 1069 l 181 1069 l 181 943 l 125 693 l 69 693 m 236 693 l 236 1069 l 347 1069 l 347 943 l 292 693 l 236 693 z "},"‘":{"ha":250,"x_min":69,"x_max":181,"o":"m 181 1168 l 181 792 l 69 792 l 69 918 l 125 1168 l 181 1168 z "},"’":{"ha":250,"x_min":69,"x_max":181,"o":"m 69 693 l 69 1069 l 181 1069 l 181 943 l 125 693 l 69 693 z "},"«":{"ha":561,"x_min":42,"x_max":519,"o":"m 394 674 l 94 433 l 94 422 l 393 182 l 372 160 l 42 428 l 372 694 l 394 674 m 519 674 l 219 433 l 219 422 l 518 182 l 497 160 l 167 428 l 497 694 l 519 674 z "},"»":{"ha":561,"x_min":42,"x_max":519,"o":"m 167 674 l 189 694 l 519 428 l 189 160 l 168 182 l 467 422 l 467 433 l 167 674 m 42 674 l 64 694 l 394 428 l 64 160 l 43 182 l 342 422 l 342 433 l 42 674 z "},"‹":{"ha":436,"x_min":42,"x_max":394,"o":"m 394 674 l 94 433 l 94 422 l 393 182 l 372 160 l 42 428 l 372 694 l 394 674 z "},"›":{"ha":436,"x_min":42,"x_max":394,"o":"m 42 674 l 64 694 l 394 428 l 64 160 l 43 182 l 342 422 l 342 433 l 42 674 z "},"\"":{"ha":264,"x_min":42,"x_max":222,"o":"m 167 743 l 153 1000 l 153 1028 l 222 1028 l 222 1000 l 208 743 l 167 743 m 56 743 l 42 1000 l 42 1028 l 111 1028 l 111 1000 l 97 743 l 56 743 z "},"'":{"ha":153,"x_min":42,"x_max":111,"o":"m 56 743 l 42 1000 l 42 1028 l 111 1028 l 111 1000 l 99 743 l 56 743 z "},"☺":{"ha":975,"x_min":42,"x_max":933,"o":"m 488 986 q 726 920 626 986 q 879 741 825 854 q 933 486 933 628 q 879 231 933 344 q 726 52 825 118 q 488 -14 626 -14 q 249 52 349 -14 q 95 231 149 118 q 42 486 42 344 q 95 741 42 628 q 249 920 149 854 q 488 986 349 986 m 892 483 q 845 719 892 615 q 709 882 799 822 q 490 942 619 942 q 269 883 360 942 q 131 720 178 824 q 83 483 83 617 q 131 248 83 350 q 269 88 178 146 q 490 31 360 31 q 709 90 619 31 q 845 251 799 149 q 892 483 892 353 m 221 643 l 363 643 l 363 488 l 221 488 l 221 643 m 585 643 l 726 643 l 726 488 l 585 488 l 585 643 m 488 204 q 383 249 426 204 q 340 358 340 294 l 379 358 q 413 289 383 315 q 488 263 443 263 q 562 289 533 263 q 594 358 590 315 l 633 358 q 591 249 633 294 q 488 204 549 204 z "},"@":{"ha":692,"x_min":42,"x_max":650,"o":"m 346 0 q 193 41 263 0 q 83 151 124 82 q 42 304 42 221 l 42 682 q 83 835 42 767 q 193 945 124 904 q 346 986 263 986 q 499 947 431 986 q 609 842 568 908 q 650 692 650 776 l 650 421 q 624 326 650 369 q 556 258 599 283 q 461 232 514 232 q 367 258 410 232 q 298 326 324 283 q 272 421 272 369 l 272 547 q 299 647 272 600 q 378 714 325 694 q 508 704 431 733 l 518 715 q 451 790 490 768 q 351 806 411 811 q 242 752 288 800 q 197 640 197 704 l 197 333 q 237 224 197 269 q 351 179 276 179 l 597 179 l 597 0 l 346 0 m 461 399 q 494 413 481 399 q 508 447 508 426 l 508 544 q 494 580 508 565 q 461 594 481 594 q 426 580 440 594 q 413 544 413 565 l 413 447 q 426 413 413 426 q 461 399 440 399 z "},"&":{"ha":707,"x_min":42,"x_max":665,"o":"m 292 -14 q 165 20 222 -14 q 75 111 108 54 q 42 236 42 168 l 42 401 q 60 488 42 456 q 105 538 79 521 q 153 563 131 556 l 153 590 l 42 643 l 42 851 l 625 986 l 625 806 l 222 750 l 222 722 l 625 638 l 625 457 l 540 486 l 540 292 q 577 203 540 240 q 665 167 614 167 l 665 -14 q 547 19 593 -14 q 492 88 500 53 l 464 88 q 410 17 456 49 q 292 -14 365 -14 m 292 167 q 340 187 319 167 q 360 236 360 207 l 360 486 l 292 486 q 242 467 263 486 q 222 419 222 447 l 222 236 q 243 187 222 207 q 292 167 264 167 z "},"¶":{"ha":510,"x_min":42,"x_max":468,"o":"m 315 0 l 315 425 q 178 462 240 425 q 78 561 115 499 q 42 699 42 624 q 78 837 42 775 q 178 935 115 899 q 315 972 240 972 l 357 972 l 357 0 l 315 0 m 426 0 l 426 972 l 468 972 l 468 0 l 426 0 z "},"§":{"ha":521,"x_min":42,"x_max":479,"o":"m 261 -61 q 151 -32 201 -61 q 72 47 101 -3 q 42 157 42 97 l 83 157 q 108 68 83 108 q 172 3 132 28 q 261 -21 213 -21 q 350 3 310 -21 q 415 68 390 28 q 439 157 439 108 q 394 277 439 231 q 236 335 350 324 q 92 385 143 344 q 42 485 42 426 q 65 570 42 542 q 128 618 89 599 l 128 646 q 63 720 85 676 q 42 814 42 764 q 72 924 42 875 q 151 1003 101 974 q 261 1032 201 1032 q 372 1003 322 1032 q 450 924 421 974 q 479 814 479 875 l 436 814 q 412 901 436 863 q 348 964 388 940 q 261 988 308 988 q 174 964 214 988 q 109 901 133 940 q 85 814 85 863 q 110 727 85 765 q 175 666 135 689 q 261 639 215 643 q 422 596 365 631 q 479 485 479 561 q 463 426 479 463 q 394 358 447 389 l 394 331 q 458 253 438 300 q 479 157 479 206 q 450 47 479 97 q 372 -32 421 -3 q 261 -61 322 -61 m 261 378 q 347 388 307 378 q 412 422 388 397 q 436 489 436 446 q 391 566 436 533 q 261 599 346 599 q 149 584 188 599 q 98 544 111 569 q 85 489 85 519 q 137 406 85 433 q 261 378 189 378 z "},"©":{"ha":975,"x_min":42,"x_max":933,"o":"m 488 -14 q 249 52 349 -14 q 95 231 149 118 q 42 486 42 344 q 95 741 42 628 q 249 920 149 854 q 488 986 349 986 q 726 920 626 986 q 879 741 825 854 q 933 486 933 628 q 879 231 933 344 q 726 52 825 118 q 488 -14 626 -14 m 490 31 q 709 90 619 31 q 845 251 799 149 q 892 483 892 353 q 845 719 892 615 q 709 882 799 822 q 490 942 619 942 q 269 883 360 942 q 131 720 178 824 q 83 483 83 617 q 131 248 83 350 q 269 88 178 146 q 490 31 360 31 m 488 75 q 322 119 396 75 q 203 239 247 164 q 158 404 158 314 l 158 568 q 203 733 158 658 q 322 853 247 808 q 488 897 396 897 q 653 853 578 897 q 772 733 728 808 q 817 568 817 658 l 817 532 l 588 532 l 588 535 q 558 605 588 578 q 488 632 528 632 q 418 605 449 632 q 388 535 388 578 l 388 438 q 418 367 388 394 q 488 340 449 340 q 558 367 528 340 q 588 438 588 394 l 588 440 l 817 440 l 817 404 q 772 239 817 314 q 653 119 728 164 q 488 75 578 75 z "},"®":{"ha":708,"x_min":42,"x_max":667,"o":"m 354 286 q 191 334 261 286 q 81 462 121 382 q 42 636 42 542 q 81 810 42 731 q 191 938 121 890 q 354 986 261 986 q 517 938 447 986 q 627 810 588 890 q 667 636 667 731 q 627 462 667 542 q 517 334 588 382 q 354 286 447 286 m 214 369 l 214 886 l 382 886 q 481 844 439 886 q 522 744 522 803 l 522 694 q 508 636 522 661 q 464 600 493 611 l 464 586 q 497 542 483 574 q 516 470 510 511 q 522 389 522 429 q 599 494 572 429 q 625 635 625 558 q 592 789 625 719 q 500 899 560 858 q 356 940 440 940 q 210 900 271 940 q 116 790 149 860 q 83 635 83 721 q 117 478 83 547 q 214 369 151 408 m 356 663 l 360 663 q 376 667 368 663 q 383 694 383 672 l 383 738 q 376 764 383 758 q 360 769 368 769 l 356 769 l 356 663 m 353 332 l 356 332 q 369 332 363 332 q 383 333 376 332 l 383 386 q 384 444 383 422 q 381 483 385 465 q 367 524 378 500 l 353 524 l 353 332 z "},"™":{"ha":681,"x_min":42,"x_max":639,"o":"m 329 543 l 329 1029 l 415 1029 l 481 583 l 488 583 l 553 1029 l 639 1029 l 639 543 l 597 543 l 597 994 l 590 994 l 529 543 l 439 543 l 378 994 l 371 994 l 371 543 l 329 543 m 140 543 l 140 994 l 42 994 l 42 1029 l 278 1029 l 278 994 l 181 994 l 181 543 l 140 543 z "},"°":{"ha":438,"x_min":42,"x_max":396,"o":"m 218 632 q 129 656 169 632 q 65 719 89 679 q 42 808 42 760 q 65 899 42 858 q 129 963 89 939 q 218 986 169 986 q 308 963 268 986 q 372 899 349 939 q 396 808 396 858 q 372 719 396 760 q 308 656 349 679 q 218 632 268 632 m 217 675 q 314 713 275 675 q 353 807 353 751 q 314 904 353 865 q 217 943 275 943 q 123 904 161 943 q 85 807 85 865 q 123 713 85 751 q 217 675 161 675 z "},"|":{"ha":125,"x_min":42,"x_max":83,"o":"m 42 -69 l 42 1042 l 83 1042 l 83 -69 l 42 -69 z "},"¦":{"ha":125,"x_min":42,"x_max":83,"o":"m 42 607 l 42 1038 l 83 1038 l 83 607 l 42 607 m 42 -69 l 42 361 l 83 361 l 83 -69 l 42 -69 z "},"†":{"ha":569,"x_min":42,"x_max":528,"o":"m 306 972 l 306 694 l 528 694 l 528 653 l 306 653 l 306 0 l 264 0 l 264 653 l 42 653 l 42 694 l 264 694 l 264 972 l 306 972 z "},"‡":{"ha":569,"x_min":42,"x_max":528,"o":"m 306 972 l 306 694 l 528 694 l 528 653 l 306 653 l 306 319 l 528 319 l 528 278 l 306 278 l 306 0 l 264 0 l 264 278 l 42 278 l 42 319 l 264 319 l 264 653 l 42 653 l 42 694 l 264 694 l 264 972 l 306 972 z "},"¢":{"ha":569,"x_min":42,"x_max":528,"o":"m 264 -14 l 264 75 q 151 114 201 81 q 72 200 101 147 q 42 317 42 253 l 42 656 q 72 772 42 719 q 151 859 101 825 q 264 897 201 893 l 264 986 l 306 986 l 306 897 q 419 859 368 893 q 499 772 469 825 q 528 656 528 719 l 528 521 l 322 521 l 322 668 q 311 694 322 683 q 285 704 300 704 q 260 694 271 704 q 249 668 249 683 l 249 303 q 260 278 249 289 q 285 267 271 267 q 311 278 300 267 q 322 303 322 289 l 322 451 l 528 451 l 528 317 q 499 200 528 253 q 419 114 469 147 q 306 75 368 81 l 306 -14 l 264 -14 z "},"¤":{"ha":599,"x_min":42,"x_max":557,"o":"m 471 744 l 557 658 l 464 564 q 464 408 501 486 l 557 314 l 471 228 l 378 322 q 221 322 300 285 l 128 228 l 42 314 l 135 408 q 135 564 97 486 l 42 658 l 128 744 l 221 650 q 378 650 300 688 l 471 744 m 343 443 q 361 486 361 461 q 343 529 361 511 q 300 547 325 547 q 257 529 275 547 q 239 486 239 511 q 257 443 239 461 q 300 425 275 425 q 343 443 325 425 z "},"$":{"ha":569,"x_min":42,"x_max":528,"o":"m 264 -14 l 264 85 q 151 124 201 90 q 72 210 101 157 q 42 326 42 263 l 42 422 l 249 422 l 249 319 q 259 294 249 306 q 285 282 269 282 q 311 294 300 282 q 322 319 322 306 q 307 365 322 346 q 233 436 278 403 q 145 503 189 469 q 72 578 101 538 q 42 671 42 618 q 106 828 42 772 q 264 889 169 883 l 264 986 l 306 986 l 306 888 q 419 849 368 883 q 499 763 469 815 q 528 646 528 710 l 528 568 l 322 568 l 322 654 q 311 681 322 669 q 285 692 300 692 q 260 681 271 692 q 249 654 249 669 q 251 637 249 644 q 263 619 253 629 q 351 544 304 581 q 438 469 397 507 q 503 391 478 432 q 528 300 528 350 q 499 200 528 247 q 419 122 469 153 q 306 85 369 90 l 306 -14 l 264 -14 z "},"₫":{"ha":665,"x_min":42,"x_max":624,"o":"m 624 868 l 624 729 l 563 729 l 563 188 l 407 188 l 407 243 l 386 243 q 347 206 374 224 q 285 188 319 188 q 163 220 218 188 q 74 308 107 253 q 42 431 42 364 q 72 553 42 499 q 153 641 101 608 q 272 674 206 674 q 341 657 307 674 q 386 611 375 640 l 407 611 l 407 729 l 285 729 l 285 868 l 407 868 l 407 944 l 563 944 l 563 868 l 624 868 m 285 354 q 340 377 317 354 q 363 431 363 400 q 340 485 363 463 q 285 508 317 508 q 231 485 254 508 q 208 431 208 463 q 231 377 208 400 q 285 354 254 354 m 83 67 l 83 108 l 563 108 l 563 67 l 83 67 z "},"€":{"ha":650,"x_min":42,"x_max":608,"o":"m 365 -14 q 243 19 299 -14 q 155 106 188 51 q 122 229 122 161 l 122 432 l 42 432 l 42 471 l 122 471 l 122 500 l 42 500 l 42 540 l 122 540 l 122 743 q 155 866 122 811 q 243 953 188 921 q 365 986 299 986 q 488 953 432 986 q 576 866 543 921 q 608 743 608 811 l 608 604 l 444 604 l 444 694 q 422 751 444 728 q 365 775 399 775 q 308 751 331 775 q 285 694 285 728 l 285 540 l 526 540 l 526 499 l 285 499 l 285 474 l 526 474 l 526 432 l 285 432 l 285 258 q 308 203 285 226 q 365 179 331 179 q 422 203 399 179 q 444 258 444 226 l 444 368 l 608 368 l 608 229 q 576 106 608 161 q 488 19 543 51 q 365 -14 432 -14 z "},"£":{"ha":690,"x_min":42,"x_max":649,"o":"m 42 0 l 42 179 l 163 179 l 163 432 l 42 432 l 42 474 l 163 474 l 163 743 q 196 866 163 811 q 284 953 229 921 q 406 986 339 986 q 528 953 474 986 q 616 866 583 921 q 649 743 649 811 l 649 604 l 451 604 l 451 743 q 438 778 451 764 q 401 792 424 792 q 367 778 381 792 q 353 743 353 764 l 353 474 l 550 474 l 550 432 l 353 432 l 353 339 q 345 256 353 289 q 306 200 338 222 l 306 179 l 649 179 l 649 0 l 42 0 z "},"¥":{"ha":569,"x_min":42,"x_max":528,"o":"m 182 0 l 182 307 l 46 307 l 46 349 l 182 349 l 182 390 l 46 390 l 46 432 l 182 432 l 42 951 l 42 972 l 249 972 l 276 611 l 294 611 l 322 972 l 528 972 l 528 951 l 389 432 l 525 432 l 525 390 l 389 390 l 389 349 l 525 349 l 525 307 l 389 307 l 389 0 l 182 0 z "},"+":{"ha":813,"x_min":42,"x_max":771,"o":"m 386 122 l 386 465 l 42 465 l 42 507 l 386 507 l 386 851 l 428 851 l 428 507 l 771 507 l 771 465 l 428 465 l 428 122 l 386 122 z "},"−":{"ha":813,"x_min":42,"x_max":771,"o":"m 42 465 l 42 507 l 771 507 l 771 465 l 42 465 z "},"×":{"ha":813,"x_min":133,"x_max":679,"o":"m 135 243 l 376 485 l 133 729 l 163 758 l 407 515 l 650 758 l 679 729 l 436 485 l 679 243 l 649 213 l 407 456 l 164 213 l 135 243 z "},"÷":{"ha":813,"x_min":42,"x_max":771,"o":"m 42 465 l 42 507 l 771 507 l 771 465 l 42 465 m 308 828 l 510 828 l 510 606 l 308 606 l 308 828 m 310 340 l 511 340 l 511 118 l 310 118 l 310 340 z "},"=":{"ha":813,"x_min":42,"x_max":771,"o":"m 42 647 l 42 689 l 771 689 l 771 647 l 42 647 m 42 283 l 42 325 l 771 325 l 771 283 l 42 283 z "},"≠":{"ha":813,"x_min":42,"x_max":771,"o":"m 544 1029 l 544 1008 l 472 689 l 771 689 l 771 647 l 463 647 l 389 325 l 771 325 l 771 283 l 381 283 l 301 -64 l 267 -64 l 267 -43 l 340 283 l 42 283 l 42 325 l 350 325 l 424 647 l 42 647 l 42 689 l 432 689 l 510 1029 l 544 1029 z "},">":{"ha":813,"x_min":190,"x_max":624,"o":"m 221 83 l 192 114 l 564 479 l 564 493 l 190 860 l 221 889 l 624 486 l 221 83 z "},"<":{"ha":813,"x_min":42,"x_max":475,"o":"m 444 83 l 42 486 l 444 889 l 475 860 l 101 493 l 101 479 l 474 114 l 444 83 z "},"≥":{"ha":813,"x_min":164,"x_max":650,"o":"m 168 860 l 199 889 l 650 525 l 199 160 l 169 190 l 578 518 l 578 532 l 168 860 m 164 0 l 164 42 l 650 42 l 650 0 l 164 0 z "},"≤":{"ha":813,"x_min":42,"x_max":528,"o":"m 524 860 l 114 532 l 114 518 l 522 190 l 493 160 l 42 525 l 493 889 l 524 860 m 528 0 l 42 0 l 42 42 l 528 42 l 528 0 z "},"±":{"ha":813,"x_min":125,"x_max":688,"o":"m 426 889 l 426 546 l 688 546 l 688 504 l 426 504 l 426 217 l 385 217 l 385 504 l 125 504 l 125 546 l 385 546 l 385 889 l 426 889 m 125 0 l 125 42 l 688 42 l 688 0 l 125 0 z "},"≈":{"ha":813,"x_min":42,"x_max":771,"o":"m 729 804 l 771 804 q 742 626 771 690 q 666 542 713 563 q 568 535 619 522 q 498 572 526 546 q 447 629 469 597 q 401 692 425 661 q 344 744 376 722 q 263 769 311 765 q 178 755 218 774 q 113 683 139 736 q 83 532 88 631 l 42 532 q 63 672 42 611 q 132 769 85 733 q 254 804 179 804 q 346 783 308 804 q 411 729 383 761 q 464 663 439 697 q 517 603 489 629 q 585 567 546 576 q 673 583 642 554 q 717 672 704 613 q 729 804 729 731 m 729 440 l 771 440 q 742 263 771 326 q 666 178 713 199 q 568 171 619 158 q 498 208 526 182 q 447 265 469 233 q 401 328 425 297 q 344 380 376 358 q 263 406 311 401 q 178 391 218 410 q 113 319 139 372 q 83 168 88 267 l 42 168 q 63 308 42 247 q 132 405 85 369 q 254 440 179 440 q 346 419 308 440 q 411 365 383 397 q 464 299 439 333 q 517 239 489 265 q 585 203 546 213 q 673 219 642 190 q 717 308 704 249 q 729 440 729 367 z "},"~":{"ha":813,"x_min":42,"x_max":771,"o":"m 42 350 q 63 490 42 429 q 132 587 85 551 q 254 622 179 622 q 346 601 308 622 q 411 547 383 579 q 464 481 439 515 q 517 421 489 447 q 585 385 546 394 q 673 401 642 372 q 717 490 704 431 q 729 622 729 549 l 771 622 q 742 444 771 508 q 666 360 713 381 q 568 353 619 340 q 498 390 526 364 q 447 447 469 415 q 401 510 425 479 q 344 562 376 540 q 263 588 311 583 q 178 573 218 592 q 113 501 139 554 q 83 350 88 449 l 42 350 z "},"¬":{"ha":813,"x_min":164,"x_max":650,"o":"m 164 625 l 164 667 l 650 667 l 650 365 l 608 365 l 608 625 l 164 625 z "},"^":{"ha":813,"x_min":164,"x_max":650,"o":"m 164 608 l 407 972 l 650 608 l 594 608 l 414 890 l 401 890 l 219 608 l 164 608 z "},"∅":{"ha":975,"x_min":42,"x_max":933,"o":"m 699 935 q 872 756 810 875 q 933 486 933 636 q 879 231 933 344 q 726 52 825 118 q 488 -14 626 -14 q 317 18 393 -14 l 282 -64 l 247 -64 l 247 -43 l 279 35 q 103 215 165 94 q 42 486 42 335 q 95 741 42 628 q 249 920 149 854 q 488 986 349 986 q 580 977 536 986 q 663 953 624 968 l 694 1029 l 729 1029 l 729 1008 l 699 935 m 83 483 q 138 233 83 340 q 296 74 192 126 l 646 914 q 490 942 575 942 q 269 883 360 942 q 131 720 178 824 q 83 483 83 617 m 490 31 q 709 90 619 31 q 845 251 799 149 q 892 483 892 353 q 838 733 892 624 q 683 897 785 843 l 332 57 q 408 38 368 44 q 490 31 447 31 z "},"∞":{"ha":692,"x_min":42,"x_max":650,"o":"m 499 694 q 606 650 561 694 q 650 542 650 606 l 650 440 q 606 333 650 378 q 499 289 561 289 q 408 319 447 289 q 353 394 368 349 l 339 394 q 285 319 325 349 q 194 289 246 289 q 86 333 131 289 q 42 440 42 378 l 42 542 q 86 650 42 606 q 194 694 131 694 q 285 665 246 694 q 339 588 325 635 l 353 588 q 408 665 368 635 q 499 694 447 694 m 522 547 q 515 565 522 558 q 499 572 508 572 q 481 565 489 572 q 474 547 474 558 l 474 435 q 499 411 474 411 q 515 418 508 411 q 522 435 522 425 l 522 547 m 218 547 q 211 565 218 558 q 194 572 204 572 q 177 565 185 572 q 169 547 169 558 l 169 435 q 177 418 169 425 q 194 411 185 411 q 211 418 204 411 q 218 435 218 425 l 218 547 z "},"∫":{"ha":489,"x_min":42,"x_max":447,"o":"m 243 729 q 268 846 243 790 q 339 937 293 901 q 447 972 385 972 l 447 932 q 362 904 399 932 q 305 831 325 876 q 285 729 285 785 l 285 243 q 215 61 285 122 q 42 0 146 0 l 42 42 q 194 92 146 42 q 243 243 243 143 l 243 729 z "},"∏":{"ha":690,"x_min":42,"x_max":649,"o":"m 42 931 l 42 972 l 649 972 l 649 931 l 497 931 l 497 -14 l 456 -14 l 456 931 l 235 931 l 235 -14 l 193 -14 l 193 931 l 42 931 z "},"∑":{"ha":569,"x_min":42,"x_max":528,"o":"m 42 903 l 42 972 l 528 972 l 528 931 l 89 931 l 89 917 l 493 500 l 493 471 l 89 56 l 89 42 l 528 42 l 528 0 l 42 0 l 42 69 l 438 482 l 438 489 l 42 903 z "},"√":{"ha":726,"x_min":42,"x_max":685,"o":"m 196 47 l 217 47 l 456 972 l 685 972 l 685 931 l 490 931 l 250 0 l 163 0 l 42 365 l 90 365 l 196 47 z "},"∂":{"ha":569,"x_min":42,"x_max":528,"o":"m 285 -14 q 163 19 218 -14 q 75 106 108 51 q 42 229 42 161 l 42 365 q 44 432 42 396 q 58 503 46 468 q 96 568 69 539 q 172 613 122 597 q 212 618 188 618 q 260 610 236 618 q 300 583 285 603 l 321 583 l 321 756 q 310 781 321 771 q 285 792 300 792 q 260 781 271 792 q 250 756 250 771 l 250 694 l 42 694 l 42 742 q 75 865 42 810 q 163 953 108 919 q 285 986 218 986 q 408 953 353 986 q 495 866 463 921 q 528 743 528 811 l 528 229 q 495 106 528 161 q 408 19 463 51 q 285 -14 353 -14 m 285 179 q 310 190 300 179 q 321 214 321 200 l 321 397 q 310 422 321 413 q 285 432 300 432 q 260 422 271 432 q 250 397 250 413 l 250 214 q 260 190 250 200 q 285 179 271 179 z "},"%":{"ha":825,"x_min":42,"x_max":783,"o":"m 269 -64 l 269 -43 l 513 1029 l 547 1029 l 547 1008 l 304 -64 l 269 -64 m 194 567 q 86 611 131 567 q 42 719 42 656 l 42 821 q 86 928 42 883 q 194 972 131 972 q 301 928 257 972 q 346 821 346 883 l 346 719 q 301 611 346 656 q 194 567 257 567 m 194 688 q 211 695 204 688 q 218 713 218 703 l 218 826 q 211 844 218 838 q 194 851 204 851 q 177 844 185 851 q 169 826 169 838 l 169 713 q 177 695 169 703 q 194 688 185 688 m 632 0 q 524 44 568 0 q 479 151 479 89 l 479 253 q 524 361 479 317 q 632 406 568 406 q 739 361 694 406 q 783 253 783 317 l 783 151 q 739 44 783 89 q 632 0 694 0 m 632 122 q 649 129 642 122 q 656 146 656 136 l 656 258 q 649 276 656 269 q 632 283 642 283 q 615 276 622 283 q 607 258 607 269 l 607 146 q 615 129 607 136 q 632 122 622 122 z "},"‰":{"ha":1129,"x_min":42,"x_max":1088,"o":"m 269 -64 l 269 -43 l 513 1029 l 547 1029 l 547 1008 l 304 -64 l 269 -64 m 346 719 q 301 611 346 656 q 194 567 257 567 q 86 611 131 567 q 42 719 42 656 l 42 821 q 86 928 42 883 q 194 972 131 972 q 301 928 257 972 q 346 821 346 883 l 346 719 m 169 713 q 177 695 169 703 q 194 688 185 688 q 211 695 204 688 q 218 713 218 703 l 218 826 q 211 844 218 838 q 194 851 204 851 q 177 844 185 851 q 169 826 169 838 l 169 713 m 936 406 q 1043 361 999 406 q 1088 253 1088 317 l 1088 151 q 1043 44 1088 89 q 936 0 999 0 q 845 30 885 0 q 790 106 806 60 l 776 106 q 723 30 763 60 q 632 0 683 0 q 524 44 568 0 q 479 151 479 89 l 479 253 q 524 361 479 317 q 632 406 568 406 q 723 376 683 406 q 776 299 763 346 l 790 299 q 845 376 806 346 q 936 406 885 406 m 960 258 q 953 276 960 269 q 936 283 946 283 q 919 276 926 283 q 911 258 911 269 l 911 146 q 936 122 911 122 q 953 129 946 122 q 960 146 960 136 l 960 258 m 656 258 q 649 276 656 269 q 632 283 642 283 q 615 276 622 283 q 607 258 607 269 l 607 146 q 615 129 607 136 q 632 122 622 122 q 649 129 642 122 q 656 146 656 136 l 656 258 z "},"↑":{"ha":889,"x_min":42,"x_max":847,"o":"m 42 519 l 444 856 l 847 519 l 583 519 l 583 117 l 306 117 l 306 519 l 42 519 z "},"↗":{"ha":751,"x_min":42,"x_max":710,"o":"m 140 821 l 663 774 l 710 251 l 522 438 l 238 153 l 42 349 l 326 633 l 140 821 z "},"→":{"ha":822,"x_min":42,"x_max":781,"o":"m 444 889 l 781 486 l 444 83 l 444 347 l 42 347 l 42 625 l 444 625 l 444 889 z "},"↘":{"ha":751,"x_min":42,"x_max":710,"o":"m 710 721 l 663 199 l 140 151 l 326 339 l 42 624 l 238 819 l 522 535 l 710 721 z "},"↓":{"ha":889,"x_min":42,"x_max":847,"o":"m 42 453 l 306 453 l 306 856 l 583 856 l 583 453 l 847 453 l 444 117 l 42 453 z "},"↙":{"ha":751,"x_min":42,"x_max":710,"o":"m 611 151 l 89 199 l 42 721 l 229 535 l 514 819 l 710 624 l 425 339 l 611 151 z "},"←":{"ha":822,"x_min":42,"x_max":781,"o":"m 378 83 l 42 486 l 378 889 l 378 625 l 781 625 l 781 347 l 378 347 l 378 83 z "},"↖":{"ha":751,"x_min":42,"x_max":710,"o":"m 42 203 l 89 725 l 611 772 l 425 585 l 710 300 l 514 104 l 229 389 l 42 203 z "},"↔":{"ha":1144,"x_min":42,"x_max":1103,"o":"m 1103 486 l 767 83 l 767 347 l 378 347 l 378 83 l 42 486 l 378 889 l 378 625 l 767 625 l 767 889 l 1103 486 z "},"↕":{"ha":889,"x_min":42,"x_max":847,"o":"m 444 -44 l 42 292 l 306 292 l 306 681 l 42 681 l 444 1017 l 847 681 l 583 681 l 583 292 l 847 292 l 444 -44 z "},"◊":{"ha":690,"x_min":42,"x_max":649,"o":"m 331 972 l 360 972 l 649 486 l 360 0 l 331 0 l 42 486 l 331 972 z "},"̈":{"ha":0,"x_min":61,"x_max":397,"o":"m 61 1201 l 192 1201 l 192 1057 l 61 1057 l 61 1201 m 267 1201 l 397 1201 l 397 1057 l 267 1057 l 267 1201 z "},"̇":{"ha":0,"x_min":61,"x_max":192,"o":"m 61 1201 l 192 1201 l 192 1057 l 61 1057 l 61 1201 z "},"̀":{"ha":0,"x_min":42,"x_max":544,"o":"m 544 1115 l 533 1056 l 42 1146 l 53 1206 l 544 1115 z "},"́":{"ha":0,"x_min":42,"x_max":544,"o":"m 42 1115 l 533 1206 l 544 1146 l 53 1056 l 42 1115 z "},"̋":{"ha":0,"x_min":42,"x_max":458,"o":"m 42 1088 l 225 1318 l 274 1286 l 89 1056 l 42 1088 m 226 1088 l 410 1318 l 458 1286 l 274 1056 l 226 1088 z "},"̂":{"ha":0,"x_min":125,"x_max":717,"o":"m 154 1056 l 125 1108 l 421 1257 l 717 1108 l 688 1056 l 435 1183 l 407 1183 l 154 1056 z "},"̌":{"ha":0,"x_min":125,"x_max":717,"o":"m 154 1225 l 407 1097 l 435 1097 l 688 1225 l 717 1172 l 421 1024 l 125 1172 l 154 1225 z "},"̆":{"ha":0,"x_min":125,"x_max":653,"o":"m 389 1028 q 256 1049 317 1028 q 160 1105 196 1069 q 125 1182 125 1140 l 194 1182 q 255 1113 201 1139 q 389 1086 308 1086 q 524 1113 472 1086 q 582 1182 576 1139 l 653 1182 q 617 1105 653 1140 q 522 1049 582 1069 q 389 1028 463 1028 z "},"̊":{"ha":0,"x_min":42,"x_max":272,"o":"m 157 1056 q 76 1090 110 1056 q 42 1171 42 1124 q 76 1253 42 1219 q 157 1286 110 1286 q 239 1253 206 1286 q 272 1171 272 1219 q 239 1090 272 1124 q 157 1056 206 1056 m 156 1104 q 205 1123 186 1104 q 224 1169 224 1142 q 205 1219 224 1200 q 156 1238 186 1238 q 109 1219 128 1238 q 90 1169 90 1200 q 109 1123 90 1142 q 156 1104 128 1104 z "},"̃":{"ha":0,"x_min":47,"x_max":564,"o":"m 47 1094 q 60 1153 47 1119 q 103 1214 72 1188 q 189 1244 135 1240 q 274 1231 238 1249 q 343 1190 311 1213 q 408 1156 375 1168 q 467 1152 447 1143 q 493 1183 486 1161 q 500 1229 500 1204 l 564 1229 q 525 1119 564 1153 q 417 1094 486 1085 q 333 1125 369 1101 q 265 1170 297 1149 q 197 1189 233 1192 q 134 1158 154 1186 q 111 1094 114 1129 l 47 1094 z "},"̄":{"ha":0,"x_min":125,"x_max":688,"o":"m 125 1056 l 125 1117 l 688 1117 l 688 1056 l 125 1056 z "},"̉":{"ha":0,"x_min":0,"x_max":324,"o":"m 124 1097 q 143 1151 124 1135 q 189 1176 163 1168 q 235 1191 215 1183 q 254 1219 254 1199 q 222 1256 254 1247 q 163 1265 190 1265 q 101 1256 133 1265 q 69 1217 69 1246 l 69 1206 l 0 1206 l 0 1219 q 47 1299 0 1269 q 163 1328 94 1328 q 277 1299 231 1328 q 324 1219 324 1269 q 305 1165 324 1181 q 262 1142 286 1149 q 219 1128 238 1136 q 200 1097 200 1121 l 124 1097 z "},"̒":{"ha":0,"x_min":96,"x_max":207,"o":"m 207 1432 l 207 1056 l 96 1056 l 96 1182 l 151 1432 l 207 1432 z "},"̛":{"ha":0,"x_min":42,"x_max":236,"o":"m 42 682 l 42 792 q 83 818 68 792 q 105 886 99 844 q 111 972 111 928 l 236 972 q 230 882 236 932 q 204 786 224 832 q 146 711 185 740 q 42 682 107 682 z "},"̣":{"ha":0,"x_min":42,"x_max":264,"o":"m 42 -64 l 264 -64 l 264 -190 l 42 -190 l 42 -64 z "},"̦":{"ha":0,"x_min":42,"x_max":108,"o":"m 42 -236 l 42 -64 l 108 -64 l 108 -78 l 83 -236 l 42 -236 z "},"̧":{"ha":0,"x_min":38,"x_max":236,"o":"m 131 0 l 175 0 q 184 -38 175 -24 q 206 -65 193 -53 q 227 -94 218 -78 q 236 -139 236 -111 q 211 -201 236 -171 q 142 -232 186 -232 q 79 -210 104 -232 q 46 -153 54 -187 q 50 -82 38 -118 l 93 -87 q 95 -158 79 -135 q 142 -182 111 -182 q 180 -164 167 -182 q 188 -122 193 -146 q 169 -90 183 -103 q 143 -58 156 -78 q 131 0 131 -37 z "},"̨":{"ha":0,"x_min":42,"x_max":242,"o":"m 147 0 q 135 -58 147 -37 q 108 -90 122 -78 q 90 -122 94 -103 q 98 -164 85 -146 q 136 -182 111 -182 q 183 -158 167 -182 q 185 -87 200 -135 l 228 -82 q 233 -153 242 -118 q 199 -210 224 -187 q 136 -232 174 -232 q 67 -201 92 -232 q 42 -139 42 -171 q 51 -94 42 -111 q 72 -65 60 -78 q 94 -38 85 -53 q 103 0 103 -24 l 147 0 z "}}}
